G04 EAGLE Gerber RS-274X export*
G75*
%MOMM*%
%FSLAX34Y34*%
%LPD*%
%INBottom Copper*%
%IPPOS*%
%AMOC8*
5,1,8,0,0,1.08239X$1,22.5*%
G01*
%ADD10R,2.286000X5.080000*%
%ADD11P,4.508804X8X22.500000*%
%ADD12P,1.732040X8X22.500000*%
%ADD13C,1.320800*%
%ADD14C,1.006400*%
%ADD15C,0.756400*%
%ADD16C,0.609600*%

G36*
X288368Y213367D02*
X288368Y213367D01*
X288444Y213365D01*
X288613Y213387D01*
X288784Y213401D01*
X288858Y213419D01*
X288933Y213429D01*
X289097Y213478D01*
X289263Y213519D01*
X289332Y213549D01*
X289406Y213571D01*
X289559Y213647D01*
X289716Y213714D01*
X289780Y213755D01*
X289849Y213788D01*
X289988Y213887D01*
X290132Y213979D01*
X290189Y214030D01*
X290251Y214074D01*
X290372Y214194D01*
X290500Y214308D01*
X290548Y214367D01*
X290602Y214421D01*
X290703Y214559D01*
X290810Y214692D01*
X290847Y214758D01*
X290892Y214819D01*
X290969Y214972D01*
X291054Y215120D01*
X291080Y215192D01*
X291115Y215260D01*
X291166Y215423D01*
X291225Y215583D01*
X291240Y215658D01*
X291263Y215730D01*
X291275Y215835D01*
X291320Y216067D01*
X291327Y216303D01*
X291339Y216408D01*
X291339Y238234D01*
X291336Y238272D01*
X291338Y238310D01*
X291316Y238518D01*
X291299Y238726D01*
X291290Y238763D01*
X291286Y238801D01*
X291231Y239002D01*
X291181Y239205D01*
X291166Y239240D01*
X291155Y239277D01*
X291068Y239467D01*
X290986Y239658D01*
X290966Y239690D01*
X290950Y239725D01*
X290833Y239898D01*
X290721Y240074D01*
X290696Y240103D01*
X290674Y240134D01*
X290531Y240286D01*
X290392Y240442D01*
X290363Y240466D01*
X290337Y240494D01*
X290171Y240621D01*
X290008Y240752D01*
X289975Y240771D01*
X289945Y240794D01*
X289761Y240893D01*
X289580Y240996D01*
X289544Y241009D01*
X289510Y241027D01*
X289313Y241095D01*
X289117Y241168D01*
X289080Y241175D01*
X289044Y241187D01*
X288837Y241222D01*
X288633Y241262D01*
X288595Y241263D01*
X288557Y241270D01*
X288348Y241271D01*
X288140Y241278D01*
X288102Y241273D01*
X288064Y241273D01*
X287857Y241240D01*
X287651Y241213D01*
X287614Y241202D01*
X287577Y241196D01*
X287378Y241131D01*
X287179Y241071D01*
X287144Y241054D01*
X287108Y241042D01*
X286923Y240946D01*
X286735Y240854D01*
X286704Y240832D01*
X286670Y240814D01*
X286598Y240756D01*
X286333Y240568D01*
X286211Y240447D01*
X286137Y240389D01*
X276380Y230631D01*
X270700Y230631D01*
X270700Y253047D01*
X270695Y253103D01*
X270696Y253127D01*
X270694Y253141D01*
X270696Y253199D01*
X270674Y253369D01*
X270660Y253539D01*
X270641Y253613D01*
X270632Y253688D01*
X270582Y253852D01*
X270543Y254011D01*
X270586Y254128D01*
X270601Y254202D01*
X270623Y254275D01*
X270635Y254380D01*
X270681Y254612D01*
X270688Y254848D01*
X270700Y254953D01*
X270700Y277369D01*
X276380Y277369D01*
X286137Y267611D01*
X286166Y267586D01*
X286192Y267558D01*
X286354Y267427D01*
X286513Y267292D01*
X286546Y267272D01*
X286576Y267248D01*
X286756Y267145D01*
X286936Y267037D01*
X286971Y267023D01*
X287004Y267004D01*
X287200Y266931D01*
X287394Y266854D01*
X287431Y266846D01*
X287467Y266832D01*
X287672Y266792D01*
X287876Y266747D01*
X287914Y266745D01*
X287951Y266738D01*
X288159Y266731D01*
X288368Y266719D01*
X288406Y266724D01*
X288444Y266722D01*
X288651Y266750D01*
X288859Y266772D01*
X288895Y266782D01*
X288933Y266787D01*
X289133Y266847D01*
X289334Y266902D01*
X289369Y266918D01*
X289406Y266929D01*
X289593Y267021D01*
X289783Y267108D01*
X289815Y267129D01*
X289849Y267146D01*
X290018Y267267D01*
X290192Y267383D01*
X290220Y267410D01*
X290251Y267432D01*
X290399Y267578D01*
X290552Y267721D01*
X290575Y267752D01*
X290602Y267778D01*
X290725Y267947D01*
X290852Y268113D01*
X290870Y268146D01*
X290892Y268177D01*
X290986Y268363D01*
X291085Y268547D01*
X291098Y268584D01*
X291115Y268618D01*
X291177Y268816D01*
X291245Y269014D01*
X291251Y269052D01*
X291263Y269088D01*
X291273Y269180D01*
X291328Y269500D01*
X291329Y269672D01*
X291339Y269766D01*
X291339Y709571D01*
X291336Y709609D01*
X291338Y709647D01*
X291316Y709855D01*
X291299Y710063D01*
X291290Y710100D01*
X291286Y710138D01*
X291231Y710339D01*
X291181Y710542D01*
X291166Y710577D01*
X291155Y710613D01*
X291068Y710803D01*
X290986Y710995D01*
X290966Y711027D01*
X290950Y711062D01*
X290833Y711235D01*
X290721Y711411D01*
X290696Y711439D01*
X290674Y711471D01*
X290531Y711623D01*
X290392Y711779D01*
X290363Y711803D01*
X290337Y711831D01*
X290171Y711958D01*
X290008Y712089D01*
X289975Y712108D01*
X289945Y712131D01*
X289761Y712230D01*
X289580Y712333D01*
X289544Y712346D01*
X289510Y712364D01*
X289313Y712432D01*
X289117Y712504D01*
X289080Y712512D01*
X289044Y712524D01*
X288837Y712559D01*
X288633Y712599D01*
X288595Y712600D01*
X288557Y712607D01*
X288348Y712608D01*
X288140Y712614D01*
X288102Y712610D01*
X288064Y712610D01*
X287857Y712577D01*
X287651Y712550D01*
X287614Y712539D01*
X287577Y712533D01*
X287378Y712468D01*
X287179Y712408D01*
X287144Y712391D01*
X287108Y712379D01*
X286923Y712282D01*
X286735Y712191D01*
X286704Y712169D01*
X286670Y712151D01*
X286598Y712093D01*
X286333Y711905D01*
X286211Y711784D01*
X286137Y711726D01*
X275959Y701547D01*
X257441Y701547D01*
X244347Y714641D01*
X244347Y733159D01*
X257441Y746253D01*
X275959Y746253D01*
X286137Y736074D01*
X286166Y736050D01*
X286192Y736021D01*
X286354Y735890D01*
X286513Y735755D01*
X286546Y735735D01*
X286576Y735711D01*
X286756Y735608D01*
X286936Y735500D01*
X286971Y735486D01*
X287004Y735467D01*
X287200Y735395D01*
X287394Y735317D01*
X287431Y735309D01*
X287467Y735296D01*
X287672Y735256D01*
X287876Y735210D01*
X287914Y735208D01*
X287951Y735201D01*
X288159Y735194D01*
X288368Y735183D01*
X288406Y735187D01*
X288444Y735186D01*
X288651Y735213D01*
X288859Y735235D01*
X288895Y735245D01*
X288933Y735250D01*
X289133Y735310D01*
X289334Y735366D01*
X289369Y735381D01*
X289406Y735392D01*
X289593Y735484D01*
X289783Y735571D01*
X289815Y735593D01*
X289849Y735609D01*
X290018Y735730D01*
X290192Y735847D01*
X290220Y735873D01*
X290251Y735895D01*
X290399Y736041D01*
X290552Y736184D01*
X290575Y736215D01*
X290602Y736241D01*
X290725Y736410D01*
X290852Y736576D01*
X290870Y736609D01*
X290892Y736640D01*
X290986Y736826D01*
X291085Y737011D01*
X291098Y737047D01*
X291115Y737081D01*
X291177Y737279D01*
X291245Y737477D01*
X291251Y737515D01*
X291263Y737551D01*
X291273Y737644D01*
X291328Y737964D01*
X291329Y738136D01*
X291339Y738229D01*
X291339Y786792D01*
X291333Y786868D01*
X291335Y786944D01*
X291313Y787113D01*
X291299Y787284D01*
X291281Y787358D01*
X291271Y787433D01*
X291222Y787597D01*
X291181Y787763D01*
X291151Y787832D01*
X291129Y787906D01*
X291053Y788059D01*
X290986Y788216D01*
X290945Y788280D01*
X290912Y788349D01*
X290813Y788488D01*
X290721Y788632D01*
X290670Y788689D01*
X290626Y788751D01*
X290506Y788872D01*
X290392Y789000D01*
X290333Y789048D01*
X290279Y789102D01*
X290141Y789203D01*
X290008Y789310D01*
X289942Y789347D01*
X289881Y789392D01*
X289728Y789469D01*
X289580Y789554D01*
X289508Y789580D01*
X289440Y789615D01*
X289277Y789666D01*
X289117Y789725D01*
X289042Y789740D01*
X288970Y789763D01*
X288865Y789775D01*
X288633Y789820D01*
X288397Y789827D01*
X288292Y789839D01*
X213614Y789839D01*
X213538Y789833D01*
X213462Y789835D01*
X213293Y789813D01*
X213122Y789799D01*
X213048Y789781D01*
X212973Y789771D01*
X212809Y789722D01*
X212643Y789681D01*
X212574Y789651D01*
X212500Y789629D01*
X212347Y789553D01*
X212190Y789486D01*
X212126Y789445D01*
X212057Y789412D01*
X211918Y789313D01*
X211774Y789221D01*
X211717Y789170D01*
X211655Y789126D01*
X211534Y789006D01*
X211406Y788892D01*
X211358Y788833D01*
X211304Y788779D01*
X211203Y788641D01*
X211096Y788508D01*
X211059Y788442D01*
X211014Y788381D01*
X210937Y788228D01*
X210852Y788080D01*
X210826Y788008D01*
X210791Y787940D01*
X210740Y787777D01*
X210681Y787617D01*
X210666Y787542D01*
X210643Y787470D01*
X210631Y787365D01*
X210586Y787133D01*
X210579Y786897D01*
X210567Y786792D01*
X210567Y780160D01*
X199263Y780160D01*
X199187Y780154D01*
X199111Y780156D01*
X198942Y780134D01*
X198771Y780120D01*
X198698Y780102D01*
X198622Y780092D01*
X198458Y780043D01*
X198293Y780002D01*
X198223Y779972D01*
X198150Y779950D01*
X197996Y779874D01*
X197839Y779807D01*
X197775Y779766D01*
X197707Y779733D01*
X197567Y779634D01*
X197423Y779542D01*
X197366Y779491D01*
X197304Y779447D01*
X197183Y779327D01*
X197055Y779213D01*
X197007Y779154D01*
X196953Y779100D01*
X196853Y778962D01*
X196745Y778829D01*
X196708Y778763D01*
X196663Y778702D01*
X196599Y778575D01*
X196582Y778601D01*
X196548Y778670D01*
X196450Y778809D01*
X196358Y778953D01*
X196307Y779010D01*
X196263Y779072D01*
X196143Y779193D01*
X196029Y779321D01*
X195970Y779369D01*
X195916Y779423D01*
X195778Y779524D01*
X195645Y779631D01*
X195579Y779668D01*
X195517Y779713D01*
X195365Y779790D01*
X195216Y779875D01*
X195145Y779901D01*
X195077Y779936D01*
X194914Y779987D01*
X194754Y780046D01*
X194679Y780061D01*
X194607Y780084D01*
X194502Y780096D01*
X194270Y780141D01*
X194034Y780148D01*
X193929Y780160D01*
X182625Y780160D01*
X182625Y786792D01*
X182619Y786868D01*
X182621Y786944D01*
X182599Y787113D01*
X182585Y787284D01*
X182567Y787358D01*
X182557Y787433D01*
X182508Y787597D01*
X182467Y787763D01*
X182437Y787832D01*
X182415Y787906D01*
X182339Y788059D01*
X182272Y788216D01*
X182231Y788280D01*
X182198Y788349D01*
X182099Y788488D01*
X182007Y788632D01*
X181956Y788689D01*
X181912Y788751D01*
X181792Y788872D01*
X181678Y789000D01*
X181619Y789048D01*
X181565Y789102D01*
X181427Y789203D01*
X181294Y789310D01*
X181228Y789347D01*
X181167Y789392D01*
X181014Y789469D01*
X180866Y789554D01*
X180794Y789580D01*
X180726Y789615D01*
X180563Y789666D01*
X180403Y789725D01*
X180328Y789740D01*
X180256Y789763D01*
X180151Y789775D01*
X179919Y789820D01*
X179683Y789827D01*
X179578Y789839D01*
X125222Y789839D01*
X125146Y789833D01*
X125070Y789835D01*
X124901Y789813D01*
X124730Y789799D01*
X124656Y789781D01*
X124581Y789771D01*
X124417Y789722D01*
X124251Y789681D01*
X124182Y789651D01*
X124108Y789629D01*
X123955Y789553D01*
X123798Y789486D01*
X123734Y789445D01*
X123665Y789412D01*
X123526Y789313D01*
X123382Y789221D01*
X123325Y789170D01*
X123263Y789126D01*
X123142Y789006D01*
X123014Y788892D01*
X122966Y788833D01*
X122912Y788779D01*
X122811Y788641D01*
X122704Y788508D01*
X122667Y788442D01*
X122622Y788381D01*
X122545Y788228D01*
X122460Y788080D01*
X122434Y788008D01*
X122399Y787940D01*
X122348Y787777D01*
X122289Y787617D01*
X122274Y787542D01*
X122251Y787470D01*
X122239Y787365D01*
X122194Y787133D01*
X122187Y786897D01*
X122175Y786792D01*
X122175Y780160D01*
X110871Y780160D01*
X110795Y780154D01*
X110719Y780156D01*
X110550Y780134D01*
X110379Y780120D01*
X110306Y780102D01*
X110230Y780092D01*
X110066Y780043D01*
X109901Y780002D01*
X109831Y779972D01*
X109758Y779950D01*
X109604Y779874D01*
X109447Y779807D01*
X109383Y779766D01*
X109315Y779733D01*
X109175Y779634D01*
X109031Y779542D01*
X108974Y779491D01*
X108912Y779447D01*
X108791Y779327D01*
X108663Y779213D01*
X108615Y779154D01*
X108561Y779100D01*
X108461Y778962D01*
X108353Y778829D01*
X108316Y778763D01*
X108271Y778702D01*
X108207Y778575D01*
X108190Y778601D01*
X108156Y778670D01*
X108058Y778809D01*
X107966Y778953D01*
X107915Y779010D01*
X107871Y779072D01*
X107751Y779193D01*
X107637Y779321D01*
X107578Y779369D01*
X107524Y779423D01*
X107386Y779524D01*
X107253Y779631D01*
X107187Y779668D01*
X107125Y779713D01*
X106973Y779790D01*
X106824Y779875D01*
X106753Y779901D01*
X106685Y779936D01*
X106522Y779987D01*
X106362Y780046D01*
X106287Y780061D01*
X106215Y780084D01*
X106110Y780096D01*
X105878Y780141D01*
X105642Y780148D01*
X105537Y780160D01*
X94233Y780160D01*
X94233Y786792D01*
X94227Y786868D01*
X94229Y786944D01*
X94207Y787113D01*
X94193Y787284D01*
X94175Y787358D01*
X94165Y787433D01*
X94116Y787597D01*
X94075Y787763D01*
X94045Y787832D01*
X94023Y787906D01*
X93947Y788059D01*
X93880Y788216D01*
X93839Y788280D01*
X93806Y788349D01*
X93707Y788488D01*
X93615Y788632D01*
X93564Y788689D01*
X93520Y788751D01*
X93400Y788872D01*
X93286Y789000D01*
X93227Y789048D01*
X93173Y789102D01*
X93035Y789203D01*
X92902Y789310D01*
X92836Y789347D01*
X92775Y789392D01*
X92622Y789469D01*
X92474Y789554D01*
X92402Y789580D01*
X92334Y789615D01*
X92171Y789666D01*
X92011Y789725D01*
X91936Y789740D01*
X91864Y789763D01*
X91759Y789775D01*
X91527Y789820D01*
X91291Y789827D01*
X91186Y789839D01*
X13208Y789839D01*
X13132Y789833D01*
X13056Y789835D01*
X12887Y789813D01*
X12716Y789799D01*
X12642Y789781D01*
X12567Y789771D01*
X12403Y789722D01*
X12237Y789681D01*
X12168Y789651D01*
X12094Y789629D01*
X11941Y789553D01*
X11784Y789486D01*
X11720Y789445D01*
X11651Y789412D01*
X11512Y789313D01*
X11368Y789221D01*
X11311Y789170D01*
X11249Y789126D01*
X11128Y789006D01*
X11000Y788892D01*
X10952Y788833D01*
X10898Y788779D01*
X10797Y788641D01*
X10690Y788508D01*
X10653Y788442D01*
X10608Y788381D01*
X10531Y788228D01*
X10446Y788080D01*
X10420Y788008D01*
X10385Y787940D01*
X10334Y787777D01*
X10275Y787617D01*
X10260Y787542D01*
X10237Y787470D01*
X10225Y787365D01*
X10180Y787133D01*
X10173Y786897D01*
X10161Y786792D01*
X10161Y734929D01*
X10164Y734891D01*
X10162Y734853D01*
X10184Y734645D01*
X10201Y734437D01*
X10210Y734400D01*
X10214Y734362D01*
X10269Y734161D01*
X10319Y733958D01*
X10334Y733923D01*
X10345Y733887D01*
X10432Y733697D01*
X10514Y733505D01*
X10534Y733473D01*
X10550Y733438D01*
X10667Y733265D01*
X10779Y733089D01*
X10804Y733061D01*
X10826Y733029D01*
X10969Y732877D01*
X11108Y732721D01*
X11137Y732697D01*
X11163Y732669D01*
X11329Y732542D01*
X11492Y732411D01*
X11525Y732392D01*
X11555Y732369D01*
X11739Y732270D01*
X11920Y732167D01*
X11956Y732154D01*
X11990Y732136D01*
X12187Y732068D01*
X12383Y731996D01*
X12420Y731988D01*
X12456Y731976D01*
X12663Y731941D01*
X12867Y731901D01*
X12905Y731900D01*
X12943Y731893D01*
X13152Y731892D01*
X13360Y731886D01*
X13398Y731890D01*
X13436Y731890D01*
X13643Y731923D01*
X13849Y731950D01*
X13886Y731961D01*
X13923Y731967D01*
X14122Y732032D01*
X14321Y732092D01*
X14356Y732109D01*
X14392Y732121D01*
X14577Y732218D01*
X14765Y732309D01*
X14796Y732331D01*
X14830Y732349D01*
X14902Y732407D01*
X15167Y732595D01*
X15289Y732716D01*
X15363Y732774D01*
X28841Y746253D01*
X47359Y746253D01*
X60453Y733159D01*
X60453Y714641D01*
X47359Y701547D01*
X28841Y701547D01*
X15363Y715026D01*
X15334Y715050D01*
X15308Y715079D01*
X15146Y715210D01*
X14987Y715345D01*
X14954Y715365D01*
X14924Y715389D01*
X14744Y715492D01*
X14564Y715600D01*
X14529Y715614D01*
X14496Y715633D01*
X14300Y715706D01*
X14106Y715783D01*
X14069Y715791D01*
X14033Y715804D01*
X13828Y715845D01*
X13624Y715890D01*
X13586Y715892D01*
X13549Y715899D01*
X13341Y715906D01*
X13132Y715917D01*
X13094Y715913D01*
X13056Y715914D01*
X12849Y715887D01*
X12641Y715865D01*
X12605Y715855D01*
X12567Y715850D01*
X12367Y715790D01*
X12166Y715734D01*
X12131Y715719D01*
X12094Y715708D01*
X11907Y715616D01*
X11717Y715529D01*
X11685Y715507D01*
X11651Y715491D01*
X11482Y715370D01*
X11308Y715253D01*
X11280Y715227D01*
X11249Y715205D01*
X11101Y715059D01*
X10948Y714916D01*
X10925Y714885D01*
X10898Y714859D01*
X10775Y714690D01*
X10648Y714524D01*
X10630Y714491D01*
X10608Y714460D01*
X10514Y714274D01*
X10415Y714089D01*
X10402Y714053D01*
X10385Y714019D01*
X10323Y713821D01*
X10255Y713623D01*
X10249Y713585D01*
X10237Y713549D01*
X10227Y713456D01*
X10172Y713136D01*
X10171Y712964D01*
X10161Y712871D01*
X10161Y266466D01*
X10164Y266428D01*
X10162Y266390D01*
X10184Y266182D01*
X10201Y265974D01*
X10210Y265937D01*
X10214Y265899D01*
X10269Y265698D01*
X10319Y265495D01*
X10334Y265460D01*
X10345Y265423D01*
X10432Y265233D01*
X10514Y265042D01*
X10534Y265010D01*
X10550Y264975D01*
X10667Y264802D01*
X10779Y264626D01*
X10804Y264597D01*
X10826Y264566D01*
X10969Y264414D01*
X11108Y264258D01*
X11137Y264234D01*
X11163Y264206D01*
X11329Y264079D01*
X11492Y263948D01*
X11525Y263929D01*
X11555Y263906D01*
X11739Y263807D01*
X11920Y263704D01*
X11956Y263691D01*
X11990Y263673D01*
X12187Y263605D01*
X12383Y263532D01*
X12420Y263525D01*
X12456Y263513D01*
X12663Y263478D01*
X12867Y263438D01*
X12905Y263437D01*
X12943Y263430D01*
X13152Y263429D01*
X13360Y263422D01*
X13398Y263427D01*
X13436Y263427D01*
X13643Y263460D01*
X13849Y263487D01*
X13886Y263498D01*
X13923Y263504D01*
X14122Y263569D01*
X14321Y263629D01*
X14356Y263646D01*
X14392Y263658D01*
X14577Y263754D01*
X14765Y263846D01*
X14796Y263868D01*
X14830Y263886D01*
X14902Y263944D01*
X15167Y264132D01*
X15289Y264253D01*
X15363Y264311D01*
X28420Y277369D01*
X34100Y277369D01*
X34100Y254953D01*
X34106Y254877D01*
X34104Y254801D01*
X34126Y254631D01*
X34140Y254461D01*
X34158Y254387D01*
X34168Y254312D01*
X34218Y254148D01*
X34257Y253989D01*
X34214Y253872D01*
X34199Y253798D01*
X34177Y253725D01*
X34165Y253620D01*
X34119Y253388D01*
X34112Y253152D01*
X34100Y253047D01*
X34100Y230631D01*
X28420Y230631D01*
X15363Y243689D01*
X15334Y243714D01*
X15308Y243742D01*
X15146Y243873D01*
X14987Y244008D01*
X14954Y244028D01*
X14924Y244052D01*
X14744Y244155D01*
X14564Y244263D01*
X14529Y244277D01*
X14496Y244296D01*
X14300Y244369D01*
X14106Y244446D01*
X14069Y244454D01*
X14033Y244468D01*
X13828Y244508D01*
X13624Y244553D01*
X13586Y244555D01*
X13549Y244562D01*
X13341Y244569D01*
X13132Y244581D01*
X13094Y244576D01*
X13056Y244578D01*
X12849Y244550D01*
X12641Y244528D01*
X12605Y244518D01*
X12567Y244513D01*
X12367Y244453D01*
X12166Y244398D01*
X12131Y244382D01*
X12094Y244371D01*
X11907Y244279D01*
X11717Y244192D01*
X11685Y244171D01*
X11651Y244154D01*
X11482Y244033D01*
X11308Y243917D01*
X11280Y243890D01*
X11249Y243868D01*
X11101Y243722D01*
X10948Y243579D01*
X10925Y243548D01*
X10898Y243522D01*
X10775Y243353D01*
X10648Y243187D01*
X10630Y243154D01*
X10608Y243123D01*
X10514Y242937D01*
X10415Y242753D01*
X10402Y242716D01*
X10385Y242682D01*
X10323Y242484D01*
X10255Y242286D01*
X10249Y242248D01*
X10237Y242212D01*
X10227Y242120D01*
X10172Y241800D01*
X10171Y241628D01*
X10161Y241534D01*
X10161Y216408D01*
X10167Y216332D01*
X10165Y216256D01*
X10187Y216087D01*
X10201Y215916D01*
X10219Y215842D01*
X10229Y215767D01*
X10278Y215603D01*
X10319Y215437D01*
X10349Y215368D01*
X10371Y215294D01*
X10447Y215141D01*
X10514Y214984D01*
X10555Y214920D01*
X10588Y214851D01*
X10687Y214712D01*
X10779Y214568D01*
X10830Y214511D01*
X10874Y214449D01*
X10994Y214328D01*
X11108Y214200D01*
X11167Y214152D01*
X11221Y214098D01*
X11359Y213997D01*
X11492Y213890D01*
X11558Y213853D01*
X11619Y213808D01*
X11772Y213731D01*
X11920Y213646D01*
X11992Y213620D01*
X12060Y213585D01*
X12223Y213534D01*
X12383Y213475D01*
X12458Y213460D01*
X12530Y213437D01*
X12635Y213425D01*
X12867Y213380D01*
X13103Y213373D01*
X13208Y213361D01*
X288292Y213361D01*
X288368Y213367D01*
G37*
%LPC*%
G36*
X202144Y299493D02*
X202144Y299493D01*
X200194Y300301D01*
X198701Y301794D01*
X198199Y303006D01*
X198195Y303015D01*
X198192Y303024D01*
X198082Y303235D01*
X197974Y303445D01*
X197968Y303453D01*
X197964Y303461D01*
X197939Y303493D01*
X197681Y303842D01*
X197587Y303933D01*
X197539Y303995D01*
X148523Y353010D01*
X147827Y354690D01*
X147827Y402966D01*
X147826Y402976D01*
X147827Y402986D01*
X147807Y403221D01*
X147787Y403458D01*
X147785Y403467D01*
X147784Y403477D01*
X147773Y403515D01*
X147669Y403937D01*
X147617Y404057D01*
X147595Y404132D01*
X147093Y405344D01*
X147093Y407456D01*
X147901Y409406D01*
X149394Y410899D01*
X151344Y411707D01*
X153456Y411707D01*
X155406Y410899D01*
X156899Y409406D01*
X157707Y407456D01*
X157707Y405344D01*
X157205Y404132D01*
X157202Y404123D01*
X157197Y404114D01*
X157126Y403888D01*
X157053Y403663D01*
X157052Y403653D01*
X157049Y403644D01*
X157044Y403603D01*
X156980Y403175D01*
X156982Y403044D01*
X156973Y402966D01*
X156973Y358756D01*
X156982Y358643D01*
X156981Y358528D01*
X157002Y358397D01*
X157013Y358265D01*
X157040Y358154D01*
X157058Y358041D01*
X157099Y357915D01*
X157131Y357786D01*
X157176Y357681D01*
X157212Y357572D01*
X157274Y357454D01*
X157326Y357332D01*
X157387Y357236D01*
X157440Y357135D01*
X157499Y357061D01*
X157591Y356916D01*
X157807Y356674D01*
X157865Y356602D01*
X204005Y310461D01*
X204013Y310455D01*
X204019Y310448D01*
X204201Y310296D01*
X204381Y310142D01*
X204390Y310137D01*
X204397Y310131D01*
X204432Y310111D01*
X204804Y309887D01*
X204925Y309839D01*
X204994Y309801D01*
X206206Y309299D01*
X207699Y307806D01*
X208507Y305856D01*
X208507Y303744D01*
X207699Y301794D01*
X206206Y300301D01*
X204256Y299493D01*
X202144Y299493D01*
G37*
%LPD*%
%LPC*%
G36*
X235619Y372871D02*
X235619Y372871D01*
X232631Y374109D01*
X230345Y376395D01*
X229107Y379383D01*
X229107Y382617D01*
X230345Y385605D01*
X232631Y387891D01*
X235619Y389129D01*
X252061Y389129D01*
X255049Y387891D01*
X257335Y385605D01*
X258573Y382617D01*
X258573Y379383D01*
X257335Y376395D01*
X255049Y374109D01*
X252061Y372871D01*
X235619Y372871D01*
G37*
%LPD*%
%LPC*%
G36*
X235619Y347471D02*
X235619Y347471D01*
X232631Y348709D01*
X230345Y350995D01*
X229107Y353983D01*
X229107Y357217D01*
X230345Y360205D01*
X232631Y362491D01*
X235619Y363729D01*
X252061Y363729D01*
X255049Y362491D01*
X257335Y360205D01*
X258573Y357217D01*
X258573Y353983D01*
X257335Y350995D01*
X255049Y348709D01*
X252061Y347471D01*
X235619Y347471D01*
G37*
%LPD*%
%LPC*%
G36*
X235619Y322071D02*
X235619Y322071D01*
X232631Y323309D01*
X230345Y325595D01*
X229107Y328583D01*
X229107Y331817D01*
X230345Y334805D01*
X232631Y337091D01*
X235619Y338329D01*
X252061Y338329D01*
X255049Y337091D01*
X257335Y334805D01*
X258573Y331817D01*
X258573Y328583D01*
X257335Y325595D01*
X255049Y323309D01*
X252061Y322071D01*
X235619Y322071D01*
G37*
%LPD*%
%LPC*%
G36*
X97654Y244474D02*
X97654Y244474D01*
X92074Y250054D01*
X92074Y257946D01*
X97654Y263526D01*
X105546Y263526D01*
X111126Y257946D01*
X111126Y250054D01*
X105546Y244474D01*
X97654Y244474D01*
G37*
%LPD*%
%LPC*%
G36*
X42100Y258000D02*
X42100Y258000D01*
X42100Y277369D01*
X47780Y277369D01*
X61469Y263680D01*
X61469Y258000D01*
X42100Y258000D01*
G37*
%LPD*%
%LPC*%
G36*
X243331Y258000D02*
X243331Y258000D01*
X243331Y263680D01*
X257020Y277369D01*
X262700Y277369D01*
X262700Y258000D01*
X243331Y258000D01*
G37*
%LPD*%
%LPC*%
G36*
X42100Y230631D02*
X42100Y230631D01*
X42100Y250000D01*
X61469Y250000D01*
X61469Y244320D01*
X47780Y230631D01*
X42100Y230631D01*
G37*
%LPD*%
%LPC*%
G36*
X257020Y230631D02*
X257020Y230631D01*
X243331Y244320D01*
X243331Y250000D01*
X262700Y250000D01*
X262700Y230631D01*
X257020Y230631D01*
G37*
%LPD*%
%LPC*%
G36*
X202310Y768732D02*
X202310Y768732D01*
X210567Y768732D01*
X210567Y748711D01*
X210394Y748065D01*
X210059Y747486D01*
X209586Y747013D01*
X209007Y746678D01*
X208361Y746505D01*
X202310Y746505D01*
X202310Y768732D01*
G37*
%LPD*%
%LPC*%
G36*
X113918Y768732D02*
X113918Y768732D01*
X122175Y768732D01*
X122175Y748711D01*
X122002Y748065D01*
X121667Y747486D01*
X121194Y747013D01*
X120615Y746678D01*
X119969Y746505D01*
X113918Y746505D01*
X113918Y768732D01*
G37*
%LPD*%
%LPC*%
G36*
X184831Y746505D02*
X184831Y746505D01*
X184185Y746678D01*
X183606Y747013D01*
X183133Y747486D01*
X182798Y748065D01*
X182625Y748711D01*
X182625Y768732D01*
X190882Y768732D01*
X190882Y746505D01*
X184831Y746505D01*
G37*
%LPD*%
%LPC*%
G36*
X96439Y746505D02*
X96439Y746505D01*
X95793Y746678D01*
X95214Y747013D01*
X94741Y747486D01*
X94406Y748065D01*
X94233Y748711D01*
X94233Y768732D01*
X102490Y768732D01*
X102490Y746505D01*
X96439Y746505D01*
G37*
%LPD*%
%LPC*%
G36*
X142747Y257047D02*
X142747Y257047D01*
X142747Y264542D01*
X144067Y264542D01*
X150242Y258367D01*
X150242Y257047D01*
X142747Y257047D01*
G37*
%LPD*%
%LPC*%
G36*
X129158Y257047D02*
X129158Y257047D01*
X129158Y258367D01*
X135333Y264542D01*
X136653Y264542D01*
X136653Y257047D01*
X129158Y257047D01*
G37*
%LPD*%
%LPC*%
G36*
X142747Y243458D02*
X142747Y243458D01*
X142747Y250953D01*
X150242Y250953D01*
X150242Y249633D01*
X144067Y243458D01*
X142747Y243458D01*
G37*
%LPD*%
%LPC*%
G36*
X135333Y243458D02*
X135333Y243458D01*
X129158Y249633D01*
X129158Y250953D01*
X136653Y250953D01*
X136653Y243458D01*
X135333Y243458D01*
G37*
%LPD*%
D10*
X108204Y774446D03*
X196596Y774446D03*
D11*
X38100Y723900D03*
X38100Y254000D03*
X266700Y723900D03*
X266700Y254000D03*
D12*
X101600Y254000D03*
X139700Y254000D03*
D13*
X237236Y355600D02*
X250444Y355600D01*
X250444Y330200D02*
X237236Y330200D01*
X237236Y381000D02*
X250444Y381000D01*
D14*
X127000Y736600D03*
X177800Y736600D03*
X177800Y711200D03*
X127000Y711200D03*
X127000Y685800D03*
X177800Y685800D03*
X127000Y660400D03*
X177800Y660400D03*
X177800Y635000D03*
X127000Y635000D03*
X127000Y609600D03*
X177800Y609600D03*
X241300Y609600D03*
X241300Y571500D03*
X241300Y546100D03*
X177800Y546100D03*
X127000Y546100D03*
X127000Y520700D03*
X177800Y520700D03*
X177800Y482600D03*
X127000Y482600D03*
X50800Y609600D03*
X50800Y571500D03*
X50800Y546100D03*
D15*
X152400Y406400D03*
D16*
X152400Y355600D01*
X203200Y304800D01*
D15*
X203200Y304800D03*
M02*
