G04 EAGLE Gerber RS-274X export*
G75*
%MOMM*%
%FSLAX34Y34*%
%LPD*%
%INBottom Copper*%
%IPPOS*%
%AMOC8*
5,1,8,0,0,1.08239X$1,22.5*%
G01*
%ADD10R,2.286000X5.080000*%
%ADD11P,1.732040X8X22.500000*%
%ADD12C,1.320800*%
%ADD13P,4.870755X8X22.500000*%
%ADD14C,1.006400*%
%ADD15C,0.756400*%
%ADD16C,0.609600*%

G36*
X288368Y213367D02*
X288368Y213367D01*
X288444Y213365D01*
X288613Y213387D01*
X288784Y213401D01*
X288858Y213419D01*
X288933Y213429D01*
X289097Y213478D01*
X289263Y213519D01*
X289332Y213549D01*
X289406Y213571D01*
X289559Y213647D01*
X289716Y213714D01*
X289780Y213755D01*
X289849Y213788D01*
X289988Y213887D01*
X290132Y213979D01*
X290189Y214030D01*
X290251Y214074D01*
X290372Y214194D01*
X290500Y214308D01*
X290548Y214367D01*
X290602Y214421D01*
X290703Y214559D01*
X290810Y214692D01*
X290847Y214758D01*
X290892Y214819D01*
X290969Y214972D01*
X291054Y215120D01*
X291080Y215192D01*
X291115Y215260D01*
X291166Y215423D01*
X291225Y215583D01*
X291240Y215658D01*
X291263Y215730D01*
X291275Y215835D01*
X291320Y216067D01*
X291327Y216303D01*
X291339Y216408D01*
X291339Y235870D01*
X291336Y235908D01*
X291338Y235946D01*
X291316Y236153D01*
X291299Y236361D01*
X291290Y236398D01*
X291286Y236436D01*
X291231Y236637D01*
X291181Y236840D01*
X291166Y236875D01*
X291155Y236912D01*
X291068Y237102D01*
X290986Y237294D01*
X290966Y237326D01*
X290950Y237360D01*
X290833Y237534D01*
X290721Y237710D01*
X290696Y237738D01*
X290674Y237770D01*
X290531Y237922D01*
X290392Y238077D01*
X290363Y238101D01*
X290337Y238129D01*
X290171Y238256D01*
X290008Y238387D01*
X289975Y238406D01*
X289945Y238430D01*
X289761Y238528D01*
X289580Y238631D01*
X289544Y238645D01*
X289510Y238663D01*
X289313Y238730D01*
X289117Y238803D01*
X289080Y238810D01*
X289044Y238823D01*
X288837Y238858D01*
X288633Y238898D01*
X288595Y238899D01*
X288557Y238905D01*
X288348Y238907D01*
X288140Y238913D01*
X288102Y238908D01*
X288064Y238908D01*
X287857Y238876D01*
X287651Y238849D01*
X287614Y238838D01*
X287577Y238832D01*
X287378Y238766D01*
X287179Y238706D01*
X287144Y238689D01*
X287108Y238677D01*
X286923Y238581D01*
X286735Y238489D01*
X286704Y238467D01*
X286670Y238450D01*
X286598Y238392D01*
X286333Y238204D01*
X286211Y238083D01*
X286137Y238024D01*
X277072Y228959D01*
X272795Y228959D01*
X272795Y250952D01*
X272789Y251028D01*
X272791Y251104D01*
X272769Y251273D01*
X272755Y251444D01*
X272737Y251517D01*
X272727Y251593D01*
X272678Y251757D01*
X272637Y251922D01*
X272607Y251992D01*
X272584Y252065D01*
X272509Y252219D01*
X272442Y252376D01*
X272401Y252440D01*
X272368Y252508D01*
X272269Y252648D01*
X272177Y252792D01*
X272126Y252849D01*
X272082Y252911D01*
X271962Y253032D01*
X271848Y253160D01*
X271789Y253208D01*
X271735Y253262D01*
X271597Y253362D01*
X271464Y253470D01*
X271398Y253507D01*
X271337Y253552D01*
X271184Y253629D01*
X271036Y253714D01*
X270964Y253740D01*
X270896Y253774D01*
X270733Y253826D01*
X270573Y253885D01*
X270498Y253900D01*
X270426Y253923D01*
X270321Y253935D01*
X270089Y253980D01*
X269853Y253987D01*
X269748Y253999D01*
X266699Y253999D01*
X266699Y254001D01*
X269748Y254001D01*
X269824Y254007D01*
X269900Y254005D01*
X270069Y254027D01*
X270240Y254041D01*
X270314Y254059D01*
X270389Y254069D01*
X270553Y254118D01*
X270718Y254160D01*
X270788Y254190D01*
X270861Y254212D01*
X271015Y254287D01*
X271172Y254354D01*
X271236Y254395D01*
X271305Y254428D01*
X271444Y254527D01*
X271588Y254619D01*
X271645Y254670D01*
X271707Y254714D01*
X271828Y254834D01*
X271956Y254948D01*
X272004Y255007D01*
X272058Y255061D01*
X272158Y255199D01*
X272266Y255332D01*
X272303Y255398D01*
X272348Y255459D01*
X272425Y255612D01*
X272510Y255760D01*
X272536Y255832D01*
X272571Y255900D01*
X272622Y256063D01*
X272681Y256223D01*
X272696Y256298D01*
X272719Y256370D01*
X272731Y256475D01*
X272776Y256707D01*
X272783Y256943D01*
X272795Y257048D01*
X272795Y279041D01*
X277072Y279041D01*
X286137Y269976D01*
X286166Y269951D01*
X286192Y269923D01*
X286354Y269792D01*
X286513Y269656D01*
X286546Y269636D01*
X286576Y269613D01*
X286757Y269509D01*
X286936Y269402D01*
X286971Y269387D01*
X287004Y269369D01*
X287200Y269296D01*
X287394Y269218D01*
X287431Y269210D01*
X287467Y269197D01*
X287672Y269157D01*
X287876Y269112D01*
X287914Y269110D01*
X287951Y269102D01*
X288159Y269096D01*
X288368Y269084D01*
X288406Y269088D01*
X288444Y269087D01*
X288651Y269114D01*
X288859Y269136D01*
X288895Y269146D01*
X288933Y269151D01*
X289133Y269212D01*
X289334Y269267D01*
X289369Y269283D01*
X289406Y269294D01*
X289593Y269385D01*
X289783Y269473D01*
X289815Y269494D01*
X289849Y269511D01*
X290018Y269631D01*
X290192Y269748D01*
X290220Y269774D01*
X290251Y269796D01*
X290399Y269943D01*
X290552Y270086D01*
X290575Y270116D01*
X290602Y270143D01*
X290725Y270312D01*
X290852Y270477D01*
X290870Y270511D01*
X290892Y270542D01*
X290986Y270728D01*
X291085Y270912D01*
X291098Y270948D01*
X291115Y270982D01*
X291177Y271181D01*
X291245Y271379D01*
X291251Y271416D01*
X291263Y271453D01*
X291273Y271545D01*
X291328Y271865D01*
X291329Y272037D01*
X291339Y272130D01*
X291339Y707206D01*
X291336Y707244D01*
X291338Y707283D01*
X291316Y707490D01*
X291299Y707698D01*
X291290Y707735D01*
X291286Y707773D01*
X291231Y707974D01*
X291181Y708177D01*
X291166Y708212D01*
X291155Y708249D01*
X291068Y708439D01*
X290986Y708630D01*
X290966Y708663D01*
X290950Y708697D01*
X290833Y708871D01*
X290721Y709046D01*
X290696Y709075D01*
X290674Y709107D01*
X290531Y709259D01*
X290392Y709414D01*
X290363Y709438D01*
X290337Y709466D01*
X290171Y709593D01*
X290008Y709724D01*
X289975Y709743D01*
X289945Y709766D01*
X289761Y709865D01*
X289580Y709968D01*
X289544Y709982D01*
X289510Y710000D01*
X289313Y710067D01*
X289117Y710140D01*
X289080Y710147D01*
X289044Y710160D01*
X288837Y710195D01*
X288633Y710235D01*
X288595Y710236D01*
X288557Y710242D01*
X288348Y710243D01*
X288140Y710250D01*
X288102Y710245D01*
X288064Y710245D01*
X287857Y710213D01*
X287651Y710186D01*
X287614Y710175D01*
X287577Y710169D01*
X287378Y710103D01*
X287179Y710043D01*
X287144Y710026D01*
X287108Y710014D01*
X286923Y709918D01*
X286735Y709826D01*
X286704Y709804D01*
X286670Y709786D01*
X286598Y709728D01*
X286333Y709541D01*
X286211Y709420D01*
X286137Y709361D01*
X276651Y699875D01*
X256749Y699875D01*
X242675Y713949D01*
X242675Y733851D01*
X256749Y747925D01*
X276651Y747925D01*
X286137Y738439D01*
X286166Y738414D01*
X286192Y738386D01*
X286354Y738255D01*
X286513Y738119D01*
X286546Y738100D01*
X286576Y738076D01*
X286756Y737973D01*
X286936Y737865D01*
X286971Y737851D01*
X287004Y737832D01*
X287200Y737759D01*
X287394Y737682D01*
X287431Y737673D01*
X287467Y737660D01*
X287672Y737620D01*
X287876Y737575D01*
X287914Y737573D01*
X287951Y737565D01*
X288159Y737559D01*
X288368Y737547D01*
X288406Y737551D01*
X288444Y737550D01*
X288651Y737577D01*
X288859Y737599D01*
X288895Y737609D01*
X288933Y737614D01*
X289133Y737675D01*
X289334Y737730D01*
X289369Y737746D01*
X289406Y737757D01*
X289593Y737849D01*
X289783Y737936D01*
X289815Y737957D01*
X289849Y737974D01*
X290018Y738094D01*
X290192Y738211D01*
X290220Y738237D01*
X290251Y738259D01*
X290399Y738406D01*
X290552Y738549D01*
X290575Y738579D01*
X290602Y738606D01*
X290725Y738775D01*
X290852Y738940D01*
X290870Y738974D01*
X290892Y739005D01*
X290986Y739191D01*
X291085Y739375D01*
X291098Y739411D01*
X291115Y739445D01*
X291177Y739644D01*
X291245Y739842D01*
X291251Y739879D01*
X291263Y739916D01*
X291273Y740008D01*
X291328Y740328D01*
X291329Y740500D01*
X291339Y740594D01*
X291339Y786792D01*
X291333Y786868D01*
X291335Y786944D01*
X291313Y787113D01*
X291299Y787284D01*
X291281Y787358D01*
X291271Y787433D01*
X291222Y787597D01*
X291181Y787763D01*
X291151Y787832D01*
X291129Y787906D01*
X291053Y788059D01*
X290986Y788216D01*
X290945Y788280D01*
X290912Y788349D01*
X290813Y788488D01*
X290721Y788632D01*
X290670Y788689D01*
X290626Y788751D01*
X290506Y788872D01*
X290392Y789000D01*
X290333Y789048D01*
X290279Y789102D01*
X290141Y789203D01*
X290008Y789310D01*
X289942Y789347D01*
X289881Y789392D01*
X289728Y789469D01*
X289580Y789554D01*
X289508Y789580D01*
X289440Y789615D01*
X289277Y789666D01*
X289117Y789725D01*
X289042Y789740D01*
X288970Y789763D01*
X288865Y789775D01*
X288633Y789820D01*
X288397Y789827D01*
X288292Y789839D01*
X213614Y789839D01*
X213538Y789833D01*
X213462Y789835D01*
X213293Y789813D01*
X213122Y789799D01*
X213048Y789781D01*
X212973Y789771D01*
X212809Y789722D01*
X212643Y789681D01*
X212574Y789651D01*
X212500Y789629D01*
X212347Y789553D01*
X212190Y789486D01*
X212126Y789445D01*
X212057Y789412D01*
X211918Y789313D01*
X211774Y789221D01*
X211717Y789170D01*
X211655Y789126D01*
X211534Y789006D01*
X211406Y788892D01*
X211358Y788833D01*
X211304Y788779D01*
X211203Y788641D01*
X211096Y788508D01*
X211059Y788442D01*
X211014Y788381D01*
X210937Y788228D01*
X210852Y788080D01*
X210826Y788008D01*
X210791Y787940D01*
X210740Y787777D01*
X210681Y787617D01*
X210666Y787542D01*
X210643Y787470D01*
X210631Y787365D01*
X210586Y787133D01*
X210579Y786897D01*
X210567Y786792D01*
X210567Y780160D01*
X199263Y780160D01*
X199187Y780154D01*
X199111Y780156D01*
X198942Y780134D01*
X198771Y780120D01*
X198698Y780102D01*
X198622Y780092D01*
X198458Y780043D01*
X198293Y780002D01*
X198223Y779972D01*
X198150Y779950D01*
X197996Y779874D01*
X197839Y779807D01*
X197775Y779766D01*
X197707Y779733D01*
X197567Y779634D01*
X197423Y779542D01*
X197366Y779491D01*
X197304Y779447D01*
X197183Y779327D01*
X197055Y779213D01*
X197007Y779154D01*
X196953Y779100D01*
X196853Y778962D01*
X196745Y778829D01*
X196708Y778763D01*
X196663Y778702D01*
X196599Y778575D01*
X196582Y778601D01*
X196548Y778670D01*
X196450Y778809D01*
X196358Y778953D01*
X196307Y779010D01*
X196263Y779072D01*
X196143Y779193D01*
X196029Y779321D01*
X195970Y779369D01*
X195916Y779423D01*
X195778Y779524D01*
X195645Y779631D01*
X195579Y779668D01*
X195517Y779713D01*
X195365Y779790D01*
X195216Y779875D01*
X195145Y779901D01*
X195077Y779936D01*
X194914Y779987D01*
X194754Y780046D01*
X194679Y780061D01*
X194607Y780084D01*
X194502Y780096D01*
X194270Y780141D01*
X194034Y780148D01*
X193929Y780160D01*
X182625Y780160D01*
X182625Y786792D01*
X182619Y786868D01*
X182621Y786944D01*
X182599Y787113D01*
X182585Y787284D01*
X182567Y787358D01*
X182557Y787433D01*
X182508Y787597D01*
X182467Y787763D01*
X182437Y787832D01*
X182415Y787906D01*
X182339Y788059D01*
X182272Y788216D01*
X182231Y788280D01*
X182198Y788349D01*
X182099Y788488D01*
X182007Y788632D01*
X181956Y788689D01*
X181912Y788751D01*
X181792Y788872D01*
X181678Y789000D01*
X181619Y789048D01*
X181565Y789102D01*
X181427Y789203D01*
X181294Y789310D01*
X181228Y789347D01*
X181167Y789392D01*
X181014Y789469D01*
X180866Y789554D01*
X180794Y789580D01*
X180726Y789615D01*
X180563Y789666D01*
X180403Y789725D01*
X180328Y789740D01*
X180256Y789763D01*
X180151Y789775D01*
X179919Y789820D01*
X179683Y789827D01*
X179578Y789839D01*
X125222Y789839D01*
X125146Y789833D01*
X125070Y789835D01*
X124901Y789813D01*
X124730Y789799D01*
X124656Y789781D01*
X124581Y789771D01*
X124417Y789722D01*
X124251Y789681D01*
X124182Y789651D01*
X124108Y789629D01*
X123955Y789553D01*
X123798Y789486D01*
X123734Y789445D01*
X123665Y789412D01*
X123526Y789313D01*
X123382Y789221D01*
X123325Y789170D01*
X123263Y789126D01*
X123142Y789006D01*
X123014Y788892D01*
X122966Y788833D01*
X122912Y788779D01*
X122811Y788641D01*
X122704Y788508D01*
X122667Y788442D01*
X122622Y788381D01*
X122545Y788228D01*
X122460Y788080D01*
X122434Y788008D01*
X122399Y787940D01*
X122348Y787777D01*
X122289Y787617D01*
X122274Y787542D01*
X122251Y787470D01*
X122239Y787365D01*
X122194Y787133D01*
X122187Y786897D01*
X122175Y786792D01*
X122175Y780160D01*
X110871Y780160D01*
X110795Y780154D01*
X110719Y780156D01*
X110550Y780134D01*
X110379Y780120D01*
X110306Y780102D01*
X110230Y780092D01*
X110066Y780043D01*
X109901Y780002D01*
X109831Y779972D01*
X109758Y779950D01*
X109604Y779874D01*
X109447Y779807D01*
X109383Y779766D01*
X109315Y779733D01*
X109175Y779634D01*
X109031Y779542D01*
X108974Y779491D01*
X108912Y779447D01*
X108791Y779327D01*
X108663Y779213D01*
X108615Y779154D01*
X108561Y779100D01*
X108461Y778962D01*
X108353Y778829D01*
X108316Y778763D01*
X108271Y778702D01*
X108207Y778575D01*
X108190Y778601D01*
X108156Y778670D01*
X108058Y778809D01*
X107966Y778953D01*
X107915Y779010D01*
X107871Y779072D01*
X107751Y779193D01*
X107637Y779321D01*
X107578Y779369D01*
X107524Y779423D01*
X107386Y779524D01*
X107253Y779631D01*
X107187Y779668D01*
X107125Y779713D01*
X106973Y779790D01*
X106824Y779875D01*
X106753Y779901D01*
X106685Y779936D01*
X106522Y779987D01*
X106362Y780046D01*
X106287Y780061D01*
X106215Y780084D01*
X106110Y780096D01*
X105878Y780141D01*
X105642Y780148D01*
X105537Y780160D01*
X94233Y780160D01*
X94233Y786792D01*
X94227Y786868D01*
X94229Y786944D01*
X94207Y787113D01*
X94193Y787284D01*
X94175Y787358D01*
X94165Y787433D01*
X94116Y787597D01*
X94075Y787763D01*
X94045Y787832D01*
X94023Y787906D01*
X93947Y788059D01*
X93880Y788216D01*
X93839Y788280D01*
X93806Y788349D01*
X93707Y788488D01*
X93615Y788632D01*
X93564Y788689D01*
X93520Y788751D01*
X93400Y788872D01*
X93286Y789000D01*
X93227Y789048D01*
X93173Y789102D01*
X93035Y789203D01*
X92902Y789310D01*
X92836Y789347D01*
X92775Y789392D01*
X92622Y789469D01*
X92474Y789554D01*
X92402Y789580D01*
X92334Y789615D01*
X92171Y789666D01*
X92011Y789725D01*
X91936Y789740D01*
X91864Y789763D01*
X91759Y789775D01*
X91527Y789820D01*
X91291Y789827D01*
X91186Y789839D01*
X13208Y789839D01*
X13132Y789833D01*
X13056Y789835D01*
X12887Y789813D01*
X12716Y789799D01*
X12642Y789781D01*
X12567Y789771D01*
X12403Y789722D01*
X12237Y789681D01*
X12168Y789651D01*
X12094Y789629D01*
X11941Y789553D01*
X11784Y789486D01*
X11720Y789445D01*
X11651Y789412D01*
X11512Y789313D01*
X11368Y789221D01*
X11311Y789170D01*
X11249Y789126D01*
X11128Y789006D01*
X11000Y788892D01*
X10952Y788833D01*
X10898Y788779D01*
X10797Y788641D01*
X10690Y788508D01*
X10653Y788442D01*
X10608Y788381D01*
X10531Y788228D01*
X10446Y788080D01*
X10420Y788008D01*
X10385Y787940D01*
X10334Y787777D01*
X10275Y787617D01*
X10260Y787542D01*
X10237Y787470D01*
X10225Y787365D01*
X10180Y787133D01*
X10173Y786897D01*
X10161Y786792D01*
X10161Y737294D01*
X10164Y737256D01*
X10162Y737217D01*
X10184Y737010D01*
X10201Y736802D01*
X10210Y736765D01*
X10214Y736727D01*
X10269Y736526D01*
X10319Y736323D01*
X10334Y736288D01*
X10345Y736251D01*
X10432Y736061D01*
X10514Y735870D01*
X10534Y735837D01*
X10550Y735803D01*
X10667Y735629D01*
X10779Y735454D01*
X10804Y735425D01*
X10826Y735393D01*
X10969Y735241D01*
X11108Y735086D01*
X11137Y735062D01*
X11163Y735034D01*
X11329Y734907D01*
X11492Y734776D01*
X11525Y734757D01*
X11555Y734734D01*
X11739Y734635D01*
X11920Y734532D01*
X11956Y734518D01*
X11990Y734500D01*
X12187Y734433D01*
X12383Y734360D01*
X12420Y734353D01*
X12456Y734340D01*
X12663Y734305D01*
X12867Y734265D01*
X12905Y734264D01*
X12943Y734258D01*
X13152Y734257D01*
X13360Y734250D01*
X13398Y734255D01*
X13436Y734255D01*
X13643Y734287D01*
X13849Y734314D01*
X13886Y734325D01*
X13923Y734331D01*
X14122Y734397D01*
X14321Y734457D01*
X14356Y734474D01*
X14392Y734486D01*
X14577Y734582D01*
X14765Y734674D01*
X14796Y734696D01*
X14830Y734714D01*
X14902Y734772D01*
X15167Y734959D01*
X15289Y735080D01*
X15363Y735139D01*
X28149Y747925D01*
X48051Y747925D01*
X62125Y733851D01*
X62125Y713949D01*
X48051Y699875D01*
X28149Y699875D01*
X15363Y712661D01*
X15334Y712686D01*
X15308Y712714D01*
X15146Y712845D01*
X14987Y712981D01*
X14954Y713000D01*
X14924Y713024D01*
X14744Y713127D01*
X14564Y713235D01*
X14529Y713249D01*
X14496Y713268D01*
X14300Y713341D01*
X14106Y713418D01*
X14069Y713427D01*
X14033Y713440D01*
X13828Y713480D01*
X13624Y713525D01*
X13586Y713527D01*
X13549Y713535D01*
X13341Y713541D01*
X13132Y713553D01*
X13094Y713549D01*
X13056Y713550D01*
X12849Y713523D01*
X12641Y713501D01*
X12605Y713491D01*
X12567Y713486D01*
X12367Y713425D01*
X12166Y713370D01*
X12131Y713354D01*
X12094Y713343D01*
X11907Y713251D01*
X11717Y713164D01*
X11685Y713143D01*
X11651Y713126D01*
X11482Y713006D01*
X11308Y712889D01*
X11280Y712863D01*
X11249Y712841D01*
X11101Y712694D01*
X10948Y712551D01*
X10925Y712521D01*
X10898Y712494D01*
X10775Y712325D01*
X10648Y712160D01*
X10630Y712126D01*
X10608Y712095D01*
X10514Y711909D01*
X10415Y711725D01*
X10402Y711689D01*
X10385Y711655D01*
X10323Y711456D01*
X10255Y711258D01*
X10249Y711221D01*
X10237Y711184D01*
X10227Y711092D01*
X10172Y710772D01*
X10171Y710600D01*
X10161Y710506D01*
X10161Y268830D01*
X10164Y268792D01*
X10162Y268754D01*
X10184Y268547D01*
X10201Y268339D01*
X10210Y268302D01*
X10214Y268264D01*
X10269Y268063D01*
X10319Y267860D01*
X10334Y267825D01*
X10345Y267788D01*
X10432Y267598D01*
X10514Y267406D01*
X10534Y267374D01*
X10550Y267340D01*
X10667Y267166D01*
X10779Y266990D01*
X10804Y266962D01*
X10826Y266930D01*
X10969Y266778D01*
X11108Y266623D01*
X11137Y266599D01*
X11163Y266571D01*
X11329Y266444D01*
X11492Y266313D01*
X11525Y266294D01*
X11555Y266270D01*
X11739Y266172D01*
X11920Y266069D01*
X11956Y266055D01*
X11990Y266037D01*
X12187Y265970D01*
X12383Y265897D01*
X12420Y265890D01*
X12456Y265877D01*
X12663Y265842D01*
X12867Y265802D01*
X12905Y265801D01*
X12943Y265795D01*
X13152Y265793D01*
X13360Y265787D01*
X13398Y265792D01*
X13436Y265792D01*
X13643Y265824D01*
X13849Y265851D01*
X13886Y265862D01*
X13923Y265868D01*
X14122Y265934D01*
X14321Y265994D01*
X14356Y266011D01*
X14392Y266023D01*
X14577Y266119D01*
X14765Y266211D01*
X14796Y266233D01*
X14830Y266250D01*
X14902Y266308D01*
X15167Y266496D01*
X15289Y266617D01*
X15363Y266676D01*
X27728Y279041D01*
X32005Y279041D01*
X32005Y257048D01*
X32011Y256972D01*
X32009Y256896D01*
X32031Y256727D01*
X32045Y256556D01*
X32063Y256483D01*
X32073Y256407D01*
X32122Y256243D01*
X32163Y256078D01*
X32193Y256008D01*
X32215Y255935D01*
X32291Y255781D01*
X32358Y255624D01*
X32399Y255560D01*
X32432Y255492D01*
X32531Y255352D01*
X32623Y255208D01*
X32674Y255151D01*
X32718Y255089D01*
X32838Y254968D01*
X32952Y254840D01*
X33011Y254792D01*
X33065Y254738D01*
X33203Y254638D01*
X33336Y254530D01*
X33402Y254493D01*
X33463Y254448D01*
X33616Y254371D01*
X33764Y254286D01*
X33836Y254260D01*
X33904Y254226D01*
X34067Y254174D01*
X34227Y254115D01*
X34302Y254100D01*
X34374Y254077D01*
X34479Y254065D01*
X34711Y254020D01*
X34947Y254013D01*
X35052Y254001D01*
X38101Y254001D01*
X38101Y253999D01*
X35052Y253999D01*
X34976Y253993D01*
X34900Y253995D01*
X34731Y253973D01*
X34560Y253959D01*
X34486Y253941D01*
X34411Y253931D01*
X34247Y253882D01*
X34081Y253840D01*
X34012Y253810D01*
X33939Y253788D01*
X33785Y253713D01*
X33628Y253646D01*
X33564Y253605D01*
X33495Y253572D01*
X33356Y253473D01*
X33212Y253381D01*
X33155Y253330D01*
X33093Y253286D01*
X32972Y253166D01*
X32844Y253052D01*
X32796Y252993D01*
X32742Y252939D01*
X32641Y252801D01*
X32534Y252668D01*
X32497Y252602D01*
X32452Y252541D01*
X32375Y252388D01*
X32290Y252240D01*
X32264Y252168D01*
X32229Y252100D01*
X32178Y251937D01*
X32119Y251777D01*
X32104Y251702D01*
X32081Y251630D01*
X32069Y251525D01*
X32024Y251293D01*
X32017Y251057D01*
X32005Y250952D01*
X32005Y228959D01*
X27728Y228959D01*
X15363Y241324D01*
X15334Y241349D01*
X15308Y241377D01*
X15146Y241509D01*
X14987Y241644D01*
X14954Y241664D01*
X14924Y241687D01*
X14744Y241790D01*
X14564Y241898D01*
X14529Y241913D01*
X14496Y241931D01*
X14300Y242004D01*
X14106Y242082D01*
X14069Y242090D01*
X14033Y242103D01*
X13828Y242143D01*
X13624Y242188D01*
X13586Y242190D01*
X13549Y242198D01*
X13341Y242204D01*
X13132Y242216D01*
X13094Y242212D01*
X13056Y242213D01*
X12849Y242186D01*
X12641Y242164D01*
X12605Y242154D01*
X12567Y242149D01*
X12367Y242088D01*
X12166Y242033D01*
X12131Y242017D01*
X12094Y242006D01*
X11907Y241915D01*
X11717Y241827D01*
X11685Y241806D01*
X11651Y241789D01*
X11482Y241669D01*
X11308Y241552D01*
X11280Y241526D01*
X11249Y241504D01*
X11101Y241357D01*
X10948Y241214D01*
X10925Y241184D01*
X10898Y241157D01*
X10775Y240988D01*
X10648Y240823D01*
X10630Y240789D01*
X10608Y240758D01*
X10514Y240572D01*
X10415Y240388D01*
X10402Y240352D01*
X10385Y240318D01*
X10323Y240119D01*
X10255Y239921D01*
X10249Y239884D01*
X10237Y239847D01*
X10227Y239755D01*
X10172Y239435D01*
X10171Y239263D01*
X10161Y239170D01*
X10161Y216408D01*
X10167Y216332D01*
X10165Y216256D01*
X10187Y216087D01*
X10201Y215916D01*
X10219Y215842D01*
X10229Y215767D01*
X10278Y215603D01*
X10319Y215437D01*
X10349Y215368D01*
X10371Y215294D01*
X10447Y215141D01*
X10514Y214984D01*
X10555Y214920D01*
X10588Y214851D01*
X10687Y214712D01*
X10779Y214568D01*
X10830Y214511D01*
X10874Y214449D01*
X10994Y214328D01*
X11108Y214200D01*
X11167Y214152D01*
X11221Y214098D01*
X11359Y213997D01*
X11492Y213890D01*
X11558Y213853D01*
X11619Y213808D01*
X11772Y213731D01*
X11920Y213646D01*
X11992Y213620D01*
X12060Y213585D01*
X12223Y213534D01*
X12383Y213475D01*
X12458Y213460D01*
X12530Y213437D01*
X12635Y213425D01*
X12867Y213380D01*
X13103Y213373D01*
X13208Y213361D01*
X288292Y213361D01*
X288368Y213367D01*
G37*
%LPC*%
G36*
X202144Y299493D02*
X202144Y299493D01*
X200194Y300301D01*
X198701Y301794D01*
X198199Y303006D01*
X198195Y303015D01*
X198192Y303024D01*
X198082Y303235D01*
X197974Y303445D01*
X197968Y303453D01*
X197964Y303461D01*
X197939Y303493D01*
X197681Y303842D01*
X197587Y303933D01*
X197539Y303995D01*
X148523Y353010D01*
X147827Y354690D01*
X147827Y402966D01*
X147826Y402976D01*
X147827Y402986D01*
X147807Y403221D01*
X147787Y403458D01*
X147785Y403467D01*
X147784Y403477D01*
X147773Y403515D01*
X147669Y403937D01*
X147617Y404057D01*
X147595Y404132D01*
X147093Y405344D01*
X147093Y407456D01*
X147901Y409406D01*
X149394Y410899D01*
X151344Y411707D01*
X153456Y411707D01*
X155406Y410899D01*
X156899Y409406D01*
X157707Y407456D01*
X157707Y405344D01*
X157205Y404132D01*
X157202Y404123D01*
X157197Y404114D01*
X157126Y403888D01*
X157053Y403663D01*
X157052Y403653D01*
X157049Y403644D01*
X157044Y403603D01*
X156980Y403175D01*
X156982Y403044D01*
X156973Y402966D01*
X156973Y358756D01*
X156982Y358643D01*
X156981Y358528D01*
X157002Y358397D01*
X157013Y358265D01*
X157040Y358154D01*
X157058Y358041D01*
X157099Y357915D01*
X157131Y357786D01*
X157176Y357681D01*
X157212Y357572D01*
X157274Y357454D01*
X157326Y357332D01*
X157387Y357236D01*
X157440Y357135D01*
X157499Y357061D01*
X157591Y356916D01*
X157807Y356674D01*
X157865Y356602D01*
X204005Y310461D01*
X204013Y310455D01*
X204019Y310448D01*
X204201Y310296D01*
X204381Y310142D01*
X204390Y310137D01*
X204397Y310131D01*
X204432Y310111D01*
X204804Y309887D01*
X204925Y309839D01*
X204994Y309801D01*
X206206Y309299D01*
X207699Y307806D01*
X208507Y305856D01*
X208507Y303744D01*
X207699Y301794D01*
X206206Y300301D01*
X204256Y299493D01*
X202144Y299493D01*
G37*
%LPD*%
%LPC*%
G36*
X235619Y372871D02*
X235619Y372871D01*
X232631Y374109D01*
X230345Y376395D01*
X229107Y379383D01*
X229107Y382617D01*
X230345Y385605D01*
X232631Y387891D01*
X235619Y389129D01*
X252061Y389129D01*
X255049Y387891D01*
X257335Y385605D01*
X258573Y382617D01*
X258573Y379383D01*
X257335Y376395D01*
X255049Y374109D01*
X252061Y372871D01*
X235619Y372871D01*
G37*
%LPD*%
%LPC*%
G36*
X235619Y347471D02*
X235619Y347471D01*
X232631Y348709D01*
X230345Y350995D01*
X229107Y353983D01*
X229107Y357217D01*
X230345Y360205D01*
X232631Y362491D01*
X235619Y363729D01*
X252061Y363729D01*
X255049Y362491D01*
X257335Y360205D01*
X258573Y357217D01*
X258573Y353983D01*
X257335Y350995D01*
X255049Y348709D01*
X252061Y347471D01*
X235619Y347471D01*
G37*
%LPD*%
%LPC*%
G36*
X235619Y322071D02*
X235619Y322071D01*
X232631Y323309D01*
X230345Y325595D01*
X229107Y328583D01*
X229107Y331817D01*
X230345Y334805D01*
X232631Y337091D01*
X235619Y338329D01*
X252061Y338329D01*
X255049Y337091D01*
X257335Y334805D01*
X258573Y331817D01*
X258573Y328583D01*
X257335Y325595D01*
X255049Y323309D01*
X252061Y322071D01*
X235619Y322071D01*
G37*
%LPD*%
%LPC*%
G36*
X97654Y244474D02*
X97654Y244474D01*
X92074Y250054D01*
X92074Y257946D01*
X97654Y263526D01*
X105546Y263526D01*
X111126Y257946D01*
X111126Y250054D01*
X105546Y244474D01*
X97654Y244474D01*
G37*
%LPD*%
%LPC*%
G36*
X44195Y260095D02*
X44195Y260095D01*
X44195Y279041D01*
X48472Y279041D01*
X63141Y264372D01*
X63141Y260095D01*
X44195Y260095D01*
G37*
%LPD*%
%LPC*%
G36*
X241659Y260095D02*
X241659Y260095D01*
X241659Y264372D01*
X256328Y279041D01*
X260605Y279041D01*
X260605Y260095D01*
X241659Y260095D01*
G37*
%LPD*%
%LPC*%
G36*
X44195Y228959D02*
X44195Y228959D01*
X44195Y247905D01*
X63141Y247905D01*
X63141Y243628D01*
X48472Y228959D01*
X44195Y228959D01*
G37*
%LPD*%
%LPC*%
G36*
X256328Y228959D02*
X256328Y228959D01*
X241659Y243628D01*
X241659Y247905D01*
X260605Y247905D01*
X260605Y228959D01*
X256328Y228959D01*
G37*
%LPD*%
%LPC*%
G36*
X202310Y768732D02*
X202310Y768732D01*
X210567Y768732D01*
X210567Y748711D01*
X210394Y748065D01*
X210059Y747486D01*
X209586Y747013D01*
X209007Y746678D01*
X208361Y746505D01*
X202310Y746505D01*
X202310Y768732D01*
G37*
%LPD*%
%LPC*%
G36*
X113918Y768732D02*
X113918Y768732D01*
X122175Y768732D01*
X122175Y748711D01*
X122002Y748065D01*
X121667Y747486D01*
X121194Y747013D01*
X120615Y746678D01*
X119969Y746505D01*
X113918Y746505D01*
X113918Y768732D01*
G37*
%LPD*%
%LPC*%
G36*
X184831Y746505D02*
X184831Y746505D01*
X184185Y746678D01*
X183606Y747013D01*
X183133Y747486D01*
X182798Y748065D01*
X182625Y748711D01*
X182625Y768732D01*
X190882Y768732D01*
X190882Y746505D01*
X184831Y746505D01*
G37*
%LPD*%
%LPC*%
G36*
X96439Y746505D02*
X96439Y746505D01*
X95793Y746678D01*
X95214Y747013D01*
X94741Y747486D01*
X94406Y748065D01*
X94233Y748711D01*
X94233Y768732D01*
X102490Y768732D01*
X102490Y746505D01*
X96439Y746505D01*
G37*
%LPD*%
%LPC*%
G36*
X142747Y257047D02*
X142747Y257047D01*
X142747Y264542D01*
X144067Y264542D01*
X150242Y258367D01*
X150242Y257047D01*
X142747Y257047D01*
G37*
%LPD*%
%LPC*%
G36*
X129158Y257047D02*
X129158Y257047D01*
X129158Y258367D01*
X135333Y264542D01*
X136653Y264542D01*
X136653Y257047D01*
X129158Y257047D01*
G37*
%LPD*%
%LPC*%
G36*
X142747Y243458D02*
X142747Y243458D01*
X142747Y250953D01*
X150242Y250953D01*
X150242Y249633D01*
X144067Y243458D01*
X142747Y243458D01*
G37*
%LPD*%
%LPC*%
G36*
X135333Y243458D02*
X135333Y243458D01*
X129158Y249633D01*
X129158Y250953D01*
X136653Y250953D01*
X136653Y243458D01*
X135333Y243458D01*
G37*
%LPD*%
D10*
X108204Y774446D03*
X196596Y774446D03*
D11*
X101600Y254000D03*
X139700Y254000D03*
D12*
X237236Y355600D02*
X250444Y355600D01*
X250444Y330200D02*
X237236Y330200D01*
X237236Y381000D02*
X250444Y381000D01*
D13*
X38100Y723900D03*
X38100Y254000D03*
X266700Y723900D03*
X266700Y254000D03*
D14*
X127000Y736600D03*
X177800Y736600D03*
X177800Y711200D03*
X127000Y711200D03*
X127000Y685800D03*
X177800Y685800D03*
X127000Y660400D03*
X177800Y660400D03*
X177800Y635000D03*
X127000Y635000D03*
X127000Y609600D03*
X177800Y609600D03*
X241300Y609600D03*
X241300Y571500D03*
X241300Y546100D03*
X177800Y546100D03*
X127000Y546100D03*
X127000Y520700D03*
X177800Y520700D03*
X177800Y482600D03*
X127000Y482600D03*
X50800Y609600D03*
X50800Y571500D03*
X50800Y546100D03*
D15*
X152400Y406400D03*
D16*
X152400Y355600D01*
X203200Y304800D01*
D15*
X203200Y304800D03*
M02*
