M48
;GenerationSoftware,Autodesk,EAGLE,9.4.1*%
;CreationDate,2019-10-17T19:13:37Z*%
FMAT,2
ICI,OFF
METRIC,TZ,000.000
T4C0.350
T3C0.600
T2C0.813
T1C2.600
%
G90
M71
T1
X26670Y25400
X3810Y72390
X3810Y25400
X26670Y72390
T2
X10160Y25400
X13970Y25400
X24384Y35560
X24384Y33020
X24384Y38100
T3
X12700Y63500
X12700Y60960
X17780Y60960
X24130Y60960
X24130Y57150
X24130Y54610
X17780Y54610
X12700Y54610
X12700Y73660
X17780Y52070
X17780Y48260
X12700Y48260
X5080Y60960
X5080Y57150
X5080Y54610
X17780Y73660
X17780Y71120
X12700Y71120
X12700Y68580
X17780Y68580
X12700Y66040
X17780Y66040
X17780Y63500
X12700Y52070
T4
X20320Y30480
X15240Y40640
M30