G04 EAGLE Gerber RS-274X export*
G75*
%MOMM*%
%FSLAX34Y34*%
%LPD*%
%INSilkscreen Top*%
%IPPOS*%
%AMOC8*
5,1,8,0,0,1.08239X$1,22.5*%
G01*
%ADD10C,0.076200*%
%ADD11C,0.120000*%
%ADD12C,0.050000*%
%ADD13C,0.152400*%
%ADD14C,0.127000*%
%ADD15C,0.101600*%
%ADD16C,0.203200*%


D10*
X51729Y349771D02*
X49641Y349771D01*
X49552Y349773D01*
X49464Y349779D01*
X49376Y349788D01*
X49288Y349801D01*
X49201Y349818D01*
X49115Y349838D01*
X49030Y349863D01*
X48945Y349890D01*
X48862Y349922D01*
X48781Y349956D01*
X48701Y349995D01*
X48623Y350036D01*
X48546Y350081D01*
X48472Y350129D01*
X48399Y350180D01*
X48329Y350234D01*
X48262Y350292D01*
X48196Y350352D01*
X48134Y350414D01*
X48074Y350480D01*
X48016Y350547D01*
X47962Y350617D01*
X47911Y350690D01*
X47863Y350764D01*
X47818Y350841D01*
X47777Y350919D01*
X47738Y350999D01*
X47704Y351080D01*
X47672Y351163D01*
X47645Y351248D01*
X47620Y351333D01*
X47600Y351419D01*
X47583Y351506D01*
X47570Y351594D01*
X47561Y351682D01*
X47555Y351770D01*
X47553Y351859D01*
X47552Y351859D02*
X47552Y357081D01*
X47553Y357081D02*
X47555Y357172D01*
X47561Y357263D01*
X47571Y357354D01*
X47585Y357444D01*
X47602Y357533D01*
X47624Y357621D01*
X47650Y357709D01*
X47679Y357795D01*
X47712Y357880D01*
X47749Y357963D01*
X47789Y358045D01*
X47833Y358125D01*
X47880Y358203D01*
X47931Y358279D01*
X47984Y358352D01*
X48041Y358423D01*
X48102Y358492D01*
X48165Y358557D01*
X48230Y358620D01*
X48299Y358680D01*
X48370Y358738D01*
X48443Y358791D01*
X48519Y358842D01*
X48597Y358889D01*
X48677Y358933D01*
X48759Y358973D01*
X48842Y359010D01*
X48927Y359043D01*
X49013Y359072D01*
X49101Y359098D01*
X49189Y359120D01*
X49278Y359137D01*
X49368Y359151D01*
X49459Y359161D01*
X49550Y359167D01*
X49641Y359169D01*
X51729Y359169D01*
X55198Y357081D02*
X57808Y359169D01*
X57808Y349771D01*
X55198Y349771D02*
X60419Y349771D01*
X170929Y443341D02*
X170929Y445429D01*
X170929Y443341D02*
X170927Y443252D01*
X170921Y443164D01*
X170912Y443076D01*
X170899Y442988D01*
X170882Y442901D01*
X170862Y442815D01*
X170837Y442730D01*
X170810Y442645D01*
X170778Y442562D01*
X170744Y442481D01*
X170705Y442401D01*
X170664Y442323D01*
X170619Y442246D01*
X170571Y442172D01*
X170520Y442099D01*
X170466Y442029D01*
X170408Y441962D01*
X170348Y441896D01*
X170286Y441834D01*
X170220Y441774D01*
X170153Y441716D01*
X170083Y441662D01*
X170010Y441611D01*
X169936Y441563D01*
X169859Y441518D01*
X169781Y441477D01*
X169701Y441438D01*
X169620Y441404D01*
X169537Y441372D01*
X169452Y441345D01*
X169367Y441320D01*
X169281Y441300D01*
X169194Y441283D01*
X169106Y441270D01*
X169018Y441261D01*
X168930Y441255D01*
X168841Y441253D01*
X168841Y441252D02*
X163619Y441252D01*
X163528Y441254D01*
X163437Y441260D01*
X163346Y441270D01*
X163256Y441284D01*
X163167Y441302D01*
X163078Y441323D01*
X162991Y441349D01*
X162905Y441378D01*
X162820Y441411D01*
X162736Y441448D01*
X162654Y441488D01*
X162575Y441532D01*
X162497Y441579D01*
X162421Y441630D01*
X162347Y441684D01*
X162276Y441741D01*
X162208Y441801D01*
X162142Y441864D01*
X162079Y441930D01*
X162019Y441998D01*
X161962Y442069D01*
X161908Y442143D01*
X161857Y442219D01*
X161810Y442296D01*
X161766Y442376D01*
X161726Y442458D01*
X161689Y442542D01*
X161656Y442626D01*
X161627Y442713D01*
X161601Y442800D01*
X161580Y442889D01*
X161562Y442978D01*
X161548Y443068D01*
X161538Y443159D01*
X161532Y443250D01*
X161530Y443341D01*
X161531Y443341D02*
X161531Y445429D01*
X161531Y451770D02*
X161533Y451865D01*
X161539Y451959D01*
X161548Y452053D01*
X161561Y452147D01*
X161578Y452240D01*
X161599Y452332D01*
X161624Y452424D01*
X161652Y452514D01*
X161684Y452603D01*
X161719Y452691D01*
X161758Y452777D01*
X161800Y452862D01*
X161846Y452945D01*
X161895Y453026D01*
X161947Y453105D01*
X162002Y453182D01*
X162061Y453256D01*
X162122Y453328D01*
X162186Y453398D01*
X162253Y453465D01*
X162323Y453529D01*
X162395Y453590D01*
X162469Y453649D01*
X162546Y453704D01*
X162625Y453756D01*
X162706Y453805D01*
X162789Y453851D01*
X162874Y453893D01*
X162960Y453932D01*
X163048Y453967D01*
X163137Y453999D01*
X163227Y454027D01*
X163319Y454052D01*
X163411Y454073D01*
X163504Y454090D01*
X163598Y454103D01*
X163692Y454112D01*
X163786Y454118D01*
X163881Y454120D01*
X161531Y451770D02*
X161533Y451662D01*
X161539Y451553D01*
X161549Y451445D01*
X161562Y451338D01*
X161580Y451231D01*
X161601Y451124D01*
X161626Y451019D01*
X161655Y450914D01*
X161687Y450811D01*
X161724Y450709D01*
X161764Y450608D01*
X161807Y450509D01*
X161854Y450411D01*
X161905Y450315D01*
X161959Y450221D01*
X162016Y450129D01*
X162077Y450039D01*
X162141Y449951D01*
X162207Y449866D01*
X162277Y449783D01*
X162350Y449703D01*
X162426Y449625D01*
X162504Y449550D01*
X162585Y449478D01*
X162669Y449409D01*
X162755Y449343D01*
X162843Y449280D01*
X162934Y449221D01*
X163026Y449164D01*
X163121Y449111D01*
X163218Y449062D01*
X163316Y449016D01*
X163415Y448973D01*
X163517Y448934D01*
X163619Y448899D01*
X165709Y453336D02*
X165640Y453405D01*
X165569Y453471D01*
X165496Y453535D01*
X165420Y453596D01*
X165341Y453654D01*
X165261Y453708D01*
X165178Y453760D01*
X165094Y453808D01*
X165008Y453854D01*
X164920Y453895D01*
X164830Y453934D01*
X164739Y453969D01*
X164647Y454000D01*
X164554Y454028D01*
X164460Y454052D01*
X164365Y454072D01*
X164269Y454089D01*
X164172Y454102D01*
X164075Y454111D01*
X163978Y454117D01*
X163881Y454119D01*
X165708Y453336D02*
X170929Y448898D01*
X170929Y454119D01*
X232169Y487769D02*
X232169Y489858D01*
X232169Y487769D02*
X232167Y487680D01*
X232161Y487592D01*
X232152Y487504D01*
X232139Y487416D01*
X232122Y487329D01*
X232102Y487243D01*
X232077Y487158D01*
X232050Y487073D01*
X232018Y486990D01*
X231984Y486909D01*
X231945Y486829D01*
X231904Y486751D01*
X231859Y486674D01*
X231811Y486600D01*
X231760Y486527D01*
X231706Y486457D01*
X231648Y486390D01*
X231588Y486324D01*
X231526Y486262D01*
X231460Y486202D01*
X231393Y486144D01*
X231323Y486090D01*
X231250Y486039D01*
X231176Y485991D01*
X231099Y485946D01*
X231021Y485905D01*
X230941Y485866D01*
X230860Y485832D01*
X230777Y485800D01*
X230692Y485773D01*
X230607Y485748D01*
X230521Y485728D01*
X230434Y485711D01*
X230346Y485698D01*
X230258Y485689D01*
X230170Y485683D01*
X230081Y485681D01*
X224859Y485681D01*
X224768Y485683D01*
X224677Y485689D01*
X224586Y485699D01*
X224496Y485713D01*
X224407Y485731D01*
X224318Y485752D01*
X224231Y485778D01*
X224145Y485807D01*
X224060Y485840D01*
X223976Y485877D01*
X223894Y485917D01*
X223815Y485961D01*
X223737Y486008D01*
X223661Y486059D01*
X223587Y486113D01*
X223516Y486170D01*
X223448Y486230D01*
X223382Y486293D01*
X223319Y486359D01*
X223259Y486427D01*
X223202Y486498D01*
X223148Y486572D01*
X223097Y486648D01*
X223050Y486725D01*
X223006Y486805D01*
X222966Y486887D01*
X222929Y486971D01*
X222896Y487055D01*
X222867Y487142D01*
X222841Y487229D01*
X222820Y487318D01*
X222802Y487407D01*
X222788Y487497D01*
X222778Y487588D01*
X222772Y487679D01*
X222770Y487770D01*
X222771Y487769D02*
X222771Y489858D01*
X232169Y493327D02*
X232169Y495937D01*
X232167Y496038D01*
X232161Y496139D01*
X232151Y496240D01*
X232138Y496340D01*
X232120Y496440D01*
X232099Y496539D01*
X232073Y496637D01*
X232044Y496734D01*
X232012Y496830D01*
X231975Y496924D01*
X231935Y497017D01*
X231891Y497109D01*
X231844Y497198D01*
X231793Y497286D01*
X231739Y497372D01*
X231682Y497455D01*
X231622Y497537D01*
X231558Y497615D01*
X231492Y497692D01*
X231422Y497765D01*
X231350Y497836D01*
X231275Y497904D01*
X231197Y497969D01*
X231117Y498031D01*
X231035Y498090D01*
X230950Y498146D01*
X230864Y498198D01*
X230775Y498247D01*
X230684Y498293D01*
X230592Y498334D01*
X230498Y498373D01*
X230403Y498407D01*
X230307Y498438D01*
X230209Y498465D01*
X230111Y498489D01*
X230011Y498508D01*
X229911Y498524D01*
X229811Y498536D01*
X229710Y498544D01*
X229609Y498548D01*
X229507Y498548D01*
X229406Y498544D01*
X229305Y498536D01*
X229205Y498524D01*
X229105Y498508D01*
X229005Y498489D01*
X228907Y498465D01*
X228809Y498438D01*
X228713Y498407D01*
X228618Y498373D01*
X228524Y498334D01*
X228432Y498293D01*
X228341Y498247D01*
X228253Y498198D01*
X228166Y498146D01*
X228081Y498090D01*
X227999Y498031D01*
X227919Y497969D01*
X227841Y497904D01*
X227766Y497836D01*
X227694Y497765D01*
X227624Y497692D01*
X227558Y497615D01*
X227494Y497537D01*
X227434Y497455D01*
X227377Y497372D01*
X227323Y497286D01*
X227272Y497198D01*
X227225Y497109D01*
X227181Y497017D01*
X227141Y496924D01*
X227104Y496830D01*
X227072Y496734D01*
X227043Y496637D01*
X227017Y496539D01*
X226996Y496440D01*
X226978Y496340D01*
X226965Y496240D01*
X226955Y496139D01*
X226949Y496038D01*
X226947Y495937D01*
X222771Y496459D02*
X222771Y493327D01*
X222771Y496459D02*
X222773Y496549D01*
X222779Y496638D01*
X222788Y496728D01*
X222802Y496817D01*
X222819Y496905D01*
X222840Y496992D01*
X222865Y497079D01*
X222894Y497164D01*
X222926Y497248D01*
X222961Y497330D01*
X223001Y497411D01*
X223043Y497490D01*
X223089Y497567D01*
X223139Y497642D01*
X223191Y497715D01*
X223247Y497786D01*
X223305Y497854D01*
X223367Y497919D01*
X223431Y497982D01*
X223498Y498042D01*
X223567Y498099D01*
X223639Y498153D01*
X223713Y498204D01*
X223789Y498252D01*
X223867Y498296D01*
X223947Y498337D01*
X224029Y498375D01*
X224112Y498409D01*
X224197Y498439D01*
X224283Y498466D01*
X224369Y498489D01*
X224457Y498508D01*
X224546Y498523D01*
X224635Y498535D01*
X224724Y498543D01*
X224814Y498547D01*
X224904Y498547D01*
X224994Y498543D01*
X225083Y498535D01*
X225172Y498523D01*
X225261Y498508D01*
X225349Y498489D01*
X225435Y498466D01*
X225521Y498439D01*
X225606Y498409D01*
X225689Y498375D01*
X225771Y498337D01*
X225851Y498296D01*
X225929Y498252D01*
X226005Y498204D01*
X226079Y498153D01*
X226151Y498099D01*
X226220Y498042D01*
X226287Y497982D01*
X226351Y497919D01*
X226413Y497854D01*
X226471Y497786D01*
X226527Y497715D01*
X226579Y497642D01*
X226629Y497567D01*
X226675Y497490D01*
X226717Y497411D01*
X226757Y497330D01*
X226792Y497248D01*
X226824Y497164D01*
X226853Y497079D01*
X226878Y496992D01*
X226899Y496905D01*
X226916Y496817D01*
X226930Y496728D01*
X226939Y496638D01*
X226945Y496549D01*
X226947Y496459D01*
X226948Y496459D02*
X226948Y494371D01*
X54369Y489858D02*
X54369Y487769D01*
X54367Y487680D01*
X54361Y487592D01*
X54352Y487504D01*
X54339Y487416D01*
X54322Y487329D01*
X54302Y487243D01*
X54277Y487158D01*
X54250Y487073D01*
X54218Y486990D01*
X54184Y486909D01*
X54145Y486829D01*
X54104Y486751D01*
X54059Y486674D01*
X54011Y486600D01*
X53960Y486527D01*
X53906Y486457D01*
X53848Y486390D01*
X53788Y486324D01*
X53726Y486262D01*
X53660Y486202D01*
X53593Y486144D01*
X53523Y486090D01*
X53450Y486039D01*
X53376Y485991D01*
X53299Y485946D01*
X53221Y485905D01*
X53141Y485866D01*
X53060Y485832D01*
X52977Y485800D01*
X52892Y485773D01*
X52807Y485748D01*
X52721Y485728D01*
X52634Y485711D01*
X52546Y485698D01*
X52458Y485689D01*
X52370Y485683D01*
X52281Y485681D01*
X47059Y485681D01*
X46968Y485683D01*
X46877Y485689D01*
X46786Y485699D01*
X46696Y485713D01*
X46607Y485731D01*
X46518Y485752D01*
X46431Y485778D01*
X46345Y485807D01*
X46260Y485840D01*
X46176Y485877D01*
X46094Y485917D01*
X46015Y485961D01*
X45937Y486008D01*
X45861Y486059D01*
X45787Y486113D01*
X45716Y486170D01*
X45648Y486230D01*
X45582Y486293D01*
X45519Y486359D01*
X45459Y486427D01*
X45402Y486498D01*
X45348Y486572D01*
X45297Y486648D01*
X45250Y486725D01*
X45206Y486805D01*
X45166Y486887D01*
X45129Y486971D01*
X45096Y487055D01*
X45067Y487142D01*
X45041Y487229D01*
X45020Y487318D01*
X45002Y487407D01*
X44988Y487497D01*
X44978Y487588D01*
X44972Y487679D01*
X44970Y487770D01*
X44971Y487769D02*
X44971Y489858D01*
X44971Y495415D02*
X52281Y493327D01*
X52281Y498548D01*
X54369Y496981D02*
X50192Y496981D01*
X170929Y684641D02*
X170929Y686729D01*
X170929Y684641D02*
X170927Y684552D01*
X170921Y684464D01*
X170912Y684376D01*
X170899Y684288D01*
X170882Y684201D01*
X170862Y684115D01*
X170837Y684030D01*
X170810Y683945D01*
X170778Y683862D01*
X170744Y683781D01*
X170705Y683701D01*
X170664Y683623D01*
X170619Y683546D01*
X170571Y683472D01*
X170520Y683399D01*
X170466Y683329D01*
X170408Y683262D01*
X170348Y683196D01*
X170286Y683134D01*
X170220Y683074D01*
X170153Y683016D01*
X170083Y682962D01*
X170010Y682911D01*
X169936Y682863D01*
X169859Y682818D01*
X169781Y682777D01*
X169701Y682738D01*
X169620Y682704D01*
X169537Y682672D01*
X169452Y682645D01*
X169367Y682620D01*
X169281Y682600D01*
X169194Y682583D01*
X169106Y682570D01*
X169018Y682561D01*
X168930Y682555D01*
X168841Y682553D01*
X168841Y682552D02*
X163619Y682552D01*
X163528Y682554D01*
X163437Y682560D01*
X163346Y682570D01*
X163256Y682584D01*
X163167Y682602D01*
X163078Y682623D01*
X162991Y682649D01*
X162905Y682678D01*
X162820Y682711D01*
X162736Y682748D01*
X162654Y682788D01*
X162575Y682832D01*
X162497Y682879D01*
X162421Y682930D01*
X162347Y682984D01*
X162276Y683041D01*
X162208Y683101D01*
X162142Y683164D01*
X162079Y683230D01*
X162019Y683298D01*
X161962Y683369D01*
X161908Y683443D01*
X161857Y683519D01*
X161810Y683596D01*
X161766Y683676D01*
X161726Y683758D01*
X161689Y683842D01*
X161656Y683926D01*
X161627Y684013D01*
X161601Y684100D01*
X161580Y684189D01*
X161562Y684278D01*
X161548Y684368D01*
X161538Y684459D01*
X161532Y684550D01*
X161530Y684641D01*
X161531Y684641D02*
X161531Y686729D01*
X170929Y690198D02*
X170929Y693331D01*
X170927Y693420D01*
X170921Y693508D01*
X170912Y693596D01*
X170899Y693684D01*
X170882Y693771D01*
X170862Y693857D01*
X170837Y693942D01*
X170810Y694027D01*
X170778Y694110D01*
X170744Y694191D01*
X170705Y694271D01*
X170664Y694349D01*
X170619Y694426D01*
X170571Y694500D01*
X170520Y694573D01*
X170466Y694643D01*
X170408Y694710D01*
X170348Y694776D01*
X170286Y694838D01*
X170220Y694898D01*
X170153Y694956D01*
X170083Y695010D01*
X170010Y695061D01*
X169936Y695109D01*
X169859Y695154D01*
X169781Y695195D01*
X169701Y695234D01*
X169620Y695268D01*
X169537Y695300D01*
X169452Y695327D01*
X169367Y695352D01*
X169281Y695372D01*
X169194Y695389D01*
X169106Y695402D01*
X169018Y695411D01*
X168930Y695417D01*
X168841Y695419D01*
X167796Y695419D01*
X167707Y695417D01*
X167619Y695411D01*
X167531Y695402D01*
X167443Y695389D01*
X167356Y695372D01*
X167270Y695352D01*
X167185Y695327D01*
X167100Y695300D01*
X167017Y695268D01*
X166936Y695234D01*
X166856Y695195D01*
X166778Y695154D01*
X166701Y695109D01*
X166627Y695061D01*
X166554Y695010D01*
X166484Y694956D01*
X166417Y694898D01*
X166351Y694838D01*
X166289Y694776D01*
X166229Y694710D01*
X166171Y694643D01*
X166117Y694573D01*
X166066Y694500D01*
X166018Y694426D01*
X165973Y694349D01*
X165932Y694271D01*
X165893Y694191D01*
X165859Y694110D01*
X165827Y694027D01*
X165800Y693942D01*
X165775Y693857D01*
X165755Y693771D01*
X165738Y693684D01*
X165725Y693596D01*
X165716Y693508D01*
X165710Y693420D01*
X165708Y693331D01*
X165708Y690198D01*
X161531Y690198D01*
X161531Y695419D01*
X234429Y635929D02*
X234429Y633841D01*
X234427Y633752D01*
X234421Y633664D01*
X234412Y633576D01*
X234399Y633488D01*
X234382Y633401D01*
X234362Y633315D01*
X234337Y633230D01*
X234310Y633145D01*
X234278Y633062D01*
X234244Y632981D01*
X234205Y632901D01*
X234164Y632823D01*
X234119Y632746D01*
X234071Y632672D01*
X234020Y632599D01*
X233966Y632529D01*
X233908Y632462D01*
X233848Y632396D01*
X233786Y632334D01*
X233720Y632274D01*
X233653Y632216D01*
X233583Y632162D01*
X233510Y632111D01*
X233436Y632063D01*
X233359Y632018D01*
X233281Y631977D01*
X233201Y631938D01*
X233120Y631904D01*
X233037Y631872D01*
X232952Y631845D01*
X232867Y631820D01*
X232781Y631800D01*
X232694Y631783D01*
X232606Y631770D01*
X232518Y631761D01*
X232430Y631755D01*
X232341Y631753D01*
X232341Y631752D02*
X227119Y631752D01*
X227028Y631754D01*
X226937Y631760D01*
X226846Y631770D01*
X226756Y631784D01*
X226667Y631802D01*
X226578Y631823D01*
X226491Y631849D01*
X226405Y631878D01*
X226320Y631911D01*
X226236Y631948D01*
X226154Y631988D01*
X226075Y632032D01*
X225997Y632079D01*
X225921Y632130D01*
X225847Y632184D01*
X225776Y632241D01*
X225708Y632301D01*
X225642Y632364D01*
X225579Y632430D01*
X225519Y632498D01*
X225462Y632569D01*
X225408Y632643D01*
X225357Y632719D01*
X225310Y632796D01*
X225266Y632876D01*
X225226Y632958D01*
X225189Y633042D01*
X225156Y633126D01*
X225127Y633213D01*
X225101Y633300D01*
X225080Y633389D01*
X225062Y633478D01*
X225048Y633568D01*
X225038Y633659D01*
X225032Y633750D01*
X225030Y633841D01*
X225031Y633841D02*
X225031Y635929D01*
X229208Y639398D02*
X229208Y642531D01*
X229210Y642620D01*
X229216Y642708D01*
X229225Y642796D01*
X229238Y642884D01*
X229255Y642971D01*
X229275Y643057D01*
X229300Y643142D01*
X229327Y643227D01*
X229359Y643310D01*
X229393Y643391D01*
X229432Y643471D01*
X229473Y643549D01*
X229518Y643626D01*
X229566Y643700D01*
X229617Y643773D01*
X229671Y643843D01*
X229729Y643910D01*
X229789Y643976D01*
X229851Y644038D01*
X229917Y644098D01*
X229984Y644156D01*
X230054Y644210D01*
X230127Y644261D01*
X230201Y644309D01*
X230278Y644354D01*
X230356Y644395D01*
X230436Y644434D01*
X230517Y644468D01*
X230600Y644500D01*
X230685Y644527D01*
X230770Y644552D01*
X230856Y644572D01*
X230943Y644589D01*
X231031Y644602D01*
X231119Y644611D01*
X231207Y644617D01*
X231296Y644619D01*
X231818Y644619D01*
X231919Y644617D01*
X232020Y644611D01*
X232121Y644601D01*
X232221Y644588D01*
X232321Y644570D01*
X232420Y644549D01*
X232518Y644523D01*
X232615Y644494D01*
X232711Y644462D01*
X232805Y644425D01*
X232898Y644385D01*
X232990Y644341D01*
X233079Y644294D01*
X233167Y644243D01*
X233253Y644189D01*
X233336Y644132D01*
X233418Y644072D01*
X233496Y644008D01*
X233573Y643942D01*
X233646Y643872D01*
X233717Y643800D01*
X233785Y643725D01*
X233850Y643647D01*
X233912Y643567D01*
X233971Y643485D01*
X234027Y643400D01*
X234079Y643314D01*
X234128Y643225D01*
X234174Y643134D01*
X234215Y643042D01*
X234254Y642948D01*
X234288Y642853D01*
X234319Y642757D01*
X234346Y642659D01*
X234370Y642561D01*
X234389Y642461D01*
X234405Y642361D01*
X234417Y642261D01*
X234425Y642160D01*
X234429Y642059D01*
X234429Y641957D01*
X234425Y641856D01*
X234417Y641755D01*
X234405Y641655D01*
X234389Y641555D01*
X234370Y641455D01*
X234346Y641357D01*
X234319Y641259D01*
X234288Y641163D01*
X234254Y641068D01*
X234215Y640974D01*
X234174Y640882D01*
X234128Y640791D01*
X234079Y640703D01*
X234027Y640616D01*
X233971Y640531D01*
X233912Y640449D01*
X233850Y640369D01*
X233785Y640291D01*
X233717Y640216D01*
X233646Y640144D01*
X233573Y640074D01*
X233496Y640008D01*
X233418Y639944D01*
X233336Y639884D01*
X233253Y639827D01*
X233167Y639773D01*
X233079Y639722D01*
X232990Y639675D01*
X232898Y639631D01*
X232805Y639591D01*
X232711Y639554D01*
X232615Y639522D01*
X232518Y639493D01*
X232420Y639467D01*
X232321Y639446D01*
X232221Y639428D01*
X232121Y639415D01*
X232020Y639405D01*
X231919Y639399D01*
X231818Y639397D01*
X231818Y639398D02*
X229208Y639398D01*
X229079Y639400D01*
X228951Y639406D01*
X228823Y639416D01*
X228695Y639430D01*
X228567Y639447D01*
X228440Y639469D01*
X228314Y639495D01*
X228189Y639524D01*
X228065Y639557D01*
X227942Y639595D01*
X227820Y639635D01*
X227699Y639680D01*
X227580Y639728D01*
X227462Y639780D01*
X227346Y639836D01*
X227232Y639895D01*
X227120Y639958D01*
X227009Y640024D01*
X226901Y640093D01*
X226795Y640166D01*
X226691Y640242D01*
X226589Y640321D01*
X226490Y640403D01*
X226394Y640488D01*
X226300Y640576D01*
X226209Y640667D01*
X226121Y640761D01*
X226036Y640857D01*
X225954Y640956D01*
X225875Y641058D01*
X225799Y641162D01*
X225726Y641268D01*
X225657Y641376D01*
X225591Y641486D01*
X225528Y641599D01*
X225469Y641713D01*
X225413Y641829D01*
X225361Y641947D01*
X225313Y642066D01*
X225268Y642187D01*
X225228Y642309D01*
X225190Y642432D01*
X225157Y642556D01*
X225128Y642681D01*
X225102Y642807D01*
X225080Y642934D01*
X225063Y643062D01*
X225049Y643190D01*
X225039Y643318D01*
X225033Y643446D01*
X225031Y643575D01*
X107429Y635929D02*
X107429Y633841D01*
X107427Y633752D01*
X107421Y633664D01*
X107412Y633576D01*
X107399Y633488D01*
X107382Y633401D01*
X107362Y633315D01*
X107337Y633230D01*
X107310Y633145D01*
X107278Y633062D01*
X107244Y632981D01*
X107205Y632901D01*
X107164Y632823D01*
X107119Y632746D01*
X107071Y632672D01*
X107020Y632599D01*
X106966Y632529D01*
X106908Y632462D01*
X106848Y632396D01*
X106786Y632334D01*
X106720Y632274D01*
X106653Y632216D01*
X106583Y632162D01*
X106510Y632111D01*
X106436Y632063D01*
X106359Y632018D01*
X106281Y631977D01*
X106201Y631938D01*
X106120Y631904D01*
X106037Y631872D01*
X105952Y631845D01*
X105867Y631820D01*
X105781Y631800D01*
X105694Y631783D01*
X105606Y631770D01*
X105518Y631761D01*
X105430Y631755D01*
X105341Y631753D01*
X105341Y631752D02*
X100119Y631752D01*
X100028Y631754D01*
X99937Y631760D01*
X99846Y631770D01*
X99756Y631784D01*
X99667Y631802D01*
X99578Y631823D01*
X99491Y631849D01*
X99405Y631878D01*
X99320Y631911D01*
X99236Y631948D01*
X99154Y631988D01*
X99075Y632032D01*
X98997Y632079D01*
X98921Y632130D01*
X98847Y632184D01*
X98776Y632241D01*
X98708Y632301D01*
X98642Y632364D01*
X98579Y632430D01*
X98519Y632498D01*
X98462Y632569D01*
X98408Y632643D01*
X98357Y632719D01*
X98310Y632796D01*
X98266Y632876D01*
X98226Y632958D01*
X98189Y633042D01*
X98156Y633126D01*
X98127Y633213D01*
X98101Y633300D01*
X98080Y633389D01*
X98062Y633478D01*
X98048Y633568D01*
X98038Y633659D01*
X98032Y633750D01*
X98030Y633841D01*
X98031Y633841D02*
X98031Y635929D01*
X98031Y639398D02*
X99075Y639398D01*
X98031Y639398D02*
X98031Y644619D01*
X107429Y642008D01*
X189341Y260871D02*
X191429Y260871D01*
X189341Y260871D02*
X189252Y260873D01*
X189164Y260879D01*
X189076Y260888D01*
X188988Y260901D01*
X188901Y260918D01*
X188815Y260938D01*
X188730Y260963D01*
X188645Y260990D01*
X188562Y261022D01*
X188481Y261056D01*
X188401Y261095D01*
X188323Y261136D01*
X188246Y261181D01*
X188172Y261229D01*
X188099Y261280D01*
X188029Y261334D01*
X187962Y261392D01*
X187896Y261452D01*
X187834Y261514D01*
X187774Y261580D01*
X187716Y261647D01*
X187662Y261717D01*
X187611Y261790D01*
X187563Y261864D01*
X187518Y261941D01*
X187477Y262019D01*
X187438Y262099D01*
X187404Y262180D01*
X187372Y262263D01*
X187345Y262348D01*
X187320Y262433D01*
X187300Y262519D01*
X187283Y262606D01*
X187270Y262694D01*
X187261Y262782D01*
X187255Y262870D01*
X187253Y262959D01*
X187252Y262959D02*
X187252Y268181D01*
X187253Y268181D02*
X187255Y268272D01*
X187261Y268363D01*
X187271Y268454D01*
X187285Y268544D01*
X187302Y268633D01*
X187324Y268721D01*
X187350Y268809D01*
X187379Y268895D01*
X187412Y268980D01*
X187449Y269063D01*
X187489Y269145D01*
X187533Y269225D01*
X187580Y269303D01*
X187631Y269379D01*
X187684Y269452D01*
X187741Y269523D01*
X187802Y269592D01*
X187865Y269657D01*
X187930Y269720D01*
X187999Y269780D01*
X188070Y269838D01*
X188143Y269891D01*
X188219Y269942D01*
X188297Y269989D01*
X188377Y270033D01*
X188459Y270073D01*
X188542Y270110D01*
X188627Y270143D01*
X188713Y270172D01*
X188801Y270198D01*
X188889Y270220D01*
X188978Y270237D01*
X189068Y270251D01*
X189159Y270261D01*
X189250Y270267D01*
X189341Y270269D01*
X191429Y270269D01*
X194897Y263482D02*
X194899Y263583D01*
X194905Y263684D01*
X194915Y263785D01*
X194928Y263885D01*
X194946Y263985D01*
X194967Y264084D01*
X194993Y264182D01*
X195022Y264279D01*
X195054Y264375D01*
X195091Y264469D01*
X195131Y264562D01*
X195175Y264654D01*
X195222Y264743D01*
X195273Y264831D01*
X195327Y264917D01*
X195384Y265000D01*
X195444Y265082D01*
X195508Y265160D01*
X195574Y265237D01*
X195644Y265310D01*
X195716Y265381D01*
X195791Y265449D01*
X195869Y265514D01*
X195949Y265576D01*
X196031Y265635D01*
X196116Y265691D01*
X196203Y265743D01*
X196291Y265792D01*
X196382Y265838D01*
X196474Y265879D01*
X196568Y265918D01*
X196663Y265952D01*
X196759Y265983D01*
X196857Y266010D01*
X196955Y266034D01*
X197055Y266053D01*
X197155Y266069D01*
X197255Y266081D01*
X197356Y266089D01*
X197457Y266093D01*
X197559Y266093D01*
X197660Y266089D01*
X197761Y266081D01*
X197861Y266069D01*
X197961Y266053D01*
X198061Y266034D01*
X198159Y266010D01*
X198257Y265983D01*
X198353Y265952D01*
X198448Y265918D01*
X198542Y265879D01*
X198634Y265838D01*
X198725Y265792D01*
X198814Y265743D01*
X198900Y265691D01*
X198985Y265635D01*
X199067Y265576D01*
X199147Y265514D01*
X199225Y265449D01*
X199300Y265381D01*
X199372Y265310D01*
X199442Y265237D01*
X199508Y265160D01*
X199572Y265082D01*
X199632Y265000D01*
X199689Y264917D01*
X199743Y264831D01*
X199794Y264743D01*
X199841Y264654D01*
X199885Y264562D01*
X199925Y264469D01*
X199962Y264375D01*
X199994Y264279D01*
X200023Y264182D01*
X200049Y264084D01*
X200070Y263985D01*
X200088Y263885D01*
X200101Y263785D01*
X200111Y263684D01*
X200117Y263583D01*
X200119Y263482D01*
X200117Y263381D01*
X200111Y263280D01*
X200101Y263179D01*
X200088Y263079D01*
X200070Y262979D01*
X200049Y262880D01*
X200023Y262782D01*
X199994Y262685D01*
X199962Y262589D01*
X199925Y262495D01*
X199885Y262402D01*
X199841Y262310D01*
X199794Y262221D01*
X199743Y262133D01*
X199689Y262047D01*
X199632Y261964D01*
X199572Y261882D01*
X199508Y261804D01*
X199442Y261727D01*
X199372Y261654D01*
X199300Y261583D01*
X199225Y261515D01*
X199147Y261450D01*
X199067Y261388D01*
X198985Y261329D01*
X198900Y261273D01*
X198813Y261221D01*
X198725Y261172D01*
X198634Y261126D01*
X198542Y261085D01*
X198448Y261046D01*
X198353Y261012D01*
X198257Y260981D01*
X198159Y260954D01*
X198061Y260930D01*
X197961Y260911D01*
X197861Y260895D01*
X197761Y260883D01*
X197660Y260875D01*
X197559Y260871D01*
X197457Y260871D01*
X197356Y260875D01*
X197255Y260883D01*
X197155Y260895D01*
X197055Y260911D01*
X196955Y260930D01*
X196857Y260954D01*
X196759Y260981D01*
X196663Y261012D01*
X196568Y261046D01*
X196474Y261085D01*
X196382Y261126D01*
X196291Y261172D01*
X196203Y261221D01*
X196116Y261273D01*
X196031Y261329D01*
X195949Y261388D01*
X195869Y261450D01*
X195791Y261515D01*
X195716Y261583D01*
X195644Y261654D01*
X195574Y261727D01*
X195508Y261804D01*
X195444Y261882D01*
X195384Y261964D01*
X195327Y262047D01*
X195273Y262133D01*
X195222Y262221D01*
X195175Y262310D01*
X195131Y262402D01*
X195091Y262495D01*
X195054Y262589D01*
X195022Y262685D01*
X194993Y262782D01*
X194967Y262880D01*
X194946Y262979D01*
X194928Y263079D01*
X194915Y263179D01*
X194905Y263280D01*
X194899Y263381D01*
X194897Y263482D01*
X195420Y268181D02*
X195422Y268271D01*
X195428Y268360D01*
X195437Y268450D01*
X195451Y268539D01*
X195468Y268627D01*
X195489Y268714D01*
X195514Y268801D01*
X195543Y268886D01*
X195575Y268970D01*
X195610Y269052D01*
X195650Y269133D01*
X195692Y269212D01*
X195738Y269289D01*
X195788Y269364D01*
X195840Y269437D01*
X195896Y269508D01*
X195954Y269576D01*
X196016Y269641D01*
X196080Y269704D01*
X196147Y269764D01*
X196216Y269821D01*
X196288Y269875D01*
X196362Y269926D01*
X196438Y269974D01*
X196516Y270018D01*
X196596Y270059D01*
X196678Y270097D01*
X196761Y270131D01*
X196846Y270161D01*
X196932Y270188D01*
X197018Y270211D01*
X197106Y270230D01*
X197195Y270245D01*
X197284Y270257D01*
X197373Y270265D01*
X197463Y270269D01*
X197553Y270269D01*
X197643Y270265D01*
X197732Y270257D01*
X197821Y270245D01*
X197910Y270230D01*
X197998Y270211D01*
X198084Y270188D01*
X198170Y270161D01*
X198255Y270131D01*
X198338Y270097D01*
X198420Y270059D01*
X198500Y270018D01*
X198578Y269974D01*
X198654Y269926D01*
X198728Y269875D01*
X198800Y269821D01*
X198869Y269764D01*
X198936Y269704D01*
X199000Y269641D01*
X199062Y269576D01*
X199120Y269508D01*
X199176Y269437D01*
X199228Y269364D01*
X199278Y269289D01*
X199324Y269212D01*
X199366Y269133D01*
X199406Y269052D01*
X199441Y268970D01*
X199473Y268886D01*
X199502Y268801D01*
X199527Y268714D01*
X199548Y268627D01*
X199565Y268539D01*
X199579Y268450D01*
X199588Y268360D01*
X199594Y268271D01*
X199596Y268181D01*
X199594Y268091D01*
X199588Y268002D01*
X199579Y267912D01*
X199565Y267823D01*
X199548Y267735D01*
X199527Y267648D01*
X199502Y267561D01*
X199473Y267476D01*
X199441Y267392D01*
X199406Y267310D01*
X199366Y267229D01*
X199324Y267150D01*
X199278Y267073D01*
X199228Y266998D01*
X199176Y266925D01*
X199120Y266854D01*
X199062Y266786D01*
X199000Y266721D01*
X198936Y266658D01*
X198869Y266598D01*
X198800Y266541D01*
X198728Y266487D01*
X198654Y266436D01*
X198578Y266388D01*
X198500Y266344D01*
X198420Y266303D01*
X198338Y266265D01*
X198255Y266231D01*
X198170Y266201D01*
X198084Y266174D01*
X197998Y266151D01*
X197910Y266132D01*
X197821Y266117D01*
X197732Y266105D01*
X197643Y266097D01*
X197553Y266093D01*
X197463Y266093D01*
X197373Y266097D01*
X197284Y266105D01*
X197195Y266117D01*
X197106Y266132D01*
X197018Y266151D01*
X196932Y266174D01*
X196846Y266201D01*
X196761Y266231D01*
X196678Y266265D01*
X196596Y266303D01*
X196516Y266344D01*
X196438Y266388D01*
X196362Y266436D01*
X196288Y266487D01*
X196216Y266541D01*
X196147Y266598D01*
X196080Y266658D01*
X196016Y266721D01*
X195954Y266786D01*
X195896Y266854D01*
X195840Y266925D01*
X195788Y266998D01*
X195738Y267073D01*
X195692Y267150D01*
X195650Y267229D01*
X195610Y267310D01*
X195575Y267392D01*
X195543Y267476D01*
X195514Y267561D01*
X195489Y267648D01*
X195468Y267735D01*
X195451Y267823D01*
X195437Y267912D01*
X195428Y268002D01*
X195422Y268091D01*
X195420Y268181D01*
D11*
X212200Y564500D02*
X212200Y567100D01*
X194200Y575900D02*
X194200Y578500D01*
X212200Y578500D01*
X212200Y575900D01*
X212200Y564500D02*
X194200Y564500D01*
X194200Y567100D01*
D12*
X200700Y569000D02*
X200700Y574000D01*
X205700Y571500D01*
X200700Y569000D01*
X205700Y569000D02*
X205700Y574000D01*
D10*
X203868Y558419D02*
X203868Y551053D01*
X203868Y558419D02*
X205914Y558419D01*
X206003Y558417D01*
X206092Y558411D01*
X206181Y558401D01*
X206269Y558388D01*
X206357Y558371D01*
X206444Y558349D01*
X206529Y558324D01*
X206614Y558296D01*
X206697Y558263D01*
X206779Y558227D01*
X206859Y558188D01*
X206937Y558145D01*
X207013Y558099D01*
X207088Y558049D01*
X207160Y557996D01*
X207229Y557940D01*
X207296Y557881D01*
X207361Y557820D01*
X207422Y557755D01*
X207481Y557688D01*
X207537Y557619D01*
X207590Y557547D01*
X207640Y557472D01*
X207686Y557396D01*
X207729Y557318D01*
X207768Y557238D01*
X207804Y557156D01*
X207837Y557073D01*
X207865Y556988D01*
X207890Y556903D01*
X207912Y556816D01*
X207929Y556728D01*
X207942Y556640D01*
X207952Y556551D01*
X207958Y556462D01*
X207960Y556373D01*
X207960Y553099D01*
X207958Y553010D01*
X207952Y552921D01*
X207942Y552832D01*
X207929Y552744D01*
X207912Y552656D01*
X207890Y552569D01*
X207865Y552484D01*
X207837Y552399D01*
X207804Y552316D01*
X207768Y552234D01*
X207729Y552154D01*
X207686Y552076D01*
X207640Y552000D01*
X207590Y551925D01*
X207537Y551853D01*
X207481Y551784D01*
X207422Y551717D01*
X207361Y551652D01*
X207296Y551591D01*
X207229Y551532D01*
X207160Y551476D01*
X207088Y551423D01*
X207013Y551373D01*
X206937Y551327D01*
X206859Y551284D01*
X206779Y551245D01*
X206697Y551209D01*
X206614Y551176D01*
X206529Y551148D01*
X206444Y551123D01*
X206357Y551101D01*
X206269Y551084D01*
X206181Y551071D01*
X206092Y551061D01*
X206003Y551055D01*
X205914Y551053D01*
X203868Y551053D01*
X211427Y556782D02*
X213473Y558419D01*
X213473Y551053D01*
X211427Y551053D02*
X215519Y551053D01*
D11*
X92600Y575900D02*
X92600Y578500D01*
X110600Y567100D02*
X110600Y564500D01*
X92600Y564500D01*
X92600Y567100D01*
X92600Y578500D02*
X110600Y578500D01*
X110600Y575900D01*
D12*
X104100Y574000D02*
X104100Y569000D01*
X99100Y571500D01*
X104100Y574000D01*
X99100Y574000D02*
X99100Y569000D01*
D10*
X89281Y584581D02*
X89281Y591947D01*
X91327Y591947D01*
X91416Y591945D01*
X91505Y591939D01*
X91594Y591929D01*
X91682Y591916D01*
X91770Y591899D01*
X91857Y591877D01*
X91942Y591852D01*
X92027Y591824D01*
X92110Y591791D01*
X92192Y591755D01*
X92272Y591716D01*
X92350Y591673D01*
X92426Y591627D01*
X92501Y591577D01*
X92573Y591524D01*
X92642Y591468D01*
X92709Y591409D01*
X92774Y591348D01*
X92835Y591283D01*
X92894Y591216D01*
X92950Y591147D01*
X93003Y591075D01*
X93053Y591000D01*
X93099Y590924D01*
X93142Y590846D01*
X93181Y590766D01*
X93217Y590684D01*
X93250Y590601D01*
X93278Y590516D01*
X93303Y590431D01*
X93325Y590344D01*
X93342Y590256D01*
X93355Y590168D01*
X93365Y590079D01*
X93371Y589990D01*
X93373Y589901D01*
X93373Y586627D01*
X93371Y586538D01*
X93365Y586449D01*
X93355Y586360D01*
X93342Y586272D01*
X93325Y586184D01*
X93303Y586097D01*
X93278Y586012D01*
X93250Y585927D01*
X93217Y585844D01*
X93181Y585762D01*
X93142Y585682D01*
X93099Y585604D01*
X93053Y585528D01*
X93003Y585453D01*
X92950Y585381D01*
X92894Y585312D01*
X92835Y585245D01*
X92774Y585180D01*
X92709Y585119D01*
X92642Y585060D01*
X92573Y585004D01*
X92501Y584951D01*
X92426Y584901D01*
X92350Y584855D01*
X92272Y584812D01*
X92192Y584773D01*
X92110Y584737D01*
X92027Y584704D01*
X91942Y584676D01*
X91857Y584651D01*
X91770Y584629D01*
X91682Y584612D01*
X91594Y584599D01*
X91505Y584589D01*
X91416Y584583D01*
X91327Y584581D01*
X89281Y584581D01*
X99091Y591948D02*
X99176Y591946D01*
X99261Y591940D01*
X99345Y591930D01*
X99429Y591917D01*
X99513Y591899D01*
X99595Y591878D01*
X99676Y591853D01*
X99756Y591824D01*
X99835Y591791D01*
X99912Y591755D01*
X99987Y591715D01*
X100061Y591672D01*
X100132Y591626D01*
X100201Y591576D01*
X100268Y591523D01*
X100332Y591467D01*
X100393Y591408D01*
X100452Y591347D01*
X100508Y591283D01*
X100561Y591216D01*
X100611Y591147D01*
X100657Y591076D01*
X100700Y591002D01*
X100740Y590927D01*
X100776Y590850D01*
X100809Y590771D01*
X100838Y590691D01*
X100863Y590610D01*
X100884Y590528D01*
X100902Y590444D01*
X100915Y590360D01*
X100925Y590276D01*
X100931Y590191D01*
X100933Y590106D01*
X99091Y591947D02*
X98995Y591945D01*
X98899Y591939D01*
X98804Y591929D01*
X98709Y591916D01*
X98614Y591898D01*
X98521Y591877D01*
X98428Y591852D01*
X98337Y591823D01*
X98246Y591791D01*
X98157Y591755D01*
X98070Y591715D01*
X97984Y591672D01*
X97900Y591626D01*
X97818Y591576D01*
X97738Y591522D01*
X97661Y591466D01*
X97586Y591406D01*
X97513Y591344D01*
X97443Y591278D01*
X97375Y591210D01*
X97310Y591139D01*
X97249Y591066D01*
X97190Y590990D01*
X97134Y590911D01*
X97082Y590831D01*
X97033Y590748D01*
X96987Y590664D01*
X96945Y590578D01*
X96907Y590490D01*
X96872Y590401D01*
X96840Y590310D01*
X100318Y588674D02*
X100378Y588733D01*
X100435Y588795D01*
X100490Y588859D01*
X100541Y588926D01*
X100590Y588995D01*
X100636Y589065D01*
X100679Y589138D01*
X100719Y589212D01*
X100755Y589288D01*
X100788Y589366D01*
X100818Y589445D01*
X100845Y589525D01*
X100868Y589606D01*
X100887Y589688D01*
X100903Y589770D01*
X100916Y589854D01*
X100925Y589938D01*
X100930Y590022D01*
X100932Y590106D01*
X100318Y588673D02*
X96840Y584581D01*
X100932Y584581D01*
D13*
X105410Y373888D02*
X186690Y373888D01*
X190500Y338582D02*
X190498Y338460D01*
X190492Y338338D01*
X190482Y338216D01*
X190469Y338095D01*
X190451Y337974D01*
X190430Y337854D01*
X190404Y337734D01*
X190375Y337616D01*
X190343Y337498D01*
X190306Y337381D01*
X190266Y337266D01*
X190222Y337152D01*
X190174Y337040D01*
X190123Y336929D01*
X190068Y336820D01*
X190010Y336712D01*
X189948Y336607D01*
X189883Y336504D01*
X189815Y336402D01*
X189743Y336303D01*
X189669Y336207D01*
X189591Y336112D01*
X189510Y336021D01*
X189427Y335931D01*
X189341Y335845D01*
X189251Y335762D01*
X189160Y335681D01*
X189065Y335603D01*
X188969Y335529D01*
X188870Y335457D01*
X188768Y335389D01*
X188665Y335324D01*
X188560Y335262D01*
X188452Y335204D01*
X188343Y335149D01*
X188232Y335098D01*
X188120Y335050D01*
X188006Y335006D01*
X187891Y334966D01*
X187774Y334929D01*
X187656Y334897D01*
X187538Y334868D01*
X187418Y334842D01*
X187298Y334821D01*
X187177Y334803D01*
X187056Y334790D01*
X186934Y334780D01*
X186812Y334774D01*
X186690Y334772D01*
X105410Y373888D02*
X105288Y373886D01*
X105166Y373880D01*
X105044Y373870D01*
X104923Y373857D01*
X104802Y373839D01*
X104682Y373818D01*
X104562Y373792D01*
X104444Y373763D01*
X104326Y373731D01*
X104209Y373694D01*
X104094Y373654D01*
X103980Y373610D01*
X103868Y373562D01*
X103757Y373511D01*
X103648Y373456D01*
X103540Y373398D01*
X103435Y373336D01*
X103332Y373271D01*
X103230Y373203D01*
X103131Y373131D01*
X103035Y373057D01*
X102940Y372979D01*
X102849Y372898D01*
X102759Y372815D01*
X102673Y372729D01*
X102590Y372639D01*
X102509Y372548D01*
X102431Y372453D01*
X102357Y372357D01*
X102285Y372258D01*
X102217Y372156D01*
X102152Y372053D01*
X102090Y371948D01*
X102032Y371840D01*
X101977Y371731D01*
X101926Y371620D01*
X101878Y371508D01*
X101834Y371394D01*
X101794Y371279D01*
X101757Y371162D01*
X101725Y371044D01*
X101696Y370926D01*
X101670Y370806D01*
X101649Y370686D01*
X101631Y370565D01*
X101618Y370444D01*
X101608Y370322D01*
X101602Y370200D01*
X101600Y370078D01*
X186690Y373888D02*
X186812Y373886D01*
X186934Y373880D01*
X187056Y373870D01*
X187177Y373857D01*
X187298Y373839D01*
X187418Y373818D01*
X187538Y373792D01*
X187656Y373763D01*
X187774Y373731D01*
X187891Y373694D01*
X188006Y373654D01*
X188120Y373610D01*
X188232Y373562D01*
X188343Y373511D01*
X188452Y373456D01*
X188560Y373398D01*
X188665Y373336D01*
X188768Y373271D01*
X188870Y373203D01*
X188969Y373131D01*
X189065Y373057D01*
X189160Y372979D01*
X189251Y372898D01*
X189341Y372815D01*
X189427Y372729D01*
X189510Y372639D01*
X189591Y372548D01*
X189669Y372453D01*
X189743Y372357D01*
X189815Y372258D01*
X189883Y372156D01*
X189948Y372053D01*
X190010Y371948D01*
X190068Y371840D01*
X190123Y371731D01*
X190174Y371620D01*
X190222Y371508D01*
X190266Y371394D01*
X190306Y371279D01*
X190343Y371162D01*
X190375Y371044D01*
X190404Y370926D01*
X190430Y370806D01*
X190451Y370686D01*
X190469Y370565D01*
X190482Y370444D01*
X190492Y370322D01*
X190498Y370200D01*
X190500Y370078D01*
X105410Y334772D02*
X105288Y334774D01*
X105166Y334780D01*
X105044Y334790D01*
X104923Y334803D01*
X104802Y334821D01*
X104682Y334842D01*
X104562Y334868D01*
X104444Y334897D01*
X104326Y334929D01*
X104209Y334966D01*
X104094Y335006D01*
X103980Y335050D01*
X103868Y335098D01*
X103757Y335149D01*
X103648Y335204D01*
X103540Y335262D01*
X103435Y335324D01*
X103332Y335389D01*
X103230Y335457D01*
X103131Y335529D01*
X103035Y335603D01*
X102940Y335681D01*
X102849Y335762D01*
X102759Y335845D01*
X102673Y335931D01*
X102590Y336021D01*
X102509Y336112D01*
X102431Y336207D01*
X102357Y336303D01*
X102285Y336402D01*
X102217Y336504D01*
X102152Y336607D01*
X102090Y336712D01*
X102032Y336820D01*
X101977Y336929D01*
X101926Y337040D01*
X101878Y337152D01*
X101834Y337266D01*
X101794Y337381D01*
X101757Y337498D01*
X101725Y337616D01*
X101696Y337734D01*
X101670Y337854D01*
X101649Y337974D01*
X101631Y338095D01*
X101618Y338216D01*
X101608Y338338D01*
X101602Y338460D01*
X101600Y338582D01*
X105410Y334772D02*
X186690Y334772D01*
X190500Y338582D02*
X190500Y370078D01*
X101600Y370078D02*
X101600Y359410D01*
X101600Y349250D01*
X101600Y338582D01*
X101600Y349250D02*
X101741Y349252D01*
X101882Y349258D01*
X102023Y349268D01*
X102164Y349281D01*
X102304Y349299D01*
X102443Y349321D01*
X102582Y349346D01*
X102721Y349375D01*
X102858Y349408D01*
X102994Y349445D01*
X103129Y349486D01*
X103264Y349530D01*
X103396Y349578D01*
X103528Y349630D01*
X103658Y349685D01*
X103786Y349744D01*
X103913Y349807D01*
X104037Y349873D01*
X104160Y349942D01*
X104281Y350015D01*
X104400Y350091D01*
X104517Y350171D01*
X104631Y350254D01*
X104744Y350339D01*
X104853Y350428D01*
X104961Y350520D01*
X105065Y350615D01*
X105167Y350713D01*
X105266Y350814D01*
X105363Y350917D01*
X105456Y351023D01*
X105546Y351131D01*
X105634Y351242D01*
X105718Y351355D01*
X105799Y351471D01*
X105877Y351589D01*
X105952Y351709D01*
X106023Y351831D01*
X106091Y351955D01*
X106155Y352081D01*
X106216Y352208D01*
X106273Y352337D01*
X106326Y352468D01*
X106376Y352600D01*
X106423Y352733D01*
X106465Y352868D01*
X106504Y353004D01*
X106539Y353141D01*
X106570Y353278D01*
X106597Y353417D01*
X106621Y353556D01*
X106640Y353696D01*
X106656Y353836D01*
X106668Y353977D01*
X106676Y354118D01*
X106680Y354259D01*
X106680Y354401D01*
X106676Y354542D01*
X106668Y354683D01*
X106656Y354824D01*
X106640Y354964D01*
X106621Y355104D01*
X106597Y355243D01*
X106570Y355382D01*
X106539Y355519D01*
X106504Y355656D01*
X106465Y355792D01*
X106423Y355927D01*
X106376Y356060D01*
X106326Y356192D01*
X106273Y356323D01*
X106216Y356452D01*
X106155Y356579D01*
X106091Y356705D01*
X106023Y356829D01*
X105952Y356951D01*
X105877Y357071D01*
X105799Y357189D01*
X105718Y357305D01*
X105634Y357418D01*
X105546Y357529D01*
X105456Y357637D01*
X105363Y357743D01*
X105266Y357846D01*
X105167Y357947D01*
X105065Y358045D01*
X104961Y358140D01*
X104853Y358232D01*
X104744Y358321D01*
X104631Y358406D01*
X104517Y358489D01*
X104400Y358569D01*
X104281Y358645D01*
X104160Y358718D01*
X104037Y358787D01*
X103913Y358853D01*
X103786Y358916D01*
X103658Y358975D01*
X103528Y359030D01*
X103396Y359082D01*
X103264Y359130D01*
X103129Y359174D01*
X102994Y359215D01*
X102858Y359252D01*
X102721Y359285D01*
X102582Y359314D01*
X102443Y359339D01*
X102304Y359361D01*
X102164Y359379D01*
X102023Y359392D01*
X101882Y359402D01*
X101741Y359408D01*
X101600Y359410D01*
X101600Y338328D02*
X190500Y338328D01*
D14*
X76581Y335915D02*
X76581Y324485D01*
X75311Y324485D02*
X77851Y324485D01*
X77851Y335915D02*
X75311Y335915D01*
X85053Y324485D02*
X87593Y324485D01*
X85053Y324485D02*
X84953Y324487D01*
X84854Y324493D01*
X84754Y324503D01*
X84656Y324516D01*
X84557Y324534D01*
X84460Y324555D01*
X84364Y324580D01*
X84268Y324609D01*
X84174Y324642D01*
X84081Y324678D01*
X83990Y324718D01*
X83900Y324762D01*
X83812Y324809D01*
X83726Y324859D01*
X83642Y324913D01*
X83560Y324970D01*
X83481Y325030D01*
X83403Y325094D01*
X83329Y325160D01*
X83257Y325229D01*
X83188Y325301D01*
X83122Y325375D01*
X83058Y325453D01*
X82998Y325532D01*
X82941Y325614D01*
X82887Y325698D01*
X82837Y325784D01*
X82790Y325872D01*
X82746Y325962D01*
X82706Y326053D01*
X82670Y326146D01*
X82637Y326240D01*
X82608Y326336D01*
X82583Y326432D01*
X82562Y326529D01*
X82544Y326628D01*
X82531Y326726D01*
X82521Y326826D01*
X82515Y326925D01*
X82513Y327025D01*
X82513Y333375D01*
X82515Y333475D01*
X82521Y333574D01*
X82531Y333674D01*
X82544Y333772D01*
X82562Y333871D01*
X82583Y333968D01*
X82608Y334064D01*
X82637Y334160D01*
X82670Y334254D01*
X82706Y334347D01*
X82746Y334438D01*
X82790Y334528D01*
X82837Y334616D01*
X82887Y334702D01*
X82941Y334786D01*
X82998Y334868D01*
X83058Y334947D01*
X83122Y335025D01*
X83188Y335099D01*
X83257Y335171D01*
X83329Y335240D01*
X83403Y335306D01*
X83481Y335370D01*
X83560Y335430D01*
X83642Y335487D01*
X83726Y335541D01*
X83812Y335591D01*
X83900Y335638D01*
X83990Y335682D01*
X84081Y335722D01*
X84174Y335758D01*
X84268Y335791D01*
X84364Y335820D01*
X84460Y335845D01*
X84557Y335866D01*
X84656Y335884D01*
X84754Y335897D01*
X84854Y335907D01*
X84953Y335913D01*
X85053Y335915D01*
X87593Y335915D01*
X95568Y335916D02*
X95672Y335914D01*
X95777Y335908D01*
X95881Y335899D01*
X95984Y335886D01*
X96087Y335868D01*
X96189Y335848D01*
X96291Y335823D01*
X96391Y335795D01*
X96491Y335763D01*
X96589Y335727D01*
X96686Y335688D01*
X96781Y335646D01*
X96875Y335600D01*
X96967Y335550D01*
X97057Y335498D01*
X97145Y335442D01*
X97231Y335382D01*
X97315Y335320D01*
X97396Y335255D01*
X97475Y335187D01*
X97552Y335115D01*
X97625Y335042D01*
X97697Y334965D01*
X97765Y334886D01*
X97830Y334805D01*
X97892Y334721D01*
X97952Y334635D01*
X98008Y334547D01*
X98060Y334457D01*
X98110Y334365D01*
X98156Y334271D01*
X98198Y334176D01*
X98237Y334079D01*
X98273Y333981D01*
X98305Y333881D01*
X98333Y333781D01*
X98358Y333679D01*
X98378Y333577D01*
X98396Y333474D01*
X98409Y333371D01*
X98418Y333267D01*
X98424Y333162D01*
X98426Y333058D01*
X95568Y335915D02*
X95450Y335913D01*
X95331Y335907D01*
X95213Y335898D01*
X95096Y335885D01*
X94979Y335867D01*
X94862Y335847D01*
X94746Y335822D01*
X94631Y335794D01*
X94518Y335761D01*
X94405Y335726D01*
X94293Y335686D01*
X94183Y335644D01*
X94074Y335597D01*
X93966Y335547D01*
X93861Y335494D01*
X93757Y335437D01*
X93655Y335377D01*
X93555Y335314D01*
X93457Y335247D01*
X93361Y335178D01*
X93268Y335105D01*
X93177Y335029D01*
X93088Y334951D01*
X93002Y334869D01*
X92919Y334785D01*
X92838Y334699D01*
X92761Y334609D01*
X92686Y334518D01*
X92614Y334424D01*
X92545Y334327D01*
X92480Y334229D01*
X92417Y334128D01*
X92358Y334025D01*
X92302Y333921D01*
X92250Y333815D01*
X92201Y333707D01*
X92156Y333598D01*
X92114Y333487D01*
X92076Y333375D01*
X97473Y330836D02*
X97549Y330911D01*
X97624Y330990D01*
X97695Y331071D01*
X97764Y331155D01*
X97829Y331241D01*
X97891Y331329D01*
X97951Y331419D01*
X98007Y331511D01*
X98060Y331606D01*
X98109Y331702D01*
X98155Y331800D01*
X98198Y331899D01*
X98237Y332000D01*
X98272Y332102D01*
X98304Y332205D01*
X98332Y332309D01*
X98357Y332414D01*
X98378Y332521D01*
X98395Y332627D01*
X98408Y332734D01*
X98417Y332842D01*
X98423Y332950D01*
X98425Y333058D01*
X97473Y330835D02*
X92075Y324485D01*
X98425Y324485D01*
D15*
X44958Y406908D02*
X44958Y418592D01*
X48204Y418592D01*
X48317Y418590D01*
X48430Y418584D01*
X48543Y418574D01*
X48656Y418560D01*
X48768Y418543D01*
X48879Y418521D01*
X48989Y418496D01*
X49099Y418466D01*
X49207Y418433D01*
X49314Y418396D01*
X49420Y418356D01*
X49524Y418311D01*
X49627Y418263D01*
X49728Y418212D01*
X49827Y418157D01*
X49924Y418099D01*
X50019Y418037D01*
X50112Y417972D01*
X50202Y417904D01*
X50290Y417833D01*
X50376Y417758D01*
X50459Y417681D01*
X50539Y417601D01*
X50616Y417518D01*
X50691Y417432D01*
X50762Y417344D01*
X50830Y417254D01*
X50895Y417161D01*
X50957Y417066D01*
X51015Y416969D01*
X51070Y416870D01*
X51121Y416769D01*
X51169Y416666D01*
X51214Y416562D01*
X51254Y416456D01*
X51291Y416349D01*
X51324Y416241D01*
X51354Y416131D01*
X51379Y416021D01*
X51401Y415910D01*
X51418Y415798D01*
X51432Y415685D01*
X51442Y415572D01*
X51448Y415459D01*
X51450Y415346D01*
X51448Y415233D01*
X51442Y415120D01*
X51432Y415007D01*
X51418Y414894D01*
X51401Y414782D01*
X51379Y414671D01*
X51354Y414561D01*
X51324Y414451D01*
X51291Y414343D01*
X51254Y414236D01*
X51214Y414130D01*
X51169Y414026D01*
X51121Y413923D01*
X51070Y413822D01*
X51015Y413723D01*
X50957Y413626D01*
X50895Y413531D01*
X50830Y413438D01*
X50762Y413348D01*
X50691Y413260D01*
X50616Y413174D01*
X50539Y413091D01*
X50459Y413011D01*
X50376Y412934D01*
X50290Y412859D01*
X50202Y412788D01*
X50112Y412720D01*
X50019Y412655D01*
X49924Y412593D01*
X49827Y412535D01*
X49728Y412480D01*
X49627Y412429D01*
X49524Y412381D01*
X49420Y412336D01*
X49314Y412296D01*
X49207Y412259D01*
X49099Y412226D01*
X48989Y412196D01*
X48879Y412171D01*
X48768Y412149D01*
X48656Y412132D01*
X48543Y412118D01*
X48430Y412108D01*
X48317Y412102D01*
X48204Y412100D01*
X48204Y412101D02*
X44958Y412101D01*
X48853Y412101D02*
X51449Y406908D01*
X56314Y415996D02*
X59560Y418592D01*
X59560Y406908D01*
X62805Y406908D02*
X56314Y406908D01*
X178308Y438658D02*
X189992Y438658D01*
X178308Y438658D02*
X178308Y441904D01*
X178310Y442017D01*
X178316Y442130D01*
X178326Y442243D01*
X178340Y442356D01*
X178357Y442468D01*
X178379Y442579D01*
X178404Y442689D01*
X178434Y442799D01*
X178467Y442907D01*
X178504Y443014D01*
X178544Y443120D01*
X178589Y443224D01*
X178637Y443327D01*
X178688Y443428D01*
X178743Y443527D01*
X178801Y443624D01*
X178863Y443719D01*
X178928Y443812D01*
X178996Y443902D01*
X179067Y443990D01*
X179142Y444076D01*
X179219Y444159D01*
X179299Y444239D01*
X179382Y444316D01*
X179468Y444391D01*
X179556Y444462D01*
X179646Y444530D01*
X179739Y444595D01*
X179834Y444657D01*
X179931Y444715D01*
X180030Y444770D01*
X180131Y444821D01*
X180234Y444869D01*
X180338Y444914D01*
X180444Y444954D01*
X180551Y444991D01*
X180659Y445024D01*
X180769Y445054D01*
X180879Y445079D01*
X180990Y445101D01*
X181102Y445118D01*
X181215Y445132D01*
X181328Y445142D01*
X181441Y445148D01*
X181554Y445150D01*
X181667Y445148D01*
X181780Y445142D01*
X181893Y445132D01*
X182006Y445118D01*
X182118Y445101D01*
X182229Y445079D01*
X182339Y445054D01*
X182449Y445024D01*
X182557Y444991D01*
X182664Y444954D01*
X182770Y444914D01*
X182874Y444869D01*
X182977Y444821D01*
X183078Y444770D01*
X183177Y444715D01*
X183274Y444657D01*
X183369Y444595D01*
X183462Y444530D01*
X183552Y444462D01*
X183640Y444391D01*
X183726Y444316D01*
X183809Y444239D01*
X183889Y444159D01*
X183966Y444076D01*
X184041Y443990D01*
X184112Y443902D01*
X184180Y443812D01*
X184245Y443719D01*
X184307Y443624D01*
X184365Y443527D01*
X184420Y443428D01*
X184471Y443327D01*
X184519Y443224D01*
X184564Y443120D01*
X184604Y443014D01*
X184641Y442907D01*
X184674Y442799D01*
X184704Y442689D01*
X184729Y442579D01*
X184751Y442468D01*
X184768Y442356D01*
X184782Y442243D01*
X184792Y442130D01*
X184798Y442017D01*
X184800Y441904D01*
X184799Y441904D02*
X184799Y438658D01*
X184799Y442553D02*
X189992Y445149D01*
X181229Y456505D02*
X181122Y456503D01*
X181016Y456497D01*
X180910Y456487D01*
X180804Y456474D01*
X180698Y456456D01*
X180594Y456435D01*
X180490Y456410D01*
X180387Y456381D01*
X180286Y456349D01*
X180186Y456312D01*
X180087Y456272D01*
X179989Y456229D01*
X179893Y456182D01*
X179799Y456131D01*
X179707Y456077D01*
X179617Y456020D01*
X179529Y455960D01*
X179444Y455896D01*
X179361Y455829D01*
X179280Y455759D01*
X179202Y455687D01*
X179126Y455611D01*
X179054Y455533D01*
X178984Y455452D01*
X178917Y455369D01*
X178853Y455284D01*
X178793Y455196D01*
X178736Y455106D01*
X178682Y455014D01*
X178631Y454920D01*
X178584Y454824D01*
X178541Y454726D01*
X178501Y454627D01*
X178464Y454527D01*
X178432Y454426D01*
X178403Y454323D01*
X178378Y454219D01*
X178357Y454115D01*
X178339Y454009D01*
X178326Y453903D01*
X178316Y453797D01*
X178310Y453691D01*
X178308Y453584D01*
X178310Y453463D01*
X178316Y453342D01*
X178326Y453222D01*
X178339Y453101D01*
X178357Y452982D01*
X178378Y452862D01*
X178403Y452744D01*
X178432Y452627D01*
X178465Y452510D01*
X178501Y452395D01*
X178542Y452281D01*
X178585Y452168D01*
X178633Y452056D01*
X178684Y451947D01*
X178739Y451839D01*
X178797Y451732D01*
X178858Y451628D01*
X178923Y451526D01*
X178991Y451426D01*
X179062Y451328D01*
X179136Y451232D01*
X179213Y451139D01*
X179294Y451049D01*
X179377Y450961D01*
X179463Y450876D01*
X179552Y450793D01*
X179643Y450714D01*
X179737Y450637D01*
X179833Y450564D01*
X179931Y450494D01*
X180032Y450427D01*
X180135Y450363D01*
X180240Y450303D01*
X180347Y450245D01*
X180455Y450192D01*
X180565Y450142D01*
X180677Y450096D01*
X180790Y450053D01*
X180905Y450014D01*
X183501Y455531D02*
X183423Y455610D01*
X183343Y455686D01*
X183260Y455759D01*
X183174Y455829D01*
X183087Y455896D01*
X182996Y455960D01*
X182904Y456020D01*
X182810Y456078D01*
X182713Y456132D01*
X182615Y456182D01*
X182515Y456229D01*
X182414Y456273D01*
X182311Y456313D01*
X182206Y456349D01*
X182101Y456381D01*
X181994Y456410D01*
X181887Y456435D01*
X181778Y456457D01*
X181669Y456474D01*
X181560Y456488D01*
X181450Y456497D01*
X181339Y456503D01*
X181229Y456505D01*
X183501Y455532D02*
X189992Y450014D01*
X189992Y456505D01*
X88392Y438658D02*
X76708Y438658D01*
X76708Y441904D01*
X76710Y442017D01*
X76716Y442130D01*
X76726Y442243D01*
X76740Y442356D01*
X76757Y442468D01*
X76779Y442579D01*
X76804Y442689D01*
X76834Y442799D01*
X76867Y442907D01*
X76904Y443014D01*
X76944Y443120D01*
X76989Y443224D01*
X77037Y443327D01*
X77088Y443428D01*
X77143Y443527D01*
X77201Y443624D01*
X77263Y443719D01*
X77328Y443812D01*
X77396Y443902D01*
X77467Y443990D01*
X77542Y444076D01*
X77619Y444159D01*
X77699Y444239D01*
X77782Y444316D01*
X77868Y444391D01*
X77956Y444462D01*
X78046Y444530D01*
X78139Y444595D01*
X78234Y444657D01*
X78331Y444715D01*
X78430Y444770D01*
X78531Y444821D01*
X78634Y444869D01*
X78738Y444914D01*
X78844Y444954D01*
X78951Y444991D01*
X79059Y445024D01*
X79169Y445054D01*
X79279Y445079D01*
X79390Y445101D01*
X79502Y445118D01*
X79615Y445132D01*
X79728Y445142D01*
X79841Y445148D01*
X79954Y445150D01*
X80067Y445148D01*
X80180Y445142D01*
X80293Y445132D01*
X80406Y445118D01*
X80518Y445101D01*
X80629Y445079D01*
X80739Y445054D01*
X80849Y445024D01*
X80957Y444991D01*
X81064Y444954D01*
X81170Y444914D01*
X81274Y444869D01*
X81377Y444821D01*
X81478Y444770D01*
X81577Y444715D01*
X81674Y444657D01*
X81769Y444595D01*
X81862Y444530D01*
X81952Y444462D01*
X82040Y444391D01*
X82126Y444316D01*
X82209Y444239D01*
X82289Y444159D01*
X82366Y444076D01*
X82441Y443990D01*
X82512Y443902D01*
X82580Y443812D01*
X82645Y443719D01*
X82707Y443624D01*
X82765Y443527D01*
X82820Y443428D01*
X82871Y443327D01*
X82919Y443224D01*
X82964Y443120D01*
X83004Y443014D01*
X83041Y442907D01*
X83074Y442799D01*
X83104Y442689D01*
X83129Y442579D01*
X83151Y442468D01*
X83168Y442356D01*
X83182Y442243D01*
X83192Y442130D01*
X83198Y442017D01*
X83200Y441904D01*
X83199Y441904D02*
X83199Y438658D01*
X83199Y442553D02*
X88392Y445149D01*
X88392Y450014D02*
X88392Y453260D01*
X88390Y453373D01*
X88384Y453486D01*
X88374Y453599D01*
X88360Y453712D01*
X88343Y453824D01*
X88321Y453935D01*
X88296Y454045D01*
X88266Y454155D01*
X88233Y454263D01*
X88196Y454370D01*
X88156Y454476D01*
X88111Y454580D01*
X88063Y454683D01*
X88012Y454784D01*
X87957Y454883D01*
X87899Y454980D01*
X87837Y455075D01*
X87772Y455168D01*
X87704Y455258D01*
X87633Y455346D01*
X87558Y455432D01*
X87481Y455515D01*
X87401Y455595D01*
X87318Y455672D01*
X87232Y455747D01*
X87144Y455818D01*
X87054Y455886D01*
X86961Y455951D01*
X86866Y456013D01*
X86769Y456071D01*
X86670Y456126D01*
X86569Y456177D01*
X86466Y456225D01*
X86362Y456270D01*
X86256Y456310D01*
X86149Y456347D01*
X86041Y456380D01*
X85931Y456410D01*
X85821Y456435D01*
X85710Y456457D01*
X85598Y456474D01*
X85485Y456488D01*
X85372Y456498D01*
X85259Y456504D01*
X85146Y456506D01*
X85033Y456504D01*
X84920Y456498D01*
X84807Y456488D01*
X84694Y456474D01*
X84582Y456457D01*
X84471Y456435D01*
X84361Y456410D01*
X84251Y456380D01*
X84143Y456347D01*
X84036Y456310D01*
X83930Y456270D01*
X83826Y456225D01*
X83723Y456177D01*
X83622Y456126D01*
X83523Y456071D01*
X83426Y456013D01*
X83331Y455951D01*
X83238Y455886D01*
X83148Y455818D01*
X83060Y455747D01*
X82974Y455672D01*
X82891Y455595D01*
X82811Y455515D01*
X82734Y455432D01*
X82659Y455346D01*
X82588Y455258D01*
X82520Y455168D01*
X82455Y455075D01*
X82393Y454980D01*
X82335Y454883D01*
X82280Y454784D01*
X82229Y454683D01*
X82181Y454580D01*
X82136Y454476D01*
X82096Y454370D01*
X82059Y454263D01*
X82026Y454155D01*
X81996Y454045D01*
X81971Y453935D01*
X81949Y453824D01*
X81932Y453712D01*
X81918Y453599D01*
X81908Y453486D01*
X81902Y453373D01*
X81900Y453260D01*
X76708Y453909D02*
X76708Y450014D01*
X76708Y453909D02*
X76710Y454010D01*
X76716Y454110D01*
X76726Y454210D01*
X76739Y454310D01*
X76757Y454409D01*
X76778Y454508D01*
X76803Y454605D01*
X76832Y454702D01*
X76865Y454797D01*
X76901Y454891D01*
X76941Y454983D01*
X76984Y455074D01*
X77031Y455163D01*
X77081Y455250D01*
X77135Y455336D01*
X77192Y455419D01*
X77252Y455499D01*
X77315Y455578D01*
X77382Y455654D01*
X77451Y455727D01*
X77523Y455797D01*
X77597Y455865D01*
X77674Y455930D01*
X77754Y455991D01*
X77836Y456050D01*
X77920Y456105D01*
X78006Y456157D01*
X78094Y456206D01*
X78184Y456251D01*
X78276Y456293D01*
X78369Y456331D01*
X78464Y456365D01*
X78559Y456396D01*
X78656Y456423D01*
X78754Y456446D01*
X78853Y456466D01*
X78953Y456481D01*
X79053Y456493D01*
X79153Y456501D01*
X79254Y456505D01*
X79354Y456505D01*
X79455Y456501D01*
X79555Y456493D01*
X79655Y456481D01*
X79755Y456466D01*
X79854Y456446D01*
X79952Y456423D01*
X80049Y456396D01*
X80144Y456365D01*
X80239Y456331D01*
X80332Y456293D01*
X80424Y456251D01*
X80514Y456206D01*
X80602Y456157D01*
X80688Y456105D01*
X80772Y456050D01*
X80854Y455991D01*
X80934Y455930D01*
X81011Y455865D01*
X81085Y455797D01*
X81157Y455727D01*
X81226Y455654D01*
X81293Y455578D01*
X81356Y455499D01*
X81416Y455419D01*
X81473Y455336D01*
X81527Y455250D01*
X81577Y455163D01*
X81624Y455074D01*
X81667Y454983D01*
X81707Y454891D01*
X81743Y454797D01*
X81776Y454702D01*
X81805Y454605D01*
X81830Y454508D01*
X81851Y454409D01*
X81869Y454310D01*
X81882Y454210D01*
X81892Y454110D01*
X81898Y454010D01*
X81900Y453909D01*
X81901Y453909D02*
X81901Y451313D01*
X178308Y489458D02*
X189992Y489458D01*
X178308Y489458D02*
X178308Y492704D01*
X178310Y492817D01*
X178316Y492930D01*
X178326Y493043D01*
X178340Y493156D01*
X178357Y493268D01*
X178379Y493379D01*
X178404Y493489D01*
X178434Y493599D01*
X178467Y493707D01*
X178504Y493814D01*
X178544Y493920D01*
X178589Y494024D01*
X178637Y494127D01*
X178688Y494228D01*
X178743Y494327D01*
X178801Y494424D01*
X178863Y494519D01*
X178928Y494612D01*
X178996Y494702D01*
X179067Y494790D01*
X179142Y494876D01*
X179219Y494959D01*
X179299Y495039D01*
X179382Y495116D01*
X179468Y495191D01*
X179556Y495262D01*
X179646Y495330D01*
X179739Y495395D01*
X179834Y495457D01*
X179931Y495515D01*
X180030Y495570D01*
X180131Y495621D01*
X180234Y495669D01*
X180338Y495714D01*
X180444Y495754D01*
X180551Y495791D01*
X180659Y495824D01*
X180769Y495854D01*
X180879Y495879D01*
X180990Y495901D01*
X181102Y495918D01*
X181215Y495932D01*
X181328Y495942D01*
X181441Y495948D01*
X181554Y495950D01*
X181667Y495948D01*
X181780Y495942D01*
X181893Y495932D01*
X182006Y495918D01*
X182118Y495901D01*
X182229Y495879D01*
X182339Y495854D01*
X182449Y495824D01*
X182557Y495791D01*
X182664Y495754D01*
X182770Y495714D01*
X182874Y495669D01*
X182977Y495621D01*
X183078Y495570D01*
X183177Y495515D01*
X183274Y495457D01*
X183369Y495395D01*
X183462Y495330D01*
X183552Y495262D01*
X183640Y495191D01*
X183726Y495116D01*
X183809Y495039D01*
X183889Y494959D01*
X183966Y494876D01*
X184041Y494790D01*
X184112Y494702D01*
X184180Y494612D01*
X184245Y494519D01*
X184307Y494424D01*
X184365Y494327D01*
X184420Y494228D01*
X184471Y494127D01*
X184519Y494024D01*
X184564Y493920D01*
X184604Y493814D01*
X184641Y493707D01*
X184674Y493599D01*
X184704Y493489D01*
X184729Y493379D01*
X184751Y493268D01*
X184768Y493156D01*
X184782Y493043D01*
X184792Y492930D01*
X184798Y492817D01*
X184800Y492704D01*
X184799Y492704D02*
X184799Y489458D01*
X184799Y493353D02*
X189992Y495949D01*
X187396Y500814D02*
X178308Y503411D01*
X187396Y500814D02*
X187396Y507305D01*
X184799Y505358D02*
X189992Y505358D01*
X139192Y489458D02*
X127508Y489458D01*
X127508Y492704D01*
X127510Y492817D01*
X127516Y492930D01*
X127526Y493043D01*
X127540Y493156D01*
X127557Y493268D01*
X127579Y493379D01*
X127604Y493489D01*
X127634Y493599D01*
X127667Y493707D01*
X127704Y493814D01*
X127744Y493920D01*
X127789Y494024D01*
X127837Y494127D01*
X127888Y494228D01*
X127943Y494327D01*
X128001Y494424D01*
X128063Y494519D01*
X128128Y494612D01*
X128196Y494702D01*
X128267Y494790D01*
X128342Y494876D01*
X128419Y494959D01*
X128499Y495039D01*
X128582Y495116D01*
X128668Y495191D01*
X128756Y495262D01*
X128846Y495330D01*
X128939Y495395D01*
X129034Y495457D01*
X129131Y495515D01*
X129230Y495570D01*
X129331Y495621D01*
X129434Y495669D01*
X129538Y495714D01*
X129644Y495754D01*
X129751Y495791D01*
X129859Y495824D01*
X129969Y495854D01*
X130079Y495879D01*
X130190Y495901D01*
X130302Y495918D01*
X130415Y495932D01*
X130528Y495942D01*
X130641Y495948D01*
X130754Y495950D01*
X130867Y495948D01*
X130980Y495942D01*
X131093Y495932D01*
X131206Y495918D01*
X131318Y495901D01*
X131429Y495879D01*
X131539Y495854D01*
X131649Y495824D01*
X131757Y495791D01*
X131864Y495754D01*
X131970Y495714D01*
X132074Y495669D01*
X132177Y495621D01*
X132278Y495570D01*
X132377Y495515D01*
X132474Y495457D01*
X132569Y495395D01*
X132662Y495330D01*
X132752Y495262D01*
X132840Y495191D01*
X132926Y495116D01*
X133009Y495039D01*
X133089Y494959D01*
X133166Y494876D01*
X133241Y494790D01*
X133312Y494702D01*
X133380Y494612D01*
X133445Y494519D01*
X133507Y494424D01*
X133565Y494327D01*
X133620Y494228D01*
X133671Y494127D01*
X133719Y494024D01*
X133764Y493920D01*
X133804Y493814D01*
X133841Y493707D01*
X133874Y493599D01*
X133904Y493489D01*
X133929Y493379D01*
X133951Y493268D01*
X133968Y493156D01*
X133982Y493043D01*
X133992Y492930D01*
X133998Y492817D01*
X134000Y492704D01*
X133999Y492704D02*
X133999Y489458D01*
X133999Y493353D02*
X139192Y495949D01*
X139192Y500814D02*
X139192Y504709D01*
X139190Y504808D01*
X139184Y504908D01*
X139175Y505007D01*
X139162Y505105D01*
X139145Y505203D01*
X139124Y505301D01*
X139099Y505397D01*
X139071Y505492D01*
X139039Y505586D01*
X139004Y505679D01*
X138965Y505771D01*
X138922Y505861D01*
X138877Y505949D01*
X138827Y506036D01*
X138775Y506120D01*
X138719Y506203D01*
X138661Y506283D01*
X138599Y506361D01*
X138534Y506436D01*
X138466Y506509D01*
X138396Y506579D01*
X138323Y506647D01*
X138248Y506712D01*
X138170Y506774D01*
X138090Y506832D01*
X138007Y506888D01*
X137923Y506940D01*
X137836Y506990D01*
X137748Y507035D01*
X137658Y507078D01*
X137566Y507117D01*
X137473Y507152D01*
X137379Y507184D01*
X137284Y507212D01*
X137188Y507237D01*
X137090Y507258D01*
X136992Y507275D01*
X136894Y507288D01*
X136795Y507297D01*
X136695Y507303D01*
X136596Y507305D01*
X135297Y507305D01*
X135198Y507303D01*
X135098Y507297D01*
X134999Y507288D01*
X134901Y507275D01*
X134803Y507258D01*
X134705Y507237D01*
X134609Y507212D01*
X134514Y507184D01*
X134420Y507152D01*
X134327Y507117D01*
X134235Y507078D01*
X134145Y507035D01*
X134057Y506990D01*
X133970Y506940D01*
X133886Y506888D01*
X133803Y506832D01*
X133723Y506774D01*
X133645Y506712D01*
X133570Y506647D01*
X133497Y506579D01*
X133427Y506509D01*
X133359Y506436D01*
X133294Y506361D01*
X133232Y506283D01*
X133174Y506203D01*
X133118Y506120D01*
X133066Y506036D01*
X133016Y505949D01*
X132971Y505861D01*
X132928Y505771D01*
X132889Y505679D01*
X132854Y505586D01*
X132822Y505492D01*
X132794Y505397D01*
X132769Y505301D01*
X132748Y505203D01*
X132731Y505105D01*
X132718Y505007D01*
X132709Y504908D01*
X132703Y504808D01*
X132701Y504709D01*
X132701Y500814D01*
X127508Y500814D01*
X127508Y507305D01*
X88392Y489458D02*
X76708Y489458D01*
X76708Y492704D01*
X76710Y492817D01*
X76716Y492930D01*
X76726Y493043D01*
X76740Y493156D01*
X76757Y493268D01*
X76779Y493379D01*
X76804Y493489D01*
X76834Y493599D01*
X76867Y493707D01*
X76904Y493814D01*
X76944Y493920D01*
X76989Y494024D01*
X77037Y494127D01*
X77088Y494228D01*
X77143Y494327D01*
X77201Y494424D01*
X77263Y494519D01*
X77328Y494612D01*
X77396Y494702D01*
X77467Y494790D01*
X77542Y494876D01*
X77619Y494959D01*
X77699Y495039D01*
X77782Y495116D01*
X77868Y495191D01*
X77956Y495262D01*
X78046Y495330D01*
X78139Y495395D01*
X78234Y495457D01*
X78331Y495515D01*
X78430Y495570D01*
X78531Y495621D01*
X78634Y495669D01*
X78738Y495714D01*
X78844Y495754D01*
X78951Y495791D01*
X79059Y495824D01*
X79169Y495854D01*
X79279Y495879D01*
X79390Y495901D01*
X79502Y495918D01*
X79615Y495932D01*
X79728Y495942D01*
X79841Y495948D01*
X79954Y495950D01*
X80067Y495948D01*
X80180Y495942D01*
X80293Y495932D01*
X80406Y495918D01*
X80518Y495901D01*
X80629Y495879D01*
X80739Y495854D01*
X80849Y495824D01*
X80957Y495791D01*
X81064Y495754D01*
X81170Y495714D01*
X81274Y495669D01*
X81377Y495621D01*
X81478Y495570D01*
X81577Y495515D01*
X81674Y495457D01*
X81769Y495395D01*
X81862Y495330D01*
X81952Y495262D01*
X82040Y495191D01*
X82126Y495116D01*
X82209Y495039D01*
X82289Y494959D01*
X82366Y494876D01*
X82441Y494790D01*
X82512Y494702D01*
X82580Y494612D01*
X82645Y494519D01*
X82707Y494424D01*
X82765Y494327D01*
X82820Y494228D01*
X82871Y494127D01*
X82919Y494024D01*
X82964Y493920D01*
X83004Y493814D01*
X83041Y493707D01*
X83074Y493599D01*
X83104Y493489D01*
X83129Y493379D01*
X83151Y493268D01*
X83168Y493156D01*
X83182Y493043D01*
X83192Y492930D01*
X83198Y492817D01*
X83200Y492704D01*
X83199Y492704D02*
X83199Y489458D01*
X83199Y493353D02*
X88392Y495949D01*
X81901Y500814D02*
X81901Y504709D01*
X81903Y504808D01*
X81909Y504908D01*
X81918Y505007D01*
X81931Y505105D01*
X81948Y505203D01*
X81969Y505301D01*
X81994Y505397D01*
X82022Y505492D01*
X82054Y505586D01*
X82089Y505679D01*
X82128Y505771D01*
X82171Y505861D01*
X82216Y505949D01*
X82266Y506036D01*
X82318Y506120D01*
X82374Y506203D01*
X82432Y506283D01*
X82494Y506361D01*
X82559Y506436D01*
X82627Y506509D01*
X82697Y506579D01*
X82770Y506647D01*
X82845Y506712D01*
X82923Y506774D01*
X83003Y506832D01*
X83086Y506888D01*
X83170Y506940D01*
X83257Y506990D01*
X83345Y507035D01*
X83435Y507078D01*
X83527Y507117D01*
X83620Y507152D01*
X83714Y507184D01*
X83809Y507212D01*
X83905Y507237D01*
X84003Y507258D01*
X84101Y507275D01*
X84199Y507288D01*
X84298Y507297D01*
X84398Y507303D01*
X84497Y507305D01*
X85146Y507305D01*
X85146Y507306D02*
X85259Y507304D01*
X85372Y507298D01*
X85485Y507288D01*
X85598Y507274D01*
X85710Y507257D01*
X85821Y507235D01*
X85931Y507210D01*
X86041Y507180D01*
X86149Y507147D01*
X86256Y507110D01*
X86362Y507070D01*
X86466Y507025D01*
X86569Y506977D01*
X86670Y506926D01*
X86769Y506871D01*
X86866Y506813D01*
X86961Y506751D01*
X87054Y506686D01*
X87144Y506618D01*
X87232Y506547D01*
X87318Y506472D01*
X87401Y506395D01*
X87481Y506315D01*
X87558Y506232D01*
X87633Y506146D01*
X87704Y506058D01*
X87772Y505968D01*
X87837Y505875D01*
X87899Y505780D01*
X87957Y505683D01*
X88012Y505584D01*
X88063Y505483D01*
X88111Y505380D01*
X88156Y505276D01*
X88196Y505170D01*
X88233Y505063D01*
X88266Y504955D01*
X88296Y504845D01*
X88321Y504735D01*
X88343Y504624D01*
X88360Y504512D01*
X88374Y504399D01*
X88384Y504286D01*
X88390Y504173D01*
X88392Y504060D01*
X88390Y503947D01*
X88384Y503834D01*
X88374Y503721D01*
X88360Y503608D01*
X88343Y503496D01*
X88321Y503385D01*
X88296Y503275D01*
X88266Y503165D01*
X88233Y503057D01*
X88196Y502950D01*
X88156Y502844D01*
X88111Y502740D01*
X88063Y502637D01*
X88012Y502536D01*
X87957Y502437D01*
X87899Y502340D01*
X87837Y502245D01*
X87772Y502152D01*
X87704Y502062D01*
X87633Y501974D01*
X87558Y501888D01*
X87481Y501805D01*
X87401Y501725D01*
X87318Y501648D01*
X87232Y501573D01*
X87144Y501502D01*
X87054Y501434D01*
X86961Y501369D01*
X86866Y501307D01*
X86769Y501249D01*
X86670Y501194D01*
X86569Y501143D01*
X86466Y501095D01*
X86362Y501050D01*
X86256Y501010D01*
X86149Y500973D01*
X86041Y500940D01*
X85931Y500910D01*
X85821Y500885D01*
X85710Y500863D01*
X85598Y500846D01*
X85485Y500832D01*
X85372Y500822D01*
X85259Y500816D01*
X85146Y500814D01*
X81901Y500814D01*
X81758Y500816D01*
X81615Y500822D01*
X81472Y500832D01*
X81330Y500846D01*
X81188Y500863D01*
X81046Y500885D01*
X80905Y500910D01*
X80765Y500940D01*
X80626Y500973D01*
X80488Y501010D01*
X80351Y501051D01*
X80215Y501095D01*
X80080Y501144D01*
X79947Y501196D01*
X79815Y501251D01*
X79685Y501311D01*
X79556Y501374D01*
X79429Y501440D01*
X79305Y501510D01*
X79182Y501583D01*
X79061Y501660D01*
X78942Y501739D01*
X78826Y501823D01*
X78711Y501909D01*
X78600Y501998D01*
X78491Y502091D01*
X78384Y502186D01*
X78280Y502285D01*
X78179Y502386D01*
X78080Y502490D01*
X77985Y502596D01*
X77892Y502706D01*
X77803Y502817D01*
X77717Y502931D01*
X77634Y503048D01*
X77554Y503167D01*
X77477Y503288D01*
X77404Y503410D01*
X77334Y503535D01*
X77268Y503662D01*
X77205Y503791D01*
X77145Y503921D01*
X77090Y504053D01*
X77038Y504186D01*
X76989Y504321D01*
X76945Y504457D01*
X76904Y504594D01*
X76867Y504732D01*
X76834Y504871D01*
X76804Y505011D01*
X76779Y505152D01*
X76757Y505294D01*
X76740Y505436D01*
X76726Y505578D01*
X76716Y505721D01*
X76710Y505864D01*
X76708Y506007D01*
D16*
X105900Y815600D02*
X132400Y815600D01*
X132400Y837100D01*
X124900Y844600D01*
X124900Y882600D01*
X133400Y882600D01*
X133400Y894350D01*
X171400Y894350D01*
X171400Y882600D01*
X179900Y882600D01*
X179900Y844600D01*
X172400Y837100D01*
X172400Y815600D01*
X198900Y815600D01*
X190900Y801100D02*
X113900Y801100D01*
X198900Y801100D02*
X198900Y815600D01*
X105900Y815600D02*
X105900Y801100D01*
D13*
X216662Y778260D02*
X232918Y767423D01*
X232918Y778260D02*
X216662Y767423D01*
X220274Y783957D02*
X216662Y788472D01*
X232918Y788472D01*
X232918Y783957D02*
X232918Y792988D01*
D15*
X21503Y758092D02*
X17608Y746408D01*
X25397Y746408D02*
X21503Y758092D01*
X24424Y749329D02*
X18582Y749329D01*
X30068Y746408D02*
X30068Y758092D01*
X36559Y746408D01*
X36559Y758092D01*
X44363Y758092D02*
X44363Y746408D01*
X41117Y758092D02*
X47608Y758092D01*
X51785Y755496D02*
X55031Y758092D01*
X55031Y746408D01*
X58276Y746408D02*
X51785Y746408D01*
X21503Y300892D02*
X17608Y289208D01*
X25397Y289208D02*
X21503Y300892D01*
X24424Y292129D02*
X18582Y292129D01*
X30068Y289208D02*
X30068Y300892D01*
X36559Y289208D01*
X36559Y300892D01*
X44363Y300892D02*
X44363Y289208D01*
X41117Y300892D02*
X47608Y300892D01*
X51785Y298296D02*
X55031Y300892D01*
X55031Y289208D01*
X58276Y289208D02*
X51785Y289208D01*
X68140Y295699D02*
X70087Y295699D01*
X70087Y289208D01*
X66192Y289208D01*
X66093Y289210D01*
X65993Y289216D01*
X65894Y289225D01*
X65796Y289238D01*
X65698Y289255D01*
X65600Y289276D01*
X65504Y289301D01*
X65409Y289329D01*
X65315Y289361D01*
X65222Y289396D01*
X65130Y289435D01*
X65040Y289478D01*
X64952Y289523D01*
X64865Y289573D01*
X64781Y289625D01*
X64698Y289681D01*
X64618Y289739D01*
X64540Y289801D01*
X64465Y289866D01*
X64392Y289934D01*
X64322Y290004D01*
X64254Y290077D01*
X64189Y290152D01*
X64127Y290230D01*
X64069Y290310D01*
X64013Y290393D01*
X63961Y290477D01*
X63911Y290564D01*
X63866Y290652D01*
X63823Y290742D01*
X63784Y290834D01*
X63749Y290927D01*
X63717Y291021D01*
X63689Y291116D01*
X63664Y291212D01*
X63643Y291310D01*
X63626Y291408D01*
X63613Y291506D01*
X63604Y291605D01*
X63598Y291705D01*
X63596Y291804D01*
X63596Y298296D01*
X63598Y298395D01*
X63604Y298495D01*
X63613Y298594D01*
X63626Y298692D01*
X63643Y298790D01*
X63664Y298888D01*
X63689Y298984D01*
X63717Y299079D01*
X63749Y299173D01*
X63784Y299266D01*
X63823Y299358D01*
X63866Y299448D01*
X63911Y299536D01*
X63961Y299623D01*
X64013Y299707D01*
X64069Y299790D01*
X64127Y299870D01*
X64189Y299948D01*
X64254Y300023D01*
X64322Y300096D01*
X64392Y300166D01*
X64465Y300234D01*
X64540Y300299D01*
X64618Y300361D01*
X64698Y300419D01*
X64781Y300475D01*
X64865Y300527D01*
X64952Y300577D01*
X65040Y300622D01*
X65130Y300665D01*
X65222Y300704D01*
X65314Y300739D01*
X65409Y300771D01*
X65504Y300799D01*
X65600Y300824D01*
X65698Y300845D01*
X65796Y300862D01*
X65894Y300875D01*
X65993Y300884D01*
X66093Y300890D01*
X66192Y300892D01*
X70087Y300892D01*
X75788Y300892D02*
X75788Y289208D01*
X82279Y289208D02*
X75788Y300892D01*
X82279Y300892D02*
X82279Y289208D01*
X87980Y289208D02*
X87980Y300892D01*
X91225Y300892D01*
X91338Y300890D01*
X91451Y300884D01*
X91564Y300874D01*
X91677Y300860D01*
X91789Y300843D01*
X91900Y300821D01*
X92010Y300796D01*
X92120Y300766D01*
X92228Y300733D01*
X92335Y300696D01*
X92441Y300656D01*
X92545Y300611D01*
X92648Y300563D01*
X92749Y300512D01*
X92848Y300457D01*
X92945Y300399D01*
X93040Y300337D01*
X93133Y300272D01*
X93223Y300204D01*
X93311Y300133D01*
X93397Y300058D01*
X93480Y299981D01*
X93560Y299901D01*
X93637Y299818D01*
X93712Y299732D01*
X93783Y299644D01*
X93851Y299554D01*
X93916Y299461D01*
X93978Y299366D01*
X94036Y299269D01*
X94091Y299170D01*
X94142Y299069D01*
X94190Y298966D01*
X94235Y298862D01*
X94275Y298756D01*
X94312Y298649D01*
X94345Y298541D01*
X94375Y298431D01*
X94400Y298321D01*
X94422Y298210D01*
X94439Y298098D01*
X94453Y297985D01*
X94463Y297872D01*
X94469Y297759D01*
X94471Y297646D01*
X94471Y292454D01*
X94472Y292454D02*
X94470Y292341D01*
X94464Y292228D01*
X94454Y292115D01*
X94440Y292002D01*
X94423Y291890D01*
X94401Y291779D01*
X94376Y291669D01*
X94346Y291559D01*
X94313Y291451D01*
X94276Y291344D01*
X94236Y291238D01*
X94191Y291134D01*
X94143Y291031D01*
X94092Y290930D01*
X94037Y290831D01*
X93979Y290734D01*
X93917Y290639D01*
X93852Y290546D01*
X93784Y290456D01*
X93713Y290368D01*
X93638Y290282D01*
X93561Y290199D01*
X93481Y290119D01*
X93398Y290042D01*
X93312Y289967D01*
X93224Y289896D01*
X93134Y289828D01*
X93041Y289763D01*
X92946Y289701D01*
X92849Y289643D01*
X92750Y289588D01*
X92649Y289537D01*
X92546Y289489D01*
X92442Y289444D01*
X92336Y289404D01*
X92229Y289367D01*
X92121Y289334D01*
X92011Y289304D01*
X91901Y289279D01*
X91790Y289257D01*
X91678Y289240D01*
X91565Y289226D01*
X91452Y289216D01*
X91339Y289210D01*
X91226Y289208D01*
X91225Y289208D02*
X87980Y289208D01*
X246208Y746408D02*
X250103Y758092D01*
X253997Y746408D01*
X253024Y749329D02*
X247182Y749329D01*
X258668Y746408D02*
X258668Y758092D01*
X265159Y746408D01*
X265159Y758092D01*
X272963Y758092D02*
X272963Y746408D01*
X269717Y758092D02*
X276208Y758092D01*
X283955Y758092D02*
X284062Y758090D01*
X284168Y758084D01*
X284274Y758074D01*
X284380Y758061D01*
X284486Y758043D01*
X284590Y758022D01*
X284694Y757997D01*
X284797Y757968D01*
X284898Y757936D01*
X284998Y757899D01*
X285097Y757859D01*
X285195Y757816D01*
X285291Y757769D01*
X285385Y757718D01*
X285477Y757664D01*
X285567Y757607D01*
X285655Y757547D01*
X285740Y757483D01*
X285823Y757416D01*
X285904Y757346D01*
X285982Y757274D01*
X286058Y757198D01*
X286130Y757120D01*
X286200Y757039D01*
X286267Y756956D01*
X286331Y756871D01*
X286391Y756783D01*
X286448Y756693D01*
X286502Y756601D01*
X286553Y756507D01*
X286600Y756411D01*
X286643Y756313D01*
X286683Y756214D01*
X286720Y756114D01*
X286752Y756013D01*
X286781Y755910D01*
X286806Y755806D01*
X286827Y755702D01*
X286845Y755596D01*
X286858Y755490D01*
X286868Y755384D01*
X286874Y755278D01*
X286876Y755171D01*
X283955Y758092D02*
X283834Y758090D01*
X283713Y758084D01*
X283593Y758074D01*
X283472Y758061D01*
X283353Y758043D01*
X283233Y758022D01*
X283115Y757997D01*
X282998Y757968D01*
X282881Y757935D01*
X282766Y757899D01*
X282652Y757858D01*
X282539Y757815D01*
X282427Y757767D01*
X282318Y757716D01*
X282210Y757661D01*
X282103Y757603D01*
X281999Y757542D01*
X281897Y757477D01*
X281797Y757409D01*
X281699Y757338D01*
X281603Y757264D01*
X281510Y757187D01*
X281420Y757106D01*
X281332Y757023D01*
X281247Y756937D01*
X281164Y756848D01*
X281085Y756757D01*
X281008Y756663D01*
X280935Y756567D01*
X280865Y756469D01*
X280798Y756368D01*
X280734Y756265D01*
X280674Y756160D01*
X280617Y756053D01*
X280563Y755945D01*
X280513Y755835D01*
X280467Y755723D01*
X280424Y755610D01*
X280385Y755495D01*
X285903Y752899D02*
X285982Y752976D01*
X286058Y753057D01*
X286131Y753140D01*
X286201Y753225D01*
X286268Y753313D01*
X286332Y753403D01*
X286392Y753495D01*
X286449Y753590D01*
X286503Y753686D01*
X286554Y753784D01*
X286601Y753884D01*
X286645Y753986D01*
X286685Y754089D01*
X286721Y754193D01*
X286753Y754299D01*
X286782Y754405D01*
X286807Y754513D01*
X286829Y754621D01*
X286846Y754731D01*
X286860Y754840D01*
X286869Y754950D01*
X286875Y755061D01*
X286877Y755171D01*
X285902Y752899D02*
X280385Y746408D01*
X286876Y746408D01*
X224703Y300892D02*
X220808Y289208D01*
X228597Y289208D02*
X224703Y300892D01*
X227624Y292129D02*
X221782Y292129D01*
X233268Y289208D02*
X233268Y300892D01*
X239759Y289208D01*
X239759Y300892D01*
X247563Y300892D02*
X247563Y289208D01*
X244317Y300892D02*
X250808Y300892D01*
X258555Y300892D02*
X258662Y300890D01*
X258768Y300884D01*
X258874Y300874D01*
X258980Y300861D01*
X259086Y300843D01*
X259190Y300822D01*
X259294Y300797D01*
X259397Y300768D01*
X259498Y300736D01*
X259598Y300699D01*
X259697Y300659D01*
X259795Y300616D01*
X259891Y300569D01*
X259985Y300518D01*
X260077Y300464D01*
X260167Y300407D01*
X260255Y300347D01*
X260340Y300283D01*
X260423Y300216D01*
X260504Y300146D01*
X260582Y300074D01*
X260658Y299998D01*
X260730Y299920D01*
X260800Y299839D01*
X260867Y299756D01*
X260931Y299671D01*
X260991Y299583D01*
X261048Y299493D01*
X261102Y299401D01*
X261153Y299307D01*
X261200Y299211D01*
X261243Y299113D01*
X261283Y299014D01*
X261320Y298914D01*
X261352Y298813D01*
X261381Y298710D01*
X261406Y298606D01*
X261427Y298502D01*
X261445Y298396D01*
X261458Y298290D01*
X261468Y298184D01*
X261474Y298078D01*
X261476Y297971D01*
X258555Y300892D02*
X258434Y300890D01*
X258313Y300884D01*
X258193Y300874D01*
X258072Y300861D01*
X257953Y300843D01*
X257833Y300822D01*
X257715Y300797D01*
X257598Y300768D01*
X257481Y300735D01*
X257366Y300699D01*
X257252Y300658D01*
X257139Y300615D01*
X257027Y300567D01*
X256918Y300516D01*
X256810Y300461D01*
X256703Y300403D01*
X256599Y300342D01*
X256497Y300277D01*
X256397Y300209D01*
X256299Y300138D01*
X256203Y300064D01*
X256110Y299987D01*
X256020Y299906D01*
X255932Y299823D01*
X255847Y299737D01*
X255764Y299648D01*
X255685Y299557D01*
X255608Y299463D01*
X255535Y299367D01*
X255465Y299269D01*
X255398Y299168D01*
X255334Y299065D01*
X255274Y298960D01*
X255217Y298853D01*
X255163Y298745D01*
X255113Y298635D01*
X255067Y298523D01*
X255024Y298410D01*
X254985Y298295D01*
X260503Y295699D02*
X260582Y295776D01*
X260658Y295857D01*
X260731Y295940D01*
X260801Y296025D01*
X260868Y296113D01*
X260932Y296203D01*
X260992Y296295D01*
X261049Y296390D01*
X261103Y296486D01*
X261154Y296584D01*
X261201Y296684D01*
X261245Y296786D01*
X261285Y296889D01*
X261321Y296993D01*
X261353Y297099D01*
X261382Y297205D01*
X261407Y297313D01*
X261429Y297421D01*
X261446Y297531D01*
X261460Y297640D01*
X261469Y297750D01*
X261475Y297861D01*
X261477Y297971D01*
X260502Y295699D02*
X254985Y289208D01*
X261476Y289208D01*
X271340Y295699D02*
X273287Y295699D01*
X273287Y289208D01*
X269392Y289208D01*
X269293Y289210D01*
X269193Y289216D01*
X269094Y289225D01*
X268996Y289238D01*
X268898Y289255D01*
X268800Y289276D01*
X268704Y289301D01*
X268609Y289329D01*
X268515Y289361D01*
X268422Y289396D01*
X268330Y289435D01*
X268240Y289478D01*
X268152Y289523D01*
X268065Y289573D01*
X267981Y289625D01*
X267898Y289681D01*
X267818Y289739D01*
X267740Y289801D01*
X267665Y289866D01*
X267592Y289934D01*
X267522Y290004D01*
X267454Y290077D01*
X267389Y290152D01*
X267327Y290230D01*
X267269Y290310D01*
X267213Y290393D01*
X267161Y290477D01*
X267111Y290564D01*
X267066Y290652D01*
X267023Y290742D01*
X266984Y290834D01*
X266949Y290927D01*
X266917Y291021D01*
X266889Y291116D01*
X266864Y291212D01*
X266843Y291310D01*
X266826Y291408D01*
X266813Y291506D01*
X266804Y291605D01*
X266798Y291705D01*
X266796Y291804D01*
X266796Y298296D01*
X266798Y298395D01*
X266804Y298495D01*
X266813Y298594D01*
X266826Y298692D01*
X266843Y298790D01*
X266864Y298888D01*
X266889Y298984D01*
X266917Y299079D01*
X266949Y299173D01*
X266984Y299266D01*
X267023Y299358D01*
X267066Y299448D01*
X267111Y299536D01*
X267161Y299623D01*
X267213Y299707D01*
X267269Y299790D01*
X267327Y299870D01*
X267389Y299948D01*
X267454Y300023D01*
X267522Y300096D01*
X267592Y300166D01*
X267665Y300234D01*
X267740Y300299D01*
X267818Y300361D01*
X267898Y300419D01*
X267981Y300475D01*
X268065Y300527D01*
X268152Y300577D01*
X268240Y300622D01*
X268330Y300665D01*
X268422Y300704D01*
X268514Y300739D01*
X268609Y300771D01*
X268704Y300799D01*
X268800Y300824D01*
X268898Y300845D01*
X268996Y300862D01*
X269094Y300875D01*
X269193Y300884D01*
X269293Y300890D01*
X269392Y300892D01*
X273287Y300892D01*
X278988Y300892D02*
X278988Y289208D01*
X285479Y289208D02*
X278988Y300892D01*
X285479Y300892D02*
X285479Y289208D01*
X291180Y289208D02*
X291180Y300892D01*
X294425Y300892D01*
X294538Y300890D01*
X294651Y300884D01*
X294764Y300874D01*
X294877Y300860D01*
X294989Y300843D01*
X295100Y300821D01*
X295210Y300796D01*
X295320Y300766D01*
X295428Y300733D01*
X295535Y300696D01*
X295641Y300656D01*
X295745Y300611D01*
X295848Y300563D01*
X295949Y300512D01*
X296048Y300457D01*
X296145Y300399D01*
X296240Y300337D01*
X296333Y300272D01*
X296423Y300204D01*
X296511Y300133D01*
X296597Y300058D01*
X296680Y299981D01*
X296760Y299901D01*
X296837Y299818D01*
X296912Y299732D01*
X296983Y299644D01*
X297051Y299554D01*
X297116Y299461D01*
X297178Y299366D01*
X297236Y299269D01*
X297291Y299170D01*
X297342Y299069D01*
X297390Y298966D01*
X297435Y298862D01*
X297475Y298756D01*
X297512Y298649D01*
X297545Y298541D01*
X297575Y298431D01*
X297600Y298321D01*
X297622Y298210D01*
X297639Y298098D01*
X297653Y297985D01*
X297663Y297872D01*
X297669Y297759D01*
X297671Y297646D01*
X297671Y292454D01*
X297672Y292454D02*
X297670Y292341D01*
X297664Y292228D01*
X297654Y292115D01*
X297640Y292002D01*
X297623Y291890D01*
X297601Y291779D01*
X297576Y291669D01*
X297546Y291559D01*
X297513Y291451D01*
X297476Y291344D01*
X297436Y291238D01*
X297391Y291134D01*
X297343Y291031D01*
X297292Y290930D01*
X297237Y290831D01*
X297179Y290734D01*
X297117Y290639D01*
X297052Y290546D01*
X296984Y290456D01*
X296913Y290368D01*
X296838Y290282D01*
X296761Y290199D01*
X296681Y290119D01*
X296598Y290042D01*
X296512Y289967D01*
X296424Y289896D01*
X296334Y289828D01*
X296241Y289763D01*
X296146Y289701D01*
X296049Y289643D01*
X295950Y289588D01*
X295849Y289537D01*
X295746Y289489D01*
X295642Y289444D01*
X295536Y289404D01*
X295429Y289367D01*
X295321Y289334D01*
X295211Y289304D01*
X295101Y289279D01*
X294990Y289257D01*
X294878Y289240D01*
X294765Y289226D01*
X294652Y289216D01*
X294539Y289210D01*
X294426Y289208D01*
X294425Y289208D02*
X291180Y289208D01*
D13*
X96520Y261620D02*
X93980Y261620D01*
X93980Y259080D01*
X109220Y259080D02*
X109220Y261620D01*
X106680Y261620D01*
X109220Y248920D02*
X109220Y246380D01*
X106680Y246380D01*
X96520Y246380D02*
X93980Y246380D01*
X93980Y248920D01*
D14*
X97155Y269875D02*
X100965Y269875D01*
X97155Y269875D02*
X97055Y269877D01*
X96956Y269883D01*
X96856Y269893D01*
X96758Y269906D01*
X96659Y269924D01*
X96562Y269945D01*
X96466Y269970D01*
X96370Y269999D01*
X96276Y270032D01*
X96183Y270068D01*
X96092Y270108D01*
X96002Y270152D01*
X95914Y270199D01*
X95828Y270249D01*
X95744Y270303D01*
X95662Y270360D01*
X95583Y270420D01*
X95505Y270484D01*
X95431Y270550D01*
X95359Y270619D01*
X95290Y270691D01*
X95224Y270765D01*
X95160Y270843D01*
X95100Y270922D01*
X95043Y271004D01*
X94989Y271088D01*
X94939Y271174D01*
X94892Y271262D01*
X94848Y271352D01*
X94808Y271443D01*
X94772Y271536D01*
X94739Y271630D01*
X94710Y271726D01*
X94685Y271822D01*
X94664Y271919D01*
X94646Y272018D01*
X94633Y272116D01*
X94623Y272216D01*
X94617Y272315D01*
X94615Y272415D01*
X94615Y273050D01*
X94617Y273161D01*
X94623Y273271D01*
X94632Y273382D01*
X94646Y273492D01*
X94663Y273601D01*
X94684Y273710D01*
X94709Y273818D01*
X94738Y273925D01*
X94770Y274031D01*
X94806Y274136D01*
X94846Y274239D01*
X94889Y274341D01*
X94936Y274442D01*
X94987Y274541D01*
X95040Y274638D01*
X95097Y274732D01*
X95158Y274825D01*
X95221Y274916D01*
X95288Y275005D01*
X95358Y275091D01*
X95431Y275174D01*
X95506Y275256D01*
X95584Y275334D01*
X95666Y275409D01*
X95749Y275482D01*
X95835Y275552D01*
X95924Y275619D01*
X96015Y275682D01*
X96108Y275743D01*
X96203Y275800D01*
X96299Y275853D01*
X96398Y275904D01*
X96499Y275951D01*
X96601Y275994D01*
X96704Y276034D01*
X96809Y276070D01*
X96915Y276102D01*
X97022Y276131D01*
X97130Y276156D01*
X97239Y276177D01*
X97348Y276194D01*
X97458Y276208D01*
X97569Y276217D01*
X97679Y276223D01*
X97790Y276225D01*
X97901Y276223D01*
X98011Y276217D01*
X98122Y276208D01*
X98232Y276194D01*
X98341Y276177D01*
X98450Y276156D01*
X98558Y276131D01*
X98665Y276102D01*
X98771Y276070D01*
X98876Y276034D01*
X98979Y275994D01*
X99081Y275951D01*
X99182Y275904D01*
X99281Y275853D01*
X99378Y275800D01*
X99472Y275743D01*
X99565Y275682D01*
X99656Y275619D01*
X99745Y275552D01*
X99831Y275482D01*
X99914Y275409D01*
X99996Y275334D01*
X100074Y275256D01*
X100149Y275174D01*
X100222Y275091D01*
X100292Y275005D01*
X100359Y274916D01*
X100422Y274825D01*
X100483Y274732D01*
X100540Y274638D01*
X100593Y274541D01*
X100644Y274442D01*
X100691Y274341D01*
X100734Y274239D01*
X100774Y274136D01*
X100810Y274031D01*
X100842Y273925D01*
X100871Y273818D01*
X100896Y273710D01*
X100917Y273601D01*
X100934Y273492D01*
X100948Y273382D01*
X100957Y273271D01*
X100963Y273161D01*
X100965Y273050D01*
X100965Y269875D01*
X100963Y269735D01*
X100957Y269595D01*
X100948Y269455D01*
X100934Y269316D01*
X100917Y269177D01*
X100896Y269039D01*
X100871Y268901D01*
X100842Y268764D01*
X100810Y268628D01*
X100773Y268493D01*
X100733Y268359D01*
X100690Y268226D01*
X100642Y268094D01*
X100592Y267963D01*
X100537Y267834D01*
X100479Y267707D01*
X100418Y267581D01*
X100353Y267457D01*
X100284Y267335D01*
X100213Y267215D01*
X100138Y267097D01*
X100060Y266980D01*
X99978Y266866D01*
X99894Y266755D01*
X99806Y266646D01*
X99716Y266539D01*
X99622Y266434D01*
X99526Y266333D01*
X99427Y266234D01*
X99326Y266138D01*
X99221Y266044D01*
X99114Y265954D01*
X99005Y265866D01*
X98894Y265782D01*
X98780Y265700D01*
X98663Y265622D01*
X98545Y265547D01*
X98425Y265476D01*
X98303Y265407D01*
X98179Y265342D01*
X98053Y265281D01*
X97926Y265223D01*
X97797Y265168D01*
X97666Y265118D01*
X97534Y265070D01*
X97401Y265027D01*
X97267Y264987D01*
X97132Y264950D01*
X96996Y264918D01*
X96859Y264889D01*
X96721Y264864D01*
X96583Y264843D01*
X96444Y264826D01*
X96305Y264812D01*
X96165Y264803D01*
X96025Y264797D01*
X95885Y264795D01*
X109220Y264795D02*
X105410Y276225D01*
X113030Y276225D02*
X109220Y264795D01*
D13*
X132080Y261620D02*
X134620Y261620D01*
X132080Y261620D02*
X132080Y259080D01*
X147320Y259080D02*
X147320Y261620D01*
X144780Y261620D01*
X147320Y248920D02*
X147320Y246380D01*
X144780Y246380D01*
X134620Y246380D02*
X132080Y246380D01*
X132080Y248920D01*
D14*
X137160Y271145D02*
X139065Y271145D01*
X139065Y264795D01*
X135255Y264795D01*
X135155Y264797D01*
X135056Y264803D01*
X134956Y264813D01*
X134858Y264826D01*
X134759Y264844D01*
X134662Y264865D01*
X134566Y264890D01*
X134470Y264919D01*
X134376Y264952D01*
X134283Y264988D01*
X134192Y265028D01*
X134102Y265072D01*
X134014Y265119D01*
X133928Y265169D01*
X133844Y265223D01*
X133762Y265280D01*
X133683Y265340D01*
X133605Y265404D01*
X133531Y265470D01*
X133459Y265539D01*
X133390Y265611D01*
X133324Y265685D01*
X133260Y265763D01*
X133200Y265842D01*
X133143Y265924D01*
X133089Y266008D01*
X133039Y266094D01*
X132992Y266182D01*
X132948Y266272D01*
X132908Y266363D01*
X132872Y266456D01*
X132839Y266550D01*
X132810Y266646D01*
X132785Y266742D01*
X132764Y266839D01*
X132746Y266938D01*
X132733Y267036D01*
X132723Y267136D01*
X132717Y267235D01*
X132715Y267335D01*
X132715Y273685D01*
X132717Y273785D01*
X132723Y273884D01*
X132733Y273984D01*
X132746Y274082D01*
X132764Y274181D01*
X132785Y274278D01*
X132810Y274374D01*
X132839Y274470D01*
X132872Y274564D01*
X132908Y274657D01*
X132948Y274748D01*
X132992Y274838D01*
X133039Y274926D01*
X133089Y275012D01*
X133143Y275096D01*
X133200Y275178D01*
X133260Y275257D01*
X133324Y275335D01*
X133390Y275409D01*
X133459Y275481D01*
X133531Y275550D01*
X133605Y275616D01*
X133683Y275680D01*
X133762Y275740D01*
X133844Y275797D01*
X133928Y275851D01*
X134014Y275901D01*
X134102Y275948D01*
X134192Y275992D01*
X134283Y276032D01*
X134376Y276068D01*
X134470Y276101D01*
X134566Y276130D01*
X134662Y276155D01*
X134759Y276176D01*
X134858Y276194D01*
X134956Y276207D01*
X135056Y276217D01*
X135155Y276223D01*
X135255Y276225D01*
X139065Y276225D01*
X144907Y276225D02*
X144907Y264795D01*
X151257Y264795D02*
X144907Y276225D01*
X151257Y276225D02*
X151257Y264795D01*
X157099Y264795D02*
X157099Y276225D01*
X160274Y276225D01*
X160385Y276223D01*
X160495Y276217D01*
X160606Y276208D01*
X160716Y276194D01*
X160825Y276177D01*
X160934Y276156D01*
X161042Y276131D01*
X161149Y276102D01*
X161255Y276070D01*
X161360Y276034D01*
X161463Y275994D01*
X161565Y275951D01*
X161666Y275904D01*
X161765Y275853D01*
X161862Y275800D01*
X161956Y275743D01*
X162049Y275682D01*
X162140Y275619D01*
X162229Y275552D01*
X162315Y275482D01*
X162398Y275409D01*
X162480Y275334D01*
X162558Y275256D01*
X162633Y275174D01*
X162706Y275091D01*
X162776Y275005D01*
X162843Y274916D01*
X162906Y274825D01*
X162967Y274732D01*
X163024Y274638D01*
X163077Y274541D01*
X163128Y274442D01*
X163175Y274341D01*
X163218Y274239D01*
X163258Y274136D01*
X163294Y274031D01*
X163326Y273925D01*
X163355Y273818D01*
X163380Y273710D01*
X163401Y273601D01*
X163418Y273492D01*
X163432Y273382D01*
X163441Y273271D01*
X163447Y273161D01*
X163449Y273050D01*
X163449Y267970D01*
X163447Y267859D01*
X163441Y267749D01*
X163432Y267638D01*
X163418Y267528D01*
X163401Y267419D01*
X163380Y267310D01*
X163355Y267202D01*
X163326Y267095D01*
X163294Y266989D01*
X163258Y266884D01*
X163218Y266781D01*
X163175Y266679D01*
X163128Y266578D01*
X163077Y266479D01*
X163024Y266382D01*
X162967Y266288D01*
X162906Y266195D01*
X162843Y266104D01*
X162776Y266015D01*
X162706Y265929D01*
X162633Y265846D01*
X162558Y265764D01*
X162480Y265686D01*
X162398Y265611D01*
X162315Y265538D01*
X162229Y265468D01*
X162140Y265401D01*
X162049Y265338D01*
X161956Y265277D01*
X161861Y265220D01*
X161765Y265167D01*
X161666Y265116D01*
X161565Y265069D01*
X161463Y265026D01*
X161360Y264986D01*
X161255Y264950D01*
X161149Y264918D01*
X161042Y264889D01*
X160934Y264864D01*
X160825Y264843D01*
X160716Y264826D01*
X160606Y264812D01*
X160495Y264803D01*
X160385Y264797D01*
X160274Y264795D01*
X157099Y264795D01*
D13*
X274320Y400050D02*
X288290Y400050D01*
X219710Y323850D02*
X219710Y311150D01*
X233680Y311150D01*
X288290Y387350D02*
X288290Y400050D01*
X284480Y396240D02*
X274320Y396240D01*
X223520Y323850D02*
X223520Y314960D01*
X233680Y314960D01*
X284480Y387350D02*
X284480Y396240D01*
X233680Y396240D02*
X233680Y400050D01*
X233680Y396240D02*
X223520Y396240D01*
X219710Y400050D02*
X233680Y400050D01*
X223520Y387350D02*
X219710Y387350D01*
X223520Y387350D02*
X223520Y396240D01*
X219710Y400050D02*
X219710Y387350D01*
X219710Y323850D02*
X223520Y323850D01*
X223520Y387350D01*
X219710Y387350D02*
X219710Y323850D01*
X284480Y323850D02*
X288290Y323850D01*
X288290Y311150D01*
X284480Y314960D02*
X284480Y323850D01*
X284480Y387350D02*
X288290Y387350D01*
X288290Y323850D01*
X284480Y323850D02*
X284480Y387350D01*
X274320Y396240D02*
X274320Y400050D01*
X274320Y396240D02*
X233680Y396240D01*
X233680Y400050D02*
X274320Y400050D01*
X274320Y314960D02*
X274320Y311150D01*
X288290Y311150D01*
X284480Y314960D02*
X274320Y314960D01*
X233680Y314960D02*
X233680Y311150D01*
X274320Y311150D01*
X274320Y314960D02*
X233680Y314960D01*
X254000Y325120D02*
X254742Y325129D01*
X255484Y325156D01*
X256225Y325201D01*
X256964Y325265D01*
X257702Y325346D01*
X258438Y325445D01*
X259171Y325562D01*
X259901Y325697D01*
X260627Y325849D01*
X261350Y326019D01*
X262068Y326207D01*
X262781Y326412D01*
X263489Y326635D01*
X264192Y326874D01*
X264888Y327131D01*
X265578Y327405D01*
X266262Y327695D01*
X266937Y328002D01*
X267606Y328325D01*
X268266Y328665D01*
X268917Y329020D01*
X269560Y329391D01*
X270194Y329778D01*
X270818Y330180D01*
X271432Y330597D01*
X272036Y331029D01*
X272629Y331475D01*
X273211Y331936D01*
X273781Y332411D01*
X274340Y332899D01*
X274887Y333401D01*
X275421Y333917D01*
X275943Y334445D01*
X276451Y334985D01*
X276947Y335538D01*
X277428Y336103D01*
X277896Y336679D01*
X278350Y337267D01*
X278789Y337865D01*
X279214Y338474D01*
X279623Y339093D01*
X280018Y339722D01*
X280396Y340360D01*
X280760Y341007D01*
X281107Y341663D01*
X281438Y342327D01*
X281754Y343000D01*
X282052Y343679D01*
X282334Y344366D01*
X282599Y345059D01*
X282847Y345759D01*
X283079Y346464D01*
X283292Y347175D01*
X283489Y347891D01*
X283668Y348611D01*
X283829Y349335D01*
X283973Y350064D01*
X284099Y350795D01*
X284207Y351530D01*
X284297Y352266D01*
X284369Y353005D01*
X284424Y353745D01*
X284460Y354487D01*
X284478Y355229D01*
X284478Y355971D01*
X284460Y356713D01*
X284424Y357455D01*
X284369Y358195D01*
X284297Y358934D01*
X284207Y359670D01*
X284099Y360405D01*
X283973Y361136D01*
X283829Y361865D01*
X283668Y362589D01*
X283489Y363309D01*
X283292Y364025D01*
X283079Y364736D01*
X282847Y365441D01*
X282599Y366141D01*
X282334Y366834D01*
X282052Y367521D01*
X281754Y368200D01*
X281438Y368873D01*
X281107Y369537D01*
X280760Y370193D01*
X280396Y370840D01*
X280018Y371478D01*
X279623Y372107D01*
X279214Y372726D01*
X278789Y373335D01*
X278350Y373933D01*
X277896Y374521D01*
X277428Y375097D01*
X276947Y375662D01*
X276451Y376215D01*
X275943Y376755D01*
X275421Y377283D01*
X274887Y377799D01*
X274340Y378301D01*
X273781Y378789D01*
X273211Y379264D01*
X272629Y379725D01*
X272036Y380171D01*
X271432Y380603D01*
X270818Y381020D01*
X270194Y381422D01*
X269560Y381809D01*
X268917Y382180D01*
X268266Y382535D01*
X267606Y382875D01*
X266937Y383198D01*
X266262Y383505D01*
X265578Y383795D01*
X264888Y384069D01*
X264192Y384326D01*
X263489Y384565D01*
X262781Y384788D01*
X262068Y384993D01*
X261350Y385181D01*
X260627Y385351D01*
X259901Y385503D01*
X259171Y385638D01*
X258438Y385755D01*
X257702Y385854D01*
X256964Y385935D01*
X256225Y385999D01*
X255484Y386044D01*
X254742Y386071D01*
X254000Y386080D01*
X223520Y355600D02*
X223529Y354858D01*
X223556Y354117D01*
X223601Y353377D01*
X223664Y352638D01*
X223745Y351900D01*
X223844Y351165D01*
X223961Y350433D01*
X224096Y349703D01*
X224248Y348978D01*
X224418Y348256D01*
X224606Y347538D01*
X224810Y346825D01*
X225033Y346117D01*
X225272Y345415D01*
X225528Y344719D01*
X225801Y344030D01*
X226091Y343347D01*
X226398Y342672D01*
X226720Y342004D01*
X227059Y341344D01*
X227414Y340693D01*
X227785Y340050D01*
X228171Y339417D01*
X228572Y338793D01*
X228989Y338180D01*
X229420Y337576D01*
X229866Y336984D01*
X230326Y336402D01*
X230800Y335831D01*
X231288Y335273D01*
X231789Y334726D01*
X232304Y334192D01*
X232831Y333670D01*
X233371Y333162D01*
X233923Y332666D01*
X234487Y332185D01*
X223520Y355600D02*
X223529Y356332D01*
X223555Y357064D01*
X223599Y357794D01*
X223661Y358524D01*
X223739Y359251D01*
X223836Y359977D01*
X223950Y360700D01*
X224081Y361420D01*
X224229Y362136D01*
X224395Y362849D01*
X224577Y363558D01*
X224777Y364262D01*
X224993Y364962D01*
X225226Y365655D01*
X225476Y366343D01*
X225742Y367025D01*
X226025Y367700D01*
X226323Y368368D01*
X226638Y369029D01*
X226968Y369682D01*
X227314Y370327D01*
X227676Y370964D01*
X228052Y371592D01*
X228443Y372210D01*
X228850Y372819D01*
X229270Y373418D01*
X229705Y374006D01*
X230154Y374584D01*
X230617Y375152D01*
X231093Y375707D01*
X231583Y376252D01*
X232085Y376784D01*
X232600Y377304D01*
X233127Y377812D01*
X233666Y378306D01*
X234218Y378788D01*
X234780Y379256D01*
X254000Y381000D02*
X254619Y380992D01*
X255237Y380970D01*
X255854Y380932D01*
X256470Y380880D01*
X257085Y380812D01*
X257698Y380729D01*
X258309Y380632D01*
X258917Y380519D01*
X259523Y380392D01*
X260125Y380250D01*
X260723Y380094D01*
X261318Y379923D01*
X261908Y379738D01*
X262493Y379538D01*
X263074Y379324D01*
X263649Y379096D01*
X264218Y378854D01*
X264781Y378598D01*
X265338Y378329D01*
X265888Y378046D01*
X266431Y377750D01*
X266967Y377441D01*
X267495Y377119D01*
X268015Y376784D01*
X268527Y376436D01*
X269030Y376076D01*
X269524Y375704D01*
X270009Y375320D01*
X270484Y374924D01*
X270950Y374517D01*
X271406Y374099D01*
X271851Y373670D01*
X272286Y373229D01*
X272709Y372779D01*
X273122Y372318D01*
X273524Y371848D01*
X273913Y371367D01*
X274292Y370878D01*
X274658Y370379D01*
X275011Y369872D01*
X275353Y369356D01*
X275681Y368832D01*
X275997Y368300D01*
X276300Y367761D01*
X276589Y367214D01*
X276865Y366660D01*
X277128Y366100D01*
X277377Y365534D01*
X277612Y364962D01*
X277833Y364384D01*
X278040Y363801D01*
X278232Y363213D01*
X278410Y362621D01*
X278574Y362025D01*
X278723Y361424D01*
X278858Y360820D01*
X278977Y360214D01*
X279082Y359604D01*
X279172Y358992D01*
X279248Y358378D01*
X279308Y357762D01*
X279353Y357145D01*
X279383Y356528D01*
X279398Y355909D01*
X279398Y355291D01*
X279383Y354672D01*
X279353Y354055D01*
X279308Y353438D01*
X279248Y352822D01*
X279172Y352208D01*
X279082Y351596D01*
X278977Y350986D01*
X278858Y350380D01*
X278723Y349776D01*
X278574Y349175D01*
X278410Y348579D01*
X278232Y347987D01*
X278040Y347399D01*
X277833Y346816D01*
X277612Y346238D01*
X277377Y345666D01*
X277128Y345100D01*
X276865Y344540D01*
X276589Y343986D01*
X276300Y343439D01*
X275997Y342900D01*
X275681Y342368D01*
X275353Y341844D01*
X275011Y341328D01*
X274658Y340821D01*
X274292Y340322D01*
X273913Y339833D01*
X273524Y339352D01*
X273122Y338882D01*
X272709Y338421D01*
X272286Y337971D01*
X271851Y337530D01*
X271406Y337101D01*
X270950Y336683D01*
X270484Y336276D01*
X270009Y335880D01*
X269524Y335496D01*
X269030Y335124D01*
X268527Y334764D01*
X268015Y334416D01*
X267495Y334081D01*
X266967Y333759D01*
X266431Y333450D01*
X265888Y333154D01*
X265338Y332871D01*
X264781Y332602D01*
X264218Y332346D01*
X263649Y332104D01*
X263074Y331876D01*
X262493Y331662D01*
X261908Y331462D01*
X261318Y331277D01*
X260723Y331106D01*
X260125Y330950D01*
X259523Y330808D01*
X258917Y330681D01*
X258309Y330568D01*
X257698Y330471D01*
X257085Y330388D01*
X256470Y330320D01*
X255854Y330268D01*
X255237Y330230D01*
X254619Y330208D01*
X254000Y330200D01*
X237365Y336405D02*
X236900Y336818D01*
X236446Y337242D01*
X236002Y337678D01*
X235568Y338123D01*
X235146Y338580D01*
X234735Y339046D01*
X234336Y339523D01*
X233948Y340009D01*
X233573Y340504D01*
X233209Y341009D01*
X232858Y341522D01*
X232520Y342044D01*
X232195Y342574D01*
X231882Y343111D01*
X231583Y343656D01*
X231298Y344208D01*
X231026Y344768D01*
X230767Y345333D01*
X230523Y345905D01*
X230293Y346482D01*
X230077Y347065D01*
X229875Y347653D01*
X229688Y348246D01*
X229515Y348843D01*
X229357Y349445D01*
X229214Y350050D01*
X229085Y350658D01*
X228972Y351269D01*
X228873Y351883D01*
X228790Y352499D01*
X228722Y353117D01*
X228668Y353737D01*
X228630Y354357D01*
X228608Y354979D01*
X228600Y355600D01*
X228607Y356208D01*
X228629Y356816D01*
X228666Y357424D01*
X228716Y358030D01*
X228782Y358634D01*
X228862Y359237D01*
X228956Y359838D01*
X229065Y360437D01*
X229188Y361033D01*
X229325Y361625D01*
X229476Y362214D01*
X229642Y362800D01*
X229821Y363381D01*
X230014Y363958D01*
X230221Y364530D01*
X230442Y365097D01*
X230676Y365658D01*
X230924Y366214D01*
X231185Y366763D01*
X231458Y367306D01*
X231745Y367843D01*
X232045Y368372D01*
X232357Y368894D01*
X232682Y369409D01*
X233018Y369915D01*
X233367Y370414D01*
X233728Y370904D01*
X234100Y371385D01*
X234484Y371857D01*
X234879Y372319D01*
X235285Y372772D01*
X235701Y373216D01*
X236128Y373649D01*
X236566Y374072D01*
X237013Y374484D01*
X237470Y374885D01*
D14*
X269875Y389890D02*
X281305Y389890D01*
X269875Y386715D02*
X269875Y393065D01*
X281305Y327025D02*
X281305Y321945D01*
X269875Y321945D01*
X269875Y327025D01*
X274955Y325755D02*
X274955Y321945D01*
X304165Y385826D02*
X304163Y385926D01*
X304157Y386025D01*
X304147Y386125D01*
X304134Y386223D01*
X304116Y386322D01*
X304095Y386419D01*
X304070Y386515D01*
X304041Y386611D01*
X304008Y386705D01*
X303972Y386798D01*
X303932Y386889D01*
X303888Y386979D01*
X303841Y387067D01*
X303791Y387153D01*
X303737Y387237D01*
X303680Y387319D01*
X303620Y387398D01*
X303556Y387476D01*
X303490Y387550D01*
X303421Y387622D01*
X303349Y387691D01*
X303275Y387757D01*
X303197Y387821D01*
X303118Y387881D01*
X303036Y387938D01*
X302952Y387992D01*
X302866Y388042D01*
X302778Y388089D01*
X302688Y388133D01*
X302597Y388173D01*
X302504Y388209D01*
X302410Y388242D01*
X302314Y388271D01*
X302218Y388296D01*
X302121Y388317D01*
X302022Y388335D01*
X301924Y388348D01*
X301824Y388358D01*
X301725Y388364D01*
X301625Y388366D01*
X304165Y385826D02*
X304163Y385685D01*
X304158Y385544D01*
X304148Y385403D01*
X304135Y385262D01*
X304119Y385122D01*
X304098Y384982D01*
X304074Y384843D01*
X304046Y384704D01*
X304015Y384567D01*
X303980Y384430D01*
X303942Y384294D01*
X303900Y384159D01*
X303854Y384026D01*
X303805Y383893D01*
X303752Y383762D01*
X303696Y383633D01*
X303637Y383504D01*
X303574Y383378D01*
X303508Y383253D01*
X303439Y383130D01*
X303366Y383009D01*
X303290Y382890D01*
X303211Y382772D01*
X303130Y382657D01*
X303045Y382545D01*
X302957Y382434D01*
X302866Y382326D01*
X302773Y382220D01*
X302676Y382117D01*
X302577Y382016D01*
X295275Y382334D02*
X295175Y382336D01*
X295076Y382342D01*
X294976Y382352D01*
X294878Y382365D01*
X294779Y382383D01*
X294682Y382404D01*
X294586Y382429D01*
X294490Y382458D01*
X294396Y382491D01*
X294303Y382527D01*
X294212Y382567D01*
X294122Y382611D01*
X294034Y382658D01*
X293948Y382708D01*
X293864Y382762D01*
X293782Y382819D01*
X293703Y382879D01*
X293625Y382943D01*
X293551Y383009D01*
X293479Y383078D01*
X293410Y383150D01*
X293344Y383224D01*
X293280Y383302D01*
X293220Y383381D01*
X293163Y383463D01*
X293109Y383547D01*
X293059Y383633D01*
X293012Y383721D01*
X292968Y383811D01*
X292928Y383902D01*
X292892Y383995D01*
X292859Y384089D01*
X292830Y384185D01*
X292805Y384281D01*
X292784Y384378D01*
X292766Y384477D01*
X292753Y384575D01*
X292743Y384675D01*
X292737Y384774D01*
X292735Y384874D01*
X292737Y385007D01*
X292742Y385140D01*
X292752Y385273D01*
X292765Y385406D01*
X292782Y385538D01*
X292802Y385670D01*
X292826Y385801D01*
X292854Y385931D01*
X292885Y386061D01*
X292920Y386189D01*
X292959Y386317D01*
X293001Y386443D01*
X293047Y386568D01*
X293096Y386692D01*
X293148Y386815D01*
X293204Y386936D01*
X293264Y387055D01*
X293326Y387173D01*
X293392Y387288D01*
X293461Y387402D01*
X293534Y387514D01*
X293609Y387624D01*
X293688Y387732D01*
X297498Y383603D02*
X297446Y383519D01*
X297391Y383436D01*
X297332Y383356D01*
X297271Y383278D01*
X297207Y383203D01*
X297139Y383130D01*
X297069Y383059D01*
X296997Y382992D01*
X296922Y382927D01*
X296844Y382865D01*
X296764Y382806D01*
X296682Y382750D01*
X296598Y382698D01*
X296512Y382649D01*
X296424Y382603D01*
X296334Y382560D01*
X296243Y382521D01*
X296150Y382486D01*
X296056Y382454D01*
X295961Y382426D01*
X295865Y382401D01*
X295768Y382381D01*
X295670Y382363D01*
X295572Y382350D01*
X295473Y382341D01*
X295374Y382335D01*
X295275Y382333D01*
X299402Y387096D02*
X299454Y387180D01*
X299509Y387263D01*
X299568Y387343D01*
X299629Y387421D01*
X299693Y387496D01*
X299761Y387569D01*
X299831Y387640D01*
X299903Y387707D01*
X299978Y387772D01*
X300056Y387834D01*
X300136Y387893D01*
X300218Y387949D01*
X300302Y388001D01*
X300388Y388050D01*
X300476Y388096D01*
X300566Y388139D01*
X300657Y388178D01*
X300750Y388213D01*
X300844Y388245D01*
X300939Y388273D01*
X301035Y388298D01*
X301132Y388318D01*
X301230Y388336D01*
X301328Y388349D01*
X301427Y388358D01*
X301526Y388364D01*
X301625Y388366D01*
X299403Y387096D02*
X297498Y383604D01*
X295275Y393065D02*
X292735Y396240D01*
X304165Y396240D01*
X304165Y393065D02*
X304165Y399415D01*
M02*
