G04 EAGLE Gerber RS-274X export*
G75*
%MOMM*%
%FSLAX34Y34*%
%LPD*%
%INSilkscreen Bottom*%
%IPPOS*%
%AMOC8*
5,1,8,0,0,1.08239X$1,22.5*%
G01*
%ADD10C,0.152400*%


D10*
X183479Y363982D02*
X183479Y380238D01*
X183479Y373013D02*
X174448Y373013D01*
X174448Y380238D02*
X174448Y363982D01*
X164378Y370304D02*
X160314Y370304D01*
X164378Y370304D02*
X164490Y370302D01*
X164601Y370296D01*
X164712Y370286D01*
X164823Y370273D01*
X164933Y370255D01*
X165042Y370233D01*
X165151Y370208D01*
X165259Y370179D01*
X165365Y370146D01*
X165471Y370109D01*
X165575Y370069D01*
X165677Y370025D01*
X165778Y369977D01*
X165877Y369926D01*
X165975Y369871D01*
X166070Y369813D01*
X166163Y369752D01*
X166254Y369687D01*
X166343Y369619D01*
X166429Y369548D01*
X166512Y369475D01*
X166593Y369398D01*
X166672Y369318D01*
X166747Y369236D01*
X166819Y369151D01*
X166889Y369064D01*
X166955Y368974D01*
X167018Y368882D01*
X167078Y368787D01*
X167134Y368691D01*
X167187Y368593D01*
X167236Y368493D01*
X167282Y368391D01*
X167324Y368288D01*
X167363Y368183D01*
X167398Y368077D01*
X167429Y367970D01*
X167456Y367862D01*
X167480Y367753D01*
X167499Y367643D01*
X167515Y367533D01*
X167527Y367422D01*
X167535Y367310D01*
X167539Y367199D01*
X167539Y367087D01*
X167535Y366976D01*
X167527Y366864D01*
X167515Y366753D01*
X167499Y366643D01*
X167480Y366533D01*
X167456Y366424D01*
X167429Y366316D01*
X167398Y366209D01*
X167363Y366103D01*
X167324Y365998D01*
X167282Y365895D01*
X167236Y365793D01*
X167187Y365693D01*
X167134Y365595D01*
X167078Y365499D01*
X167018Y365404D01*
X166955Y365312D01*
X166889Y365222D01*
X166819Y365135D01*
X166747Y365050D01*
X166672Y364968D01*
X166593Y364888D01*
X166512Y364811D01*
X166429Y364738D01*
X166343Y364667D01*
X166254Y364599D01*
X166163Y364534D01*
X166070Y364473D01*
X165975Y364415D01*
X165877Y364360D01*
X165778Y364309D01*
X165677Y364261D01*
X165575Y364217D01*
X165471Y364177D01*
X165365Y364140D01*
X165259Y364107D01*
X165151Y364078D01*
X165042Y364053D01*
X164933Y364031D01*
X164823Y364013D01*
X164712Y364000D01*
X164601Y363990D01*
X164490Y363984D01*
X164378Y363982D01*
X160314Y363982D01*
X160314Y372110D01*
X160316Y372211D01*
X160322Y372312D01*
X160331Y372413D01*
X160344Y372514D01*
X160361Y372614D01*
X160382Y372713D01*
X160406Y372811D01*
X160434Y372908D01*
X160466Y373005D01*
X160501Y373100D01*
X160540Y373193D01*
X160582Y373285D01*
X160628Y373376D01*
X160677Y373465D01*
X160729Y373551D01*
X160785Y373636D01*
X160843Y373719D01*
X160905Y373799D01*
X160970Y373877D01*
X161037Y373953D01*
X161107Y374026D01*
X161180Y374096D01*
X161256Y374163D01*
X161334Y374228D01*
X161414Y374290D01*
X161497Y374348D01*
X161582Y374404D01*
X161669Y374456D01*
X161757Y374505D01*
X161848Y374551D01*
X161940Y374593D01*
X162033Y374632D01*
X162128Y374667D01*
X162225Y374699D01*
X162322Y374727D01*
X162420Y374751D01*
X162519Y374772D01*
X162619Y374789D01*
X162720Y374802D01*
X162821Y374811D01*
X162922Y374817D01*
X163023Y374819D01*
X166636Y374819D01*
X152876Y374819D02*
X152876Y363982D01*
X152876Y374819D02*
X148361Y374819D01*
X148257Y374817D01*
X148154Y374811D01*
X148050Y374801D01*
X147947Y374787D01*
X147845Y374769D01*
X147744Y374748D01*
X147643Y374722D01*
X147544Y374693D01*
X147445Y374660D01*
X147348Y374623D01*
X147253Y374582D01*
X147159Y374538D01*
X147067Y374490D01*
X146977Y374439D01*
X146888Y374384D01*
X146802Y374326D01*
X146719Y374264D01*
X146637Y374200D01*
X146559Y374132D01*
X146483Y374062D01*
X146409Y373989D01*
X146339Y373912D01*
X146271Y373834D01*
X146207Y373752D01*
X146145Y373669D01*
X146087Y373583D01*
X146032Y373494D01*
X145981Y373404D01*
X145933Y373312D01*
X145889Y373218D01*
X145848Y373123D01*
X145811Y373026D01*
X145778Y372927D01*
X145749Y372828D01*
X145723Y372727D01*
X145702Y372626D01*
X145684Y372524D01*
X145670Y372421D01*
X145660Y372317D01*
X145654Y372214D01*
X145652Y372110D01*
X145651Y372110D02*
X145651Y363982D01*
X131657Y363982D02*
X131657Y380238D01*
X131657Y363982D02*
X136172Y363982D01*
X136273Y363984D01*
X136374Y363990D01*
X136475Y363999D01*
X136576Y364012D01*
X136676Y364029D01*
X136775Y364050D01*
X136873Y364074D01*
X136970Y364102D01*
X137067Y364134D01*
X137162Y364169D01*
X137255Y364208D01*
X137347Y364250D01*
X137438Y364296D01*
X137527Y364345D01*
X137613Y364397D01*
X137698Y364453D01*
X137781Y364511D01*
X137861Y364573D01*
X137939Y364638D01*
X138015Y364705D01*
X138088Y364775D01*
X138158Y364848D01*
X138225Y364924D01*
X138290Y365002D01*
X138352Y365082D01*
X138410Y365165D01*
X138466Y365250D01*
X138518Y365337D01*
X138567Y365425D01*
X138613Y365516D01*
X138655Y365608D01*
X138694Y365701D01*
X138729Y365796D01*
X138761Y365893D01*
X138789Y365990D01*
X138813Y366088D01*
X138834Y366187D01*
X138851Y366287D01*
X138864Y366388D01*
X138873Y366489D01*
X138879Y366590D01*
X138881Y366691D01*
X138881Y372110D01*
X138879Y372211D01*
X138873Y372312D01*
X138864Y372413D01*
X138851Y372514D01*
X138834Y372614D01*
X138813Y372713D01*
X138789Y372811D01*
X138761Y372908D01*
X138729Y373005D01*
X138694Y373100D01*
X138655Y373193D01*
X138613Y373285D01*
X138567Y373376D01*
X138518Y373465D01*
X138466Y373551D01*
X138410Y373636D01*
X138352Y373719D01*
X138290Y373799D01*
X138225Y373877D01*
X138158Y373953D01*
X138088Y374026D01*
X138015Y374096D01*
X137939Y374163D01*
X137861Y374228D01*
X137781Y374290D01*
X137698Y374348D01*
X137613Y374404D01*
X137527Y374456D01*
X137438Y374505D01*
X137347Y374551D01*
X137255Y374593D01*
X137162Y374632D01*
X137067Y374667D01*
X136970Y374699D01*
X136873Y374727D01*
X136775Y374751D01*
X136676Y374772D01*
X136576Y374789D01*
X136475Y374802D01*
X136374Y374811D01*
X136273Y374817D01*
X136172Y374819D01*
X131657Y374819D01*
X124775Y374819D02*
X124775Y363982D01*
X125227Y379335D02*
X125227Y380238D01*
X124323Y380238D01*
X124323Y379335D01*
X125227Y379335D01*
X109461Y380238D02*
X109461Y363982D01*
X109461Y380238D02*
X102236Y380238D01*
X102236Y373013D02*
X109461Y373013D01*
X96639Y374819D02*
X96639Y363982D01*
X97090Y379335D02*
X97090Y380238D01*
X96187Y380238D01*
X96187Y379335D01*
X97090Y379335D01*
X89830Y374819D02*
X89830Y363982D01*
X89830Y374819D02*
X85315Y374819D01*
X85211Y374817D01*
X85108Y374811D01*
X85004Y374801D01*
X84901Y374787D01*
X84799Y374769D01*
X84698Y374748D01*
X84597Y374722D01*
X84498Y374693D01*
X84399Y374660D01*
X84302Y374623D01*
X84207Y374582D01*
X84113Y374538D01*
X84021Y374490D01*
X83931Y374439D01*
X83842Y374384D01*
X83756Y374326D01*
X83673Y374264D01*
X83591Y374200D01*
X83513Y374132D01*
X83437Y374062D01*
X83363Y373989D01*
X83293Y373912D01*
X83225Y373834D01*
X83161Y373752D01*
X83099Y373669D01*
X83041Y373583D01*
X82986Y373494D01*
X82935Y373404D01*
X82887Y373312D01*
X82843Y373218D01*
X82802Y373123D01*
X82765Y373026D01*
X82732Y372927D01*
X82703Y372828D01*
X82677Y372727D01*
X82656Y372626D01*
X82638Y372524D01*
X82624Y372421D01*
X82614Y372317D01*
X82608Y372214D01*
X82606Y372110D01*
X82606Y363982D01*
X68611Y363982D02*
X68611Y380238D01*
X68611Y363982D02*
X73126Y363982D01*
X73227Y363984D01*
X73328Y363990D01*
X73429Y363999D01*
X73530Y364012D01*
X73630Y364029D01*
X73729Y364050D01*
X73827Y364074D01*
X73924Y364102D01*
X74021Y364134D01*
X74116Y364169D01*
X74209Y364208D01*
X74301Y364250D01*
X74392Y364296D01*
X74480Y364345D01*
X74567Y364397D01*
X74652Y364453D01*
X74735Y364511D01*
X74815Y364573D01*
X74893Y364638D01*
X74969Y364705D01*
X75042Y364775D01*
X75112Y364848D01*
X75179Y364924D01*
X75244Y365002D01*
X75306Y365082D01*
X75364Y365165D01*
X75420Y365250D01*
X75472Y365337D01*
X75521Y365425D01*
X75567Y365516D01*
X75609Y365608D01*
X75648Y365701D01*
X75683Y365796D01*
X75715Y365893D01*
X75743Y365990D01*
X75767Y366088D01*
X75788Y366187D01*
X75805Y366287D01*
X75818Y366388D01*
X75827Y366489D01*
X75833Y366590D01*
X75835Y366691D01*
X75836Y366691D02*
X75836Y372110D01*
X75835Y372110D02*
X75833Y372211D01*
X75827Y372312D01*
X75818Y372413D01*
X75805Y372514D01*
X75788Y372614D01*
X75767Y372713D01*
X75743Y372811D01*
X75715Y372908D01*
X75683Y373005D01*
X75648Y373100D01*
X75609Y373193D01*
X75567Y373285D01*
X75521Y373376D01*
X75472Y373465D01*
X75420Y373551D01*
X75364Y373636D01*
X75306Y373719D01*
X75244Y373799D01*
X75179Y373877D01*
X75112Y373953D01*
X75042Y374026D01*
X74969Y374096D01*
X74893Y374163D01*
X74815Y374228D01*
X74735Y374290D01*
X74652Y374348D01*
X74567Y374404D01*
X74481Y374456D01*
X74392Y374505D01*
X74301Y374551D01*
X74209Y374593D01*
X74116Y374632D01*
X74021Y374667D01*
X73924Y374699D01*
X73827Y374727D01*
X73729Y374751D01*
X73630Y374772D01*
X73530Y374789D01*
X73429Y374802D01*
X73328Y374811D01*
X73227Y374817D01*
X73126Y374819D01*
X68611Y374819D01*
X58985Y363982D02*
X54469Y363982D01*
X58985Y363982D02*
X59086Y363984D01*
X59187Y363990D01*
X59288Y363999D01*
X59389Y364012D01*
X59489Y364029D01*
X59588Y364050D01*
X59686Y364074D01*
X59783Y364102D01*
X59880Y364134D01*
X59975Y364169D01*
X60068Y364208D01*
X60160Y364250D01*
X60251Y364296D01*
X60339Y364345D01*
X60426Y364397D01*
X60511Y364453D01*
X60594Y364511D01*
X60674Y364573D01*
X60752Y364638D01*
X60828Y364705D01*
X60901Y364775D01*
X60971Y364848D01*
X61038Y364924D01*
X61103Y365002D01*
X61165Y365082D01*
X61223Y365165D01*
X61279Y365250D01*
X61331Y365337D01*
X61380Y365425D01*
X61426Y365516D01*
X61468Y365608D01*
X61507Y365701D01*
X61542Y365796D01*
X61574Y365893D01*
X61602Y365990D01*
X61626Y366088D01*
X61647Y366187D01*
X61664Y366287D01*
X61677Y366388D01*
X61686Y366489D01*
X61692Y366590D01*
X61694Y366691D01*
X61694Y371207D01*
X61692Y371326D01*
X61686Y371446D01*
X61676Y371565D01*
X61662Y371683D01*
X61645Y371802D01*
X61623Y371919D01*
X61598Y372036D01*
X61568Y372151D01*
X61535Y372266D01*
X61498Y372380D01*
X61458Y372492D01*
X61413Y372603D01*
X61365Y372712D01*
X61314Y372820D01*
X61259Y372926D01*
X61200Y373030D01*
X61138Y373132D01*
X61073Y373232D01*
X61004Y373330D01*
X60932Y373426D01*
X60857Y373519D01*
X60780Y373609D01*
X60699Y373697D01*
X60615Y373782D01*
X60528Y373864D01*
X60439Y373944D01*
X60347Y374020D01*
X60253Y374094D01*
X60156Y374164D01*
X60058Y374231D01*
X59957Y374295D01*
X59853Y374355D01*
X59748Y374412D01*
X59641Y374465D01*
X59533Y374515D01*
X59423Y374561D01*
X59311Y374603D01*
X59198Y374642D01*
X59084Y374677D01*
X58969Y374708D01*
X58852Y374736D01*
X58735Y374759D01*
X58618Y374779D01*
X58499Y374795D01*
X58380Y374807D01*
X58261Y374815D01*
X58142Y374819D01*
X58022Y374819D01*
X57903Y374815D01*
X57784Y374807D01*
X57665Y374795D01*
X57546Y374779D01*
X57429Y374759D01*
X57312Y374736D01*
X57195Y374708D01*
X57080Y374677D01*
X56966Y374642D01*
X56853Y374603D01*
X56741Y374561D01*
X56631Y374515D01*
X56523Y374465D01*
X56416Y374412D01*
X56311Y374355D01*
X56207Y374295D01*
X56106Y374231D01*
X56008Y374164D01*
X55911Y374094D01*
X55817Y374020D01*
X55725Y373944D01*
X55636Y373864D01*
X55549Y373782D01*
X55465Y373697D01*
X55384Y373609D01*
X55307Y373519D01*
X55232Y373426D01*
X55160Y373330D01*
X55091Y373232D01*
X55026Y373132D01*
X54964Y373030D01*
X54905Y372926D01*
X54850Y372820D01*
X54799Y372712D01*
X54751Y372603D01*
X54706Y372492D01*
X54666Y372380D01*
X54629Y372266D01*
X54596Y372151D01*
X54566Y372036D01*
X54541Y371919D01*
X54519Y371802D01*
X54502Y371683D01*
X54488Y371565D01*
X54478Y371446D01*
X54472Y371326D01*
X54470Y371207D01*
X54469Y371207D02*
X54469Y369401D01*
X61694Y369401D01*
X47541Y363982D02*
X47541Y374819D01*
X42123Y374819D01*
X42123Y373013D01*
X183479Y353568D02*
X183479Y337312D01*
X183479Y353568D02*
X178963Y353568D01*
X178830Y353566D01*
X178698Y353560D01*
X178566Y353550D01*
X178434Y353537D01*
X178302Y353519D01*
X178172Y353498D01*
X178041Y353473D01*
X177912Y353444D01*
X177784Y353411D01*
X177656Y353375D01*
X177530Y353335D01*
X177405Y353291D01*
X177281Y353243D01*
X177159Y353192D01*
X177038Y353137D01*
X176919Y353079D01*
X176801Y353017D01*
X176686Y352952D01*
X176572Y352883D01*
X176461Y352812D01*
X176352Y352736D01*
X176245Y352658D01*
X176140Y352577D01*
X176038Y352492D01*
X175938Y352405D01*
X175841Y352315D01*
X175746Y352222D01*
X175655Y352126D01*
X175566Y352028D01*
X175480Y351927D01*
X175397Y351823D01*
X175317Y351717D01*
X175241Y351609D01*
X175167Y351499D01*
X175097Y351386D01*
X175030Y351272D01*
X174967Y351155D01*
X174907Y351037D01*
X174850Y350917D01*
X174797Y350795D01*
X174748Y350672D01*
X174702Y350548D01*
X174660Y350422D01*
X174622Y350295D01*
X174587Y350167D01*
X174556Y350038D01*
X174529Y349909D01*
X174506Y349778D01*
X174486Y349647D01*
X174471Y349515D01*
X174459Y349383D01*
X174451Y349251D01*
X174447Y349118D01*
X174447Y348986D01*
X174451Y348853D01*
X174459Y348721D01*
X174471Y348589D01*
X174486Y348457D01*
X174506Y348326D01*
X174529Y348195D01*
X174556Y348066D01*
X174587Y347937D01*
X174622Y347809D01*
X174660Y347682D01*
X174702Y347556D01*
X174748Y347432D01*
X174797Y347309D01*
X174850Y347187D01*
X174907Y347067D01*
X174967Y346949D01*
X175030Y346832D01*
X175097Y346718D01*
X175167Y346605D01*
X175241Y346495D01*
X175317Y346387D01*
X175397Y346281D01*
X175480Y346177D01*
X175566Y346076D01*
X175655Y345978D01*
X175746Y345882D01*
X175841Y345789D01*
X175938Y345699D01*
X176038Y345612D01*
X176140Y345527D01*
X176245Y345446D01*
X176352Y345368D01*
X176461Y345292D01*
X176572Y345221D01*
X176686Y345152D01*
X176801Y345087D01*
X176919Y345025D01*
X177038Y344967D01*
X177159Y344912D01*
X177281Y344861D01*
X177405Y344813D01*
X177530Y344769D01*
X177656Y344729D01*
X177784Y344693D01*
X177912Y344660D01*
X178041Y344631D01*
X178172Y344606D01*
X178302Y344585D01*
X178434Y344567D01*
X178566Y344554D01*
X178698Y344544D01*
X178830Y344538D01*
X178963Y344536D01*
X178963Y344537D02*
X183479Y344537D01*
X165007Y337312D02*
X161394Y337312D01*
X165007Y337312D02*
X165125Y337314D01*
X165243Y337320D01*
X165361Y337329D01*
X165478Y337343D01*
X165595Y337360D01*
X165712Y337381D01*
X165827Y337406D01*
X165942Y337435D01*
X166056Y337468D01*
X166168Y337504D01*
X166279Y337544D01*
X166389Y337587D01*
X166498Y337634D01*
X166605Y337684D01*
X166710Y337739D01*
X166813Y337796D01*
X166914Y337857D01*
X167014Y337921D01*
X167111Y337988D01*
X167206Y338058D01*
X167298Y338132D01*
X167389Y338208D01*
X167476Y338288D01*
X167561Y338370D01*
X167643Y338455D01*
X167723Y338542D01*
X167799Y338633D01*
X167873Y338725D01*
X167943Y338820D01*
X168010Y338917D01*
X168074Y339017D01*
X168135Y339118D01*
X168192Y339221D01*
X168247Y339326D01*
X168297Y339433D01*
X168344Y339542D01*
X168387Y339652D01*
X168427Y339763D01*
X168463Y339875D01*
X168496Y339989D01*
X168525Y340104D01*
X168550Y340219D01*
X168571Y340336D01*
X168588Y340453D01*
X168602Y340570D01*
X168611Y340688D01*
X168617Y340806D01*
X168619Y340924D01*
X168619Y349956D01*
X168617Y350074D01*
X168611Y350192D01*
X168602Y350310D01*
X168588Y350427D01*
X168571Y350544D01*
X168550Y350661D01*
X168525Y350776D01*
X168496Y350891D01*
X168463Y351005D01*
X168427Y351117D01*
X168387Y351228D01*
X168344Y351338D01*
X168297Y351447D01*
X168247Y351554D01*
X168192Y351659D01*
X168135Y351762D01*
X168074Y351863D01*
X168010Y351963D01*
X167943Y352060D01*
X167873Y352155D01*
X167799Y352247D01*
X167723Y352338D01*
X167643Y352425D01*
X167561Y352510D01*
X167476Y352592D01*
X167389Y352672D01*
X167298Y352748D01*
X167206Y352822D01*
X167111Y352892D01*
X167014Y352959D01*
X166914Y353023D01*
X166813Y353084D01*
X166710Y353141D01*
X166605Y353196D01*
X166498Y353246D01*
X166389Y353293D01*
X166279Y353336D01*
X166168Y353376D01*
X166056Y353412D01*
X165942Y353445D01*
X165827Y353474D01*
X165712Y353499D01*
X165595Y353520D01*
X165478Y353537D01*
X165361Y353551D01*
X165243Y353560D01*
X165125Y353566D01*
X165007Y353568D01*
X161394Y353568D01*
X154821Y346343D02*
X150306Y346343D01*
X150306Y346344D02*
X150173Y346342D01*
X150041Y346336D01*
X149909Y346326D01*
X149777Y346313D01*
X149645Y346295D01*
X149515Y346274D01*
X149384Y346249D01*
X149255Y346220D01*
X149127Y346187D01*
X148999Y346151D01*
X148873Y346111D01*
X148748Y346067D01*
X148624Y346019D01*
X148502Y345968D01*
X148381Y345913D01*
X148262Y345855D01*
X148144Y345793D01*
X148029Y345728D01*
X147915Y345659D01*
X147804Y345588D01*
X147695Y345512D01*
X147588Y345434D01*
X147483Y345353D01*
X147381Y345268D01*
X147281Y345181D01*
X147184Y345091D01*
X147089Y344998D01*
X146998Y344902D01*
X146909Y344804D01*
X146823Y344703D01*
X146740Y344599D01*
X146660Y344493D01*
X146584Y344385D01*
X146510Y344275D01*
X146440Y344162D01*
X146373Y344048D01*
X146310Y343931D01*
X146250Y343813D01*
X146193Y343693D01*
X146140Y343571D01*
X146091Y343448D01*
X146045Y343324D01*
X146003Y343198D01*
X145965Y343071D01*
X145930Y342943D01*
X145899Y342814D01*
X145872Y342685D01*
X145849Y342554D01*
X145829Y342423D01*
X145814Y342291D01*
X145802Y342159D01*
X145794Y342027D01*
X145790Y341894D01*
X145790Y341762D01*
X145794Y341629D01*
X145802Y341497D01*
X145814Y341365D01*
X145829Y341233D01*
X145849Y341102D01*
X145872Y340971D01*
X145899Y340842D01*
X145930Y340713D01*
X145965Y340585D01*
X146003Y340458D01*
X146045Y340332D01*
X146091Y340208D01*
X146140Y340085D01*
X146193Y339963D01*
X146250Y339843D01*
X146310Y339725D01*
X146373Y339608D01*
X146440Y339494D01*
X146510Y339381D01*
X146584Y339271D01*
X146660Y339163D01*
X146740Y339057D01*
X146823Y338953D01*
X146909Y338852D01*
X146998Y338754D01*
X147089Y338658D01*
X147184Y338565D01*
X147281Y338475D01*
X147381Y338388D01*
X147483Y338303D01*
X147588Y338222D01*
X147695Y338144D01*
X147804Y338068D01*
X147915Y337997D01*
X148029Y337928D01*
X148144Y337863D01*
X148262Y337801D01*
X148381Y337743D01*
X148502Y337688D01*
X148624Y337637D01*
X148748Y337589D01*
X148873Y337545D01*
X148999Y337505D01*
X149127Y337469D01*
X149255Y337436D01*
X149384Y337407D01*
X149515Y337382D01*
X149645Y337361D01*
X149777Y337343D01*
X149909Y337330D01*
X150041Y337320D01*
X150173Y337314D01*
X150306Y337312D01*
X154821Y337312D01*
X154821Y353568D01*
X150306Y353568D01*
X150187Y353566D01*
X150067Y353560D01*
X149948Y353550D01*
X149830Y353536D01*
X149711Y353519D01*
X149594Y353497D01*
X149477Y353472D01*
X149362Y353442D01*
X149247Y353409D01*
X149133Y353372D01*
X149021Y353332D01*
X148910Y353287D01*
X148801Y353239D01*
X148693Y353188D01*
X148587Y353133D01*
X148483Y353074D01*
X148381Y353012D01*
X148281Y352947D01*
X148183Y352878D01*
X148087Y352806D01*
X147994Y352731D01*
X147904Y352654D01*
X147816Y352573D01*
X147731Y352489D01*
X147649Y352402D01*
X147569Y352313D01*
X147493Y352221D01*
X147419Y352127D01*
X147349Y352030D01*
X147282Y351932D01*
X147218Y351831D01*
X147158Y351727D01*
X147101Y351622D01*
X147048Y351515D01*
X146998Y351407D01*
X146952Y351297D01*
X146910Y351185D01*
X146871Y351072D01*
X146836Y350958D01*
X146805Y350843D01*
X146777Y350726D01*
X146754Y350609D01*
X146734Y350492D01*
X146718Y350373D01*
X146706Y350254D01*
X146698Y350135D01*
X146694Y350016D01*
X146694Y349896D01*
X146698Y349777D01*
X146706Y349658D01*
X146718Y349539D01*
X146734Y349420D01*
X146754Y349303D01*
X146777Y349186D01*
X146805Y349069D01*
X146836Y348954D01*
X146871Y348840D01*
X146910Y348727D01*
X146952Y348615D01*
X146998Y348505D01*
X147048Y348397D01*
X147101Y348290D01*
X147158Y348185D01*
X147218Y348081D01*
X147282Y347980D01*
X147349Y347882D01*
X147419Y347785D01*
X147493Y347691D01*
X147569Y347599D01*
X147649Y347510D01*
X147731Y347423D01*
X147816Y347339D01*
X147904Y347258D01*
X147994Y347181D01*
X148087Y347106D01*
X148183Y347034D01*
X148281Y346965D01*
X148381Y346900D01*
X148483Y346838D01*
X148587Y346779D01*
X148693Y346724D01*
X148801Y346673D01*
X148910Y346625D01*
X149021Y346580D01*
X149133Y346540D01*
X149247Y346503D01*
X149362Y346470D01*
X149477Y346440D01*
X149594Y346415D01*
X149711Y346393D01*
X149830Y346376D01*
X149948Y346362D01*
X150067Y346352D01*
X150187Y346346D01*
X150306Y346344D01*
X131130Y353568D02*
X131130Y337312D01*
X126615Y337312D01*
X126511Y337314D01*
X126408Y337320D01*
X126304Y337330D01*
X126201Y337344D01*
X126099Y337362D01*
X125998Y337383D01*
X125897Y337409D01*
X125798Y337438D01*
X125699Y337471D01*
X125602Y337508D01*
X125507Y337549D01*
X125413Y337593D01*
X125321Y337641D01*
X125231Y337692D01*
X125142Y337747D01*
X125056Y337805D01*
X124973Y337867D01*
X124891Y337931D01*
X124813Y337999D01*
X124737Y338069D01*
X124663Y338142D01*
X124593Y338219D01*
X124525Y338297D01*
X124461Y338379D01*
X124399Y338462D01*
X124341Y338548D01*
X124286Y338637D01*
X124235Y338727D01*
X124187Y338819D01*
X124143Y338913D01*
X124102Y339008D01*
X124065Y339105D01*
X124032Y339204D01*
X124003Y339303D01*
X123977Y339404D01*
X123956Y339505D01*
X123938Y339607D01*
X123924Y339710D01*
X123914Y339814D01*
X123908Y339917D01*
X123906Y340021D01*
X123905Y340021D02*
X123905Y345440D01*
X123906Y345440D02*
X123908Y345541D01*
X123914Y345642D01*
X123923Y345743D01*
X123936Y345844D01*
X123953Y345944D01*
X123974Y346043D01*
X123998Y346141D01*
X124026Y346238D01*
X124058Y346335D01*
X124093Y346430D01*
X124132Y346523D01*
X124174Y346615D01*
X124220Y346706D01*
X124269Y346795D01*
X124321Y346881D01*
X124377Y346966D01*
X124435Y347049D01*
X124497Y347129D01*
X124562Y347207D01*
X124629Y347283D01*
X124699Y347356D01*
X124772Y347426D01*
X124848Y347493D01*
X124926Y347558D01*
X125006Y347620D01*
X125089Y347678D01*
X125174Y347734D01*
X125261Y347786D01*
X125349Y347835D01*
X125440Y347881D01*
X125532Y347923D01*
X125625Y347962D01*
X125720Y347997D01*
X125817Y348029D01*
X125914Y348057D01*
X126012Y348081D01*
X126111Y348102D01*
X126211Y348119D01*
X126312Y348132D01*
X126413Y348141D01*
X126514Y348147D01*
X126615Y348149D01*
X131130Y348149D01*
X118178Y331893D02*
X116371Y331893D01*
X110953Y348149D01*
X118178Y348149D02*
X114565Y337312D01*
X96125Y337312D02*
X96125Y353568D01*
X88900Y353568D01*
X88900Y346343D02*
X96125Y346343D01*
X83129Y340924D02*
X79516Y353568D01*
X83129Y340924D02*
X74098Y340924D01*
X76807Y344537D02*
X76807Y337312D01*
X66977Y337312D02*
X66977Y353568D01*
X66977Y346343D02*
X57946Y346343D01*
X57946Y353568D02*
X57946Y337312D01*
X46309Y337312D02*
X51727Y353568D01*
X40890Y353568D02*
X46309Y337312D01*
X35193Y341828D02*
X35193Y349052D01*
X35194Y349052D02*
X35192Y349185D01*
X35186Y349317D01*
X35176Y349449D01*
X35163Y349581D01*
X35145Y349713D01*
X35124Y349843D01*
X35099Y349974D01*
X35070Y350103D01*
X35037Y350231D01*
X35001Y350359D01*
X34961Y350485D01*
X34917Y350610D01*
X34869Y350734D01*
X34818Y350856D01*
X34763Y350977D01*
X34705Y351096D01*
X34643Y351214D01*
X34578Y351329D01*
X34509Y351443D01*
X34438Y351554D01*
X34362Y351663D01*
X34284Y351770D01*
X34203Y351875D01*
X34118Y351977D01*
X34031Y352077D01*
X33941Y352174D01*
X33848Y352269D01*
X33752Y352360D01*
X33654Y352449D01*
X33553Y352535D01*
X33449Y352618D01*
X33343Y352698D01*
X33235Y352774D01*
X33125Y352848D01*
X33012Y352918D01*
X32898Y352985D01*
X32781Y353048D01*
X32663Y353108D01*
X32543Y353165D01*
X32421Y353218D01*
X32298Y353267D01*
X32174Y353313D01*
X32048Y353355D01*
X31921Y353393D01*
X31793Y353428D01*
X31664Y353459D01*
X31535Y353486D01*
X31404Y353509D01*
X31273Y353529D01*
X31141Y353544D01*
X31009Y353556D01*
X30877Y353564D01*
X30744Y353568D01*
X30612Y353568D01*
X30479Y353564D01*
X30347Y353556D01*
X30215Y353544D01*
X30083Y353529D01*
X29952Y353509D01*
X29821Y353486D01*
X29692Y353459D01*
X29563Y353428D01*
X29435Y353393D01*
X29308Y353355D01*
X29182Y353313D01*
X29058Y353267D01*
X28935Y353218D01*
X28813Y353165D01*
X28693Y353108D01*
X28575Y353048D01*
X28458Y352985D01*
X28344Y352918D01*
X28231Y352848D01*
X28121Y352774D01*
X28013Y352698D01*
X27907Y352618D01*
X27803Y352535D01*
X27702Y352449D01*
X27604Y352360D01*
X27508Y352269D01*
X27415Y352174D01*
X27325Y352077D01*
X27238Y351977D01*
X27153Y351875D01*
X27072Y351770D01*
X26994Y351663D01*
X26918Y351554D01*
X26847Y351443D01*
X26778Y351329D01*
X26713Y351214D01*
X26651Y351096D01*
X26593Y350977D01*
X26538Y350856D01*
X26487Y350734D01*
X26439Y350610D01*
X26395Y350485D01*
X26355Y350359D01*
X26319Y350231D01*
X26286Y350103D01*
X26257Y349974D01*
X26232Y349843D01*
X26211Y349713D01*
X26193Y349581D01*
X26180Y349449D01*
X26170Y349317D01*
X26164Y349185D01*
X26162Y349052D01*
X26162Y341828D01*
X26164Y341695D01*
X26170Y341563D01*
X26180Y341431D01*
X26193Y341299D01*
X26211Y341167D01*
X26232Y341037D01*
X26257Y340906D01*
X26286Y340777D01*
X26319Y340649D01*
X26355Y340521D01*
X26395Y340395D01*
X26439Y340270D01*
X26487Y340146D01*
X26538Y340024D01*
X26593Y339903D01*
X26651Y339784D01*
X26713Y339666D01*
X26778Y339551D01*
X26847Y339437D01*
X26918Y339326D01*
X26994Y339217D01*
X27072Y339110D01*
X27153Y339005D01*
X27238Y338903D01*
X27325Y338803D01*
X27415Y338706D01*
X27508Y338611D01*
X27604Y338520D01*
X27702Y338431D01*
X27803Y338345D01*
X27907Y338262D01*
X28013Y338182D01*
X28121Y338106D01*
X28231Y338032D01*
X28344Y337962D01*
X28458Y337895D01*
X28575Y337832D01*
X28693Y337772D01*
X28813Y337715D01*
X28935Y337662D01*
X29058Y337613D01*
X29182Y337567D01*
X29308Y337525D01*
X29435Y337487D01*
X29563Y337452D01*
X29692Y337421D01*
X29821Y337394D01*
X29952Y337371D01*
X30083Y337351D01*
X30215Y337336D01*
X30347Y337324D01*
X30479Y337316D01*
X30612Y337312D01*
X30744Y337312D01*
X30877Y337316D01*
X31009Y337324D01*
X31141Y337336D01*
X31273Y337351D01*
X31404Y337371D01*
X31535Y337394D01*
X31664Y337421D01*
X31793Y337452D01*
X31921Y337487D01*
X32048Y337525D01*
X32174Y337567D01*
X32298Y337613D01*
X32421Y337662D01*
X32543Y337715D01*
X32663Y337772D01*
X32781Y337832D01*
X32898Y337895D01*
X33012Y337962D01*
X33125Y338032D01*
X33235Y338106D01*
X33343Y338182D01*
X33449Y338262D01*
X33553Y338345D01*
X33654Y338431D01*
X33752Y338520D01*
X33848Y338611D01*
X33941Y338706D01*
X34031Y338803D01*
X34118Y338903D01*
X34203Y339005D01*
X34284Y339110D01*
X34362Y339217D01*
X34438Y339326D01*
X34509Y339437D01*
X34578Y339551D01*
X34643Y339666D01*
X34705Y339784D01*
X34763Y339903D01*
X34818Y340024D01*
X34869Y340146D01*
X34917Y340270D01*
X34961Y340395D01*
X35001Y340521D01*
X35037Y340649D01*
X35070Y340777D01*
X35099Y340906D01*
X35124Y341037D01*
X35145Y341167D01*
X35163Y341299D01*
X35176Y341431D01*
X35186Y341563D01*
X35192Y341695D01*
X35194Y341828D01*
X178963Y326898D02*
X183479Y323286D01*
X178963Y326898D02*
X178963Y310642D01*
X174448Y310642D02*
X183479Y310642D01*
X168473Y310642D02*
X168473Y311545D01*
X167570Y311545D01*
X167570Y310642D01*
X168473Y310642D01*
X161595Y318770D02*
X161591Y319090D01*
X161580Y319409D01*
X161561Y319729D01*
X161534Y320047D01*
X161500Y320365D01*
X161458Y320682D01*
X161408Y320998D01*
X161351Y321313D01*
X161287Y321626D01*
X161215Y321938D01*
X161136Y322248D01*
X161049Y322555D01*
X160955Y322861D01*
X160854Y323164D01*
X160745Y323465D01*
X160630Y323763D01*
X160507Y324059D01*
X160377Y324351D01*
X160240Y324640D01*
X160241Y324641D02*
X160202Y324749D01*
X160159Y324856D01*
X160113Y324961D01*
X160062Y325065D01*
X160009Y325167D01*
X159952Y325267D01*
X159891Y325365D01*
X159827Y325460D01*
X159760Y325554D01*
X159689Y325645D01*
X159616Y325734D01*
X159539Y325820D01*
X159460Y325903D01*
X159378Y325984D01*
X159293Y326062D01*
X159205Y326136D01*
X159115Y326208D01*
X159023Y326276D01*
X158928Y326342D01*
X158831Y326404D01*
X158732Y326462D01*
X158630Y326518D01*
X158528Y326569D01*
X158423Y326617D01*
X158317Y326662D01*
X158209Y326703D01*
X158100Y326740D01*
X157990Y326773D01*
X157878Y326802D01*
X157766Y326828D01*
X157653Y326850D01*
X157539Y326867D01*
X157425Y326881D01*
X157310Y326891D01*
X157195Y326897D01*
X157080Y326899D01*
X157080Y326898D02*
X156965Y326896D01*
X156850Y326890D01*
X156735Y326880D01*
X156621Y326866D01*
X156507Y326849D01*
X156394Y326827D01*
X156282Y326801D01*
X156170Y326772D01*
X156060Y326739D01*
X155951Y326702D01*
X155843Y326661D01*
X155737Y326616D01*
X155633Y326568D01*
X155530Y326517D01*
X155429Y326461D01*
X155329Y326403D01*
X155232Y326341D01*
X155138Y326276D01*
X155045Y326207D01*
X154955Y326135D01*
X154867Y326061D01*
X154782Y325983D01*
X154700Y325902D01*
X154621Y325819D01*
X154544Y325733D01*
X154471Y325644D01*
X154400Y325553D01*
X154333Y325459D01*
X154269Y325364D01*
X154208Y325266D01*
X154151Y325166D01*
X154098Y325064D01*
X154047Y324960D01*
X154001Y324855D01*
X153958Y324748D01*
X153919Y324640D01*
X153782Y324351D01*
X153652Y324059D01*
X153529Y323763D01*
X153414Y323465D01*
X153305Y323164D01*
X153204Y322861D01*
X153110Y322555D01*
X153023Y322248D01*
X152944Y321938D01*
X152872Y321626D01*
X152808Y321313D01*
X152751Y320998D01*
X152701Y320682D01*
X152659Y320365D01*
X152625Y320047D01*
X152598Y319729D01*
X152579Y319409D01*
X152568Y319090D01*
X152564Y318770D01*
X161595Y318770D02*
X161591Y318450D01*
X161580Y318131D01*
X161561Y317811D01*
X161534Y317493D01*
X161500Y317175D01*
X161458Y316858D01*
X161408Y316542D01*
X161351Y316227D01*
X161287Y315914D01*
X161215Y315602D01*
X161136Y315292D01*
X161049Y314985D01*
X160955Y314679D01*
X160854Y314376D01*
X160745Y314075D01*
X160630Y313777D01*
X160507Y313481D01*
X160377Y313189D01*
X160240Y312900D01*
X160241Y312900D02*
X160202Y312792D01*
X160159Y312685D01*
X160113Y312580D01*
X160062Y312476D01*
X160009Y312374D01*
X159952Y312274D01*
X159891Y312176D01*
X159827Y312081D01*
X159760Y311987D01*
X159689Y311896D01*
X159616Y311807D01*
X159539Y311721D01*
X159460Y311638D01*
X159378Y311557D01*
X159293Y311479D01*
X159205Y311405D01*
X159115Y311333D01*
X159022Y311264D01*
X158928Y311199D01*
X158831Y311137D01*
X158731Y311079D01*
X158630Y311023D01*
X158528Y310972D01*
X158423Y310924D01*
X158317Y310879D01*
X158209Y310838D01*
X158100Y310801D01*
X157990Y310768D01*
X157878Y310739D01*
X157766Y310713D01*
X157653Y310691D01*
X157539Y310674D01*
X157425Y310660D01*
X157310Y310650D01*
X157195Y310644D01*
X157080Y310642D01*
X153919Y312900D02*
X153782Y313189D01*
X153652Y313481D01*
X153529Y313777D01*
X153414Y314075D01*
X153305Y314376D01*
X153204Y314679D01*
X153110Y314985D01*
X153023Y315292D01*
X152944Y315602D01*
X152872Y315914D01*
X152808Y316227D01*
X152751Y316542D01*
X152701Y316858D01*
X152659Y317175D01*
X152625Y317493D01*
X152598Y317811D01*
X152579Y318131D01*
X152568Y318450D01*
X152564Y318770D01*
X153919Y312900D02*
X153958Y312792D01*
X154001Y312685D01*
X154047Y312580D01*
X154098Y312476D01*
X154151Y312374D01*
X154209Y312274D01*
X154269Y312176D01*
X154333Y312081D01*
X154400Y311987D01*
X154471Y311896D01*
X154544Y311807D01*
X154621Y311721D01*
X154700Y311638D01*
X154782Y311557D01*
X154867Y311479D01*
X154955Y311405D01*
X155045Y311333D01*
X155138Y311264D01*
X155232Y311199D01*
X155329Y311137D01*
X155429Y311079D01*
X155530Y311023D01*
X155633Y310972D01*
X155737Y310924D01*
X155843Y310879D01*
X155951Y310838D01*
X156060Y310801D01*
X156170Y310768D01*
X156282Y310739D01*
X156394Y310713D01*
X156507Y310691D01*
X156621Y310674D01*
X156735Y310660D01*
X156850Y310650D01*
X156965Y310644D01*
X157080Y310642D01*
X160692Y314254D02*
X153467Y323286D01*
X137627Y318770D02*
X137623Y319090D01*
X137612Y319409D01*
X137593Y319729D01*
X137566Y320047D01*
X137532Y320365D01*
X137490Y320682D01*
X137440Y320998D01*
X137383Y321313D01*
X137319Y321626D01*
X137247Y321938D01*
X137168Y322248D01*
X137081Y322555D01*
X136987Y322861D01*
X136886Y323164D01*
X136777Y323465D01*
X136662Y323763D01*
X136539Y324059D01*
X136409Y324351D01*
X136272Y324640D01*
X136273Y324641D02*
X136234Y324749D01*
X136191Y324856D01*
X136145Y324961D01*
X136094Y325065D01*
X136041Y325167D01*
X135984Y325267D01*
X135923Y325365D01*
X135859Y325460D01*
X135792Y325554D01*
X135721Y325645D01*
X135648Y325734D01*
X135571Y325820D01*
X135492Y325903D01*
X135410Y325984D01*
X135325Y326062D01*
X135237Y326136D01*
X135147Y326208D01*
X135055Y326276D01*
X134960Y326342D01*
X134863Y326404D01*
X134764Y326462D01*
X134662Y326518D01*
X134560Y326569D01*
X134455Y326617D01*
X134349Y326662D01*
X134241Y326703D01*
X134132Y326740D01*
X134022Y326773D01*
X133910Y326802D01*
X133798Y326828D01*
X133685Y326850D01*
X133571Y326867D01*
X133457Y326881D01*
X133342Y326891D01*
X133227Y326897D01*
X133112Y326899D01*
X133112Y326898D02*
X132997Y326896D01*
X132882Y326890D01*
X132767Y326880D01*
X132653Y326866D01*
X132539Y326849D01*
X132426Y326827D01*
X132314Y326801D01*
X132202Y326772D01*
X132092Y326739D01*
X131983Y326702D01*
X131875Y326661D01*
X131769Y326616D01*
X131665Y326568D01*
X131562Y326517D01*
X131461Y326461D01*
X131361Y326403D01*
X131264Y326341D01*
X131170Y326276D01*
X131077Y326207D01*
X130987Y326135D01*
X130899Y326061D01*
X130814Y325983D01*
X130732Y325902D01*
X130653Y325819D01*
X130576Y325733D01*
X130503Y325644D01*
X130432Y325553D01*
X130365Y325459D01*
X130301Y325364D01*
X130240Y325266D01*
X130183Y325166D01*
X130130Y325064D01*
X130079Y324960D01*
X130033Y324855D01*
X129990Y324748D01*
X129951Y324640D01*
X129814Y324351D01*
X129684Y324059D01*
X129561Y323763D01*
X129446Y323465D01*
X129337Y323164D01*
X129236Y322861D01*
X129142Y322555D01*
X129055Y322248D01*
X128976Y321938D01*
X128904Y321626D01*
X128840Y321313D01*
X128783Y320998D01*
X128733Y320682D01*
X128691Y320365D01*
X128657Y320047D01*
X128630Y319729D01*
X128611Y319409D01*
X128600Y319090D01*
X128596Y318770D01*
X137627Y318770D02*
X137623Y318450D01*
X137612Y318131D01*
X137593Y317811D01*
X137566Y317493D01*
X137532Y317175D01*
X137490Y316858D01*
X137440Y316542D01*
X137383Y316227D01*
X137319Y315914D01*
X137247Y315602D01*
X137168Y315292D01*
X137081Y314985D01*
X136987Y314679D01*
X136886Y314376D01*
X136777Y314075D01*
X136662Y313777D01*
X136539Y313481D01*
X136409Y313189D01*
X136272Y312900D01*
X136273Y312900D02*
X136234Y312792D01*
X136191Y312685D01*
X136145Y312580D01*
X136094Y312476D01*
X136041Y312374D01*
X135984Y312274D01*
X135923Y312176D01*
X135859Y312081D01*
X135792Y311987D01*
X135721Y311896D01*
X135648Y311807D01*
X135571Y311721D01*
X135492Y311638D01*
X135410Y311557D01*
X135325Y311479D01*
X135237Y311405D01*
X135147Y311333D01*
X135054Y311264D01*
X134960Y311199D01*
X134863Y311137D01*
X134763Y311079D01*
X134662Y311023D01*
X134560Y310972D01*
X134455Y310924D01*
X134349Y310879D01*
X134241Y310838D01*
X134132Y310801D01*
X134022Y310768D01*
X133910Y310739D01*
X133798Y310713D01*
X133685Y310691D01*
X133571Y310674D01*
X133457Y310660D01*
X133342Y310650D01*
X133227Y310644D01*
X133112Y310642D01*
X129951Y312900D02*
X129814Y313189D01*
X129684Y313481D01*
X129561Y313777D01*
X129446Y314075D01*
X129337Y314376D01*
X129236Y314679D01*
X129142Y314985D01*
X129055Y315292D01*
X128976Y315602D01*
X128904Y315914D01*
X128840Y316227D01*
X128783Y316542D01*
X128733Y316858D01*
X128691Y317175D01*
X128657Y317493D01*
X128630Y317811D01*
X128611Y318131D01*
X128600Y318450D01*
X128596Y318770D01*
X129951Y312900D02*
X129990Y312792D01*
X130033Y312685D01*
X130079Y312580D01*
X130130Y312476D01*
X130183Y312374D01*
X130241Y312274D01*
X130301Y312176D01*
X130365Y312081D01*
X130432Y311987D01*
X130503Y311896D01*
X130576Y311807D01*
X130653Y311721D01*
X130732Y311638D01*
X130814Y311557D01*
X130899Y311479D01*
X130987Y311405D01*
X131077Y311333D01*
X131170Y311264D01*
X131264Y311199D01*
X131361Y311137D01*
X131461Y311079D01*
X131562Y311023D01*
X131665Y310972D01*
X131769Y310924D01*
X131875Y310879D01*
X131983Y310838D01*
X132092Y310801D01*
X132202Y310768D01*
X132314Y310739D01*
X132426Y310713D01*
X132539Y310691D01*
X132653Y310674D01*
X132767Y310660D01*
X132882Y310650D01*
X132997Y310644D01*
X133112Y310642D01*
X136724Y314254D02*
X129499Y323286D01*
X121996Y315158D02*
X121994Y315291D01*
X121988Y315423D01*
X121978Y315555D01*
X121965Y315687D01*
X121947Y315819D01*
X121926Y315949D01*
X121901Y316080D01*
X121872Y316209D01*
X121839Y316337D01*
X121803Y316465D01*
X121763Y316591D01*
X121719Y316716D01*
X121671Y316840D01*
X121620Y316962D01*
X121565Y317083D01*
X121507Y317202D01*
X121445Y317320D01*
X121380Y317435D01*
X121311Y317549D01*
X121240Y317660D01*
X121164Y317769D01*
X121086Y317876D01*
X121005Y317981D01*
X120920Y318083D01*
X120833Y318183D01*
X120743Y318280D01*
X120650Y318375D01*
X120554Y318466D01*
X120456Y318555D01*
X120355Y318641D01*
X120251Y318724D01*
X120145Y318804D01*
X120037Y318880D01*
X119927Y318954D01*
X119814Y319024D01*
X119700Y319091D01*
X119583Y319154D01*
X119465Y319214D01*
X119345Y319271D01*
X119223Y319324D01*
X119100Y319373D01*
X118976Y319419D01*
X118850Y319461D01*
X118723Y319499D01*
X118595Y319534D01*
X118466Y319565D01*
X118337Y319592D01*
X118206Y319615D01*
X118075Y319635D01*
X117943Y319650D01*
X117811Y319662D01*
X117679Y319670D01*
X117546Y319674D01*
X117414Y319674D01*
X117281Y319670D01*
X117149Y319662D01*
X117017Y319650D01*
X116885Y319635D01*
X116754Y319615D01*
X116623Y319592D01*
X116494Y319565D01*
X116365Y319534D01*
X116237Y319499D01*
X116110Y319461D01*
X115984Y319419D01*
X115860Y319373D01*
X115737Y319324D01*
X115615Y319271D01*
X115495Y319214D01*
X115377Y319154D01*
X115260Y319091D01*
X115146Y319024D01*
X115033Y318954D01*
X114923Y318880D01*
X114815Y318804D01*
X114709Y318724D01*
X114605Y318641D01*
X114504Y318555D01*
X114406Y318466D01*
X114310Y318375D01*
X114217Y318280D01*
X114127Y318183D01*
X114040Y318083D01*
X113955Y317981D01*
X113874Y317876D01*
X113796Y317769D01*
X113720Y317660D01*
X113649Y317549D01*
X113580Y317435D01*
X113515Y317320D01*
X113453Y317202D01*
X113395Y317083D01*
X113340Y316962D01*
X113289Y316840D01*
X113241Y316716D01*
X113197Y316591D01*
X113157Y316465D01*
X113121Y316337D01*
X113088Y316209D01*
X113059Y316080D01*
X113034Y315949D01*
X113013Y315819D01*
X112995Y315687D01*
X112982Y315555D01*
X112972Y315423D01*
X112966Y315291D01*
X112964Y315158D01*
X112966Y315025D01*
X112972Y314893D01*
X112982Y314761D01*
X112995Y314629D01*
X113013Y314497D01*
X113034Y314367D01*
X113059Y314236D01*
X113088Y314107D01*
X113121Y313979D01*
X113157Y313851D01*
X113197Y313725D01*
X113241Y313600D01*
X113289Y313476D01*
X113340Y313354D01*
X113395Y313233D01*
X113453Y313114D01*
X113515Y312996D01*
X113580Y312881D01*
X113649Y312767D01*
X113720Y312656D01*
X113796Y312547D01*
X113874Y312440D01*
X113955Y312335D01*
X114040Y312233D01*
X114127Y312133D01*
X114217Y312036D01*
X114310Y311941D01*
X114406Y311850D01*
X114504Y311761D01*
X114605Y311675D01*
X114709Y311592D01*
X114815Y311512D01*
X114923Y311436D01*
X115033Y311362D01*
X115146Y311292D01*
X115260Y311225D01*
X115377Y311162D01*
X115495Y311102D01*
X115615Y311045D01*
X115737Y310992D01*
X115860Y310943D01*
X115984Y310897D01*
X116110Y310855D01*
X116237Y310817D01*
X116365Y310782D01*
X116494Y310751D01*
X116623Y310724D01*
X116754Y310701D01*
X116885Y310681D01*
X117017Y310666D01*
X117149Y310654D01*
X117281Y310646D01*
X117414Y310642D01*
X117546Y310642D01*
X117679Y310646D01*
X117811Y310654D01*
X117943Y310666D01*
X118075Y310681D01*
X118206Y310701D01*
X118337Y310724D01*
X118466Y310751D01*
X118595Y310782D01*
X118723Y310817D01*
X118850Y310855D01*
X118976Y310897D01*
X119100Y310943D01*
X119223Y310992D01*
X119345Y311045D01*
X119465Y311102D01*
X119583Y311162D01*
X119700Y311225D01*
X119814Y311292D01*
X119927Y311362D01*
X120037Y311436D01*
X120145Y311512D01*
X120251Y311592D01*
X120355Y311675D01*
X120456Y311761D01*
X120554Y311850D01*
X120650Y311941D01*
X120743Y312036D01*
X120833Y312133D01*
X120920Y312233D01*
X121005Y312335D01*
X121086Y312440D01*
X121164Y312547D01*
X121240Y312656D01*
X121311Y312767D01*
X121380Y312881D01*
X121445Y312996D01*
X121507Y313114D01*
X121565Y313233D01*
X121620Y313354D01*
X121671Y313476D01*
X121719Y313600D01*
X121763Y313725D01*
X121803Y313851D01*
X121839Y313979D01*
X121872Y314107D01*
X121901Y314236D01*
X121926Y314367D01*
X121947Y314497D01*
X121965Y314629D01*
X121978Y314761D01*
X121988Y314893D01*
X121994Y315025D01*
X121996Y315158D01*
X121092Y323286D02*
X121090Y323405D01*
X121084Y323525D01*
X121074Y323644D01*
X121060Y323762D01*
X121043Y323881D01*
X121021Y323998D01*
X120996Y324115D01*
X120966Y324230D01*
X120933Y324345D01*
X120896Y324459D01*
X120856Y324571D01*
X120811Y324682D01*
X120763Y324791D01*
X120712Y324899D01*
X120657Y325005D01*
X120598Y325109D01*
X120536Y325211D01*
X120471Y325311D01*
X120402Y325409D01*
X120330Y325505D01*
X120255Y325598D01*
X120178Y325688D01*
X120097Y325776D01*
X120013Y325861D01*
X119926Y325943D01*
X119837Y326023D01*
X119745Y326099D01*
X119651Y326173D01*
X119554Y326243D01*
X119456Y326310D01*
X119355Y326374D01*
X119251Y326434D01*
X119146Y326491D01*
X119039Y326544D01*
X118931Y326594D01*
X118821Y326640D01*
X118709Y326682D01*
X118596Y326721D01*
X118482Y326756D01*
X118367Y326787D01*
X118250Y326815D01*
X118133Y326838D01*
X118016Y326858D01*
X117897Y326874D01*
X117778Y326886D01*
X117659Y326894D01*
X117540Y326898D01*
X117420Y326898D01*
X117301Y326894D01*
X117182Y326886D01*
X117063Y326874D01*
X116944Y326858D01*
X116827Y326838D01*
X116710Y326815D01*
X116593Y326787D01*
X116478Y326756D01*
X116364Y326721D01*
X116251Y326682D01*
X116139Y326640D01*
X116029Y326594D01*
X115921Y326544D01*
X115814Y326491D01*
X115709Y326434D01*
X115605Y326374D01*
X115504Y326310D01*
X115406Y326243D01*
X115309Y326173D01*
X115215Y326099D01*
X115123Y326023D01*
X115034Y325943D01*
X114947Y325861D01*
X114863Y325776D01*
X114782Y325688D01*
X114705Y325598D01*
X114630Y325505D01*
X114558Y325409D01*
X114489Y325311D01*
X114424Y325211D01*
X114362Y325109D01*
X114303Y325005D01*
X114248Y324899D01*
X114197Y324791D01*
X114149Y324682D01*
X114104Y324571D01*
X114064Y324459D01*
X114027Y324345D01*
X113994Y324230D01*
X113964Y324115D01*
X113939Y323998D01*
X113917Y323881D01*
X113900Y323762D01*
X113886Y323644D01*
X113876Y323525D01*
X113870Y323405D01*
X113868Y323286D01*
X113870Y323167D01*
X113876Y323047D01*
X113886Y322928D01*
X113900Y322810D01*
X113917Y322691D01*
X113939Y322574D01*
X113964Y322457D01*
X113994Y322342D01*
X114027Y322227D01*
X114064Y322113D01*
X114104Y322001D01*
X114149Y321890D01*
X114197Y321781D01*
X114248Y321673D01*
X114303Y321567D01*
X114362Y321463D01*
X114424Y321361D01*
X114489Y321261D01*
X114558Y321163D01*
X114630Y321067D01*
X114705Y320974D01*
X114782Y320884D01*
X114863Y320796D01*
X114947Y320711D01*
X115034Y320629D01*
X115123Y320549D01*
X115215Y320473D01*
X115309Y320399D01*
X115406Y320329D01*
X115504Y320262D01*
X115605Y320198D01*
X115709Y320138D01*
X115814Y320081D01*
X115921Y320028D01*
X116029Y319978D01*
X116139Y319932D01*
X116251Y319890D01*
X116364Y319851D01*
X116478Y319816D01*
X116593Y319785D01*
X116710Y319757D01*
X116827Y319734D01*
X116944Y319714D01*
X117063Y319698D01*
X117182Y319686D01*
X117301Y319678D01*
X117420Y319674D01*
X117540Y319674D01*
X117659Y319678D01*
X117778Y319686D01*
X117897Y319698D01*
X118016Y319714D01*
X118133Y319734D01*
X118250Y319757D01*
X118367Y319785D01*
X118482Y319816D01*
X118596Y319851D01*
X118709Y319890D01*
X118821Y319932D01*
X118931Y319978D01*
X119039Y320028D01*
X119146Y320081D01*
X119251Y320138D01*
X119355Y320198D01*
X119456Y320262D01*
X119554Y320329D01*
X119651Y320399D01*
X119745Y320473D01*
X119837Y320549D01*
X119926Y320629D01*
X120013Y320711D01*
X120097Y320796D01*
X120178Y320884D01*
X120255Y320974D01*
X120330Y321067D01*
X120402Y321163D01*
X120471Y321261D01*
X120536Y321361D01*
X120598Y321463D01*
X120657Y321567D01*
X120712Y321673D01*
X120763Y321781D01*
X120811Y321890D01*
X120856Y322001D01*
X120896Y322113D01*
X120933Y322227D01*
X120966Y322342D01*
X120996Y322457D01*
X121021Y322574D01*
X121043Y322691D01*
X121060Y322810D01*
X121074Y322928D01*
X121084Y323047D01*
X121090Y323167D01*
X121092Y323286D01*
X107025Y308836D02*
X99800Y328704D01*
X88893Y326898D02*
X88768Y326896D01*
X88643Y326890D01*
X88518Y326881D01*
X88394Y326867D01*
X88270Y326850D01*
X88146Y326829D01*
X88024Y326804D01*
X87902Y326775D01*
X87781Y326743D01*
X87661Y326707D01*
X87542Y326667D01*
X87425Y326624D01*
X87309Y326577D01*
X87194Y326526D01*
X87082Y326472D01*
X86970Y326414D01*
X86861Y326354D01*
X86754Y326289D01*
X86648Y326222D01*
X86545Y326151D01*
X86444Y326077D01*
X86345Y326000D01*
X86249Y325920D01*
X86155Y325837D01*
X86064Y325752D01*
X85975Y325663D01*
X85890Y325572D01*
X85807Y325478D01*
X85727Y325382D01*
X85650Y325283D01*
X85576Y325182D01*
X85505Y325079D01*
X85438Y324973D01*
X85373Y324866D01*
X85313Y324757D01*
X85255Y324645D01*
X85201Y324533D01*
X85150Y324418D01*
X85103Y324302D01*
X85060Y324185D01*
X85020Y324066D01*
X84984Y323946D01*
X84952Y323825D01*
X84923Y323703D01*
X84898Y323581D01*
X84877Y323457D01*
X84860Y323333D01*
X84846Y323209D01*
X84837Y323084D01*
X84831Y322959D01*
X84829Y322834D01*
X88893Y326898D02*
X89036Y326896D01*
X89178Y326890D01*
X89321Y326880D01*
X89463Y326867D01*
X89604Y326849D01*
X89746Y326828D01*
X89886Y326803D01*
X90026Y326774D01*
X90165Y326741D01*
X90303Y326704D01*
X90440Y326664D01*
X90575Y326620D01*
X90710Y326572D01*
X90843Y326520D01*
X90975Y326465D01*
X91105Y326406D01*
X91233Y326344D01*
X91360Y326278D01*
X91485Y326209D01*
X91608Y326137D01*
X91729Y326061D01*
X91847Y325982D01*
X91964Y325899D01*
X92078Y325814D01*
X92190Y325725D01*
X92299Y325634D01*
X92406Y325539D01*
X92511Y325442D01*
X92612Y325341D01*
X92711Y325238D01*
X92807Y325133D01*
X92900Y325024D01*
X92990Y324913D01*
X93077Y324800D01*
X93161Y324685D01*
X93241Y324567D01*
X93319Y324447D01*
X93393Y324325D01*
X93463Y324201D01*
X93531Y324075D01*
X93594Y323947D01*
X93655Y323818D01*
X93712Y323687D01*
X93765Y323555D01*
X93814Y323421D01*
X93860Y323286D01*
X86184Y319673D02*
X86090Y319765D01*
X86000Y319859D01*
X85912Y319956D01*
X85827Y320056D01*
X85745Y320158D01*
X85666Y320263D01*
X85591Y320370D01*
X85519Y320479D01*
X85450Y320590D01*
X85384Y320704D01*
X85322Y320819D01*
X85263Y320936D01*
X85208Y321055D01*
X85157Y321175D01*
X85109Y321297D01*
X85064Y321420D01*
X85024Y321544D01*
X84987Y321670D01*
X84954Y321797D01*
X84925Y321924D01*
X84899Y322053D01*
X84878Y322182D01*
X84860Y322312D01*
X84847Y322442D01*
X84837Y322572D01*
X84831Y322703D01*
X84829Y322834D01*
X86183Y319673D02*
X93860Y310642D01*
X84829Y310642D01*
X78228Y318770D02*
X78224Y319090D01*
X78213Y319409D01*
X78194Y319729D01*
X78167Y320047D01*
X78133Y320365D01*
X78091Y320682D01*
X78041Y320998D01*
X77984Y321313D01*
X77920Y321626D01*
X77848Y321938D01*
X77769Y322248D01*
X77682Y322555D01*
X77588Y322861D01*
X77487Y323164D01*
X77378Y323465D01*
X77263Y323763D01*
X77140Y324059D01*
X77010Y324351D01*
X76873Y324640D01*
X76874Y324641D02*
X76835Y324749D01*
X76792Y324856D01*
X76746Y324961D01*
X76695Y325065D01*
X76642Y325167D01*
X76585Y325267D01*
X76524Y325365D01*
X76460Y325460D01*
X76393Y325554D01*
X76322Y325645D01*
X76249Y325734D01*
X76172Y325820D01*
X76093Y325903D01*
X76011Y325984D01*
X75926Y326062D01*
X75838Y326136D01*
X75748Y326208D01*
X75656Y326276D01*
X75561Y326342D01*
X75464Y326404D01*
X75365Y326462D01*
X75263Y326518D01*
X75161Y326569D01*
X75056Y326617D01*
X74950Y326662D01*
X74842Y326703D01*
X74733Y326740D01*
X74623Y326773D01*
X74511Y326802D01*
X74399Y326828D01*
X74286Y326850D01*
X74172Y326867D01*
X74058Y326881D01*
X73943Y326891D01*
X73828Y326897D01*
X73713Y326899D01*
X73713Y326898D02*
X73598Y326896D01*
X73483Y326890D01*
X73368Y326880D01*
X73254Y326866D01*
X73140Y326849D01*
X73027Y326827D01*
X72915Y326801D01*
X72803Y326772D01*
X72693Y326739D01*
X72584Y326702D01*
X72476Y326661D01*
X72370Y326616D01*
X72266Y326568D01*
X72163Y326517D01*
X72062Y326461D01*
X71962Y326403D01*
X71865Y326341D01*
X71771Y326276D01*
X71678Y326207D01*
X71588Y326135D01*
X71500Y326061D01*
X71415Y325983D01*
X71333Y325902D01*
X71254Y325819D01*
X71177Y325733D01*
X71104Y325644D01*
X71033Y325553D01*
X70966Y325459D01*
X70902Y325364D01*
X70841Y325266D01*
X70784Y325166D01*
X70731Y325064D01*
X70680Y324960D01*
X70634Y324855D01*
X70591Y324748D01*
X70552Y324640D01*
X70553Y324640D02*
X70416Y324351D01*
X70286Y324059D01*
X70163Y323763D01*
X70048Y323465D01*
X69939Y323164D01*
X69838Y322861D01*
X69744Y322555D01*
X69657Y322248D01*
X69578Y321938D01*
X69506Y321626D01*
X69442Y321313D01*
X69385Y320998D01*
X69335Y320682D01*
X69293Y320365D01*
X69259Y320047D01*
X69232Y319729D01*
X69213Y319409D01*
X69202Y319090D01*
X69198Y318770D01*
X78228Y318770D02*
X78224Y318450D01*
X78213Y318131D01*
X78194Y317811D01*
X78167Y317493D01*
X78133Y317175D01*
X78091Y316858D01*
X78041Y316542D01*
X77984Y316227D01*
X77920Y315914D01*
X77848Y315602D01*
X77769Y315292D01*
X77682Y314985D01*
X77588Y314679D01*
X77487Y314376D01*
X77378Y314075D01*
X77263Y313777D01*
X77140Y313481D01*
X77010Y313189D01*
X76873Y312900D01*
X76874Y312900D02*
X76835Y312792D01*
X76792Y312685D01*
X76746Y312580D01*
X76695Y312476D01*
X76642Y312374D01*
X76585Y312274D01*
X76524Y312176D01*
X76460Y312081D01*
X76393Y311987D01*
X76322Y311896D01*
X76249Y311807D01*
X76172Y311721D01*
X76093Y311638D01*
X76011Y311557D01*
X75926Y311479D01*
X75838Y311405D01*
X75748Y311333D01*
X75655Y311264D01*
X75561Y311199D01*
X75464Y311137D01*
X75364Y311079D01*
X75263Y311023D01*
X75161Y310972D01*
X75056Y310924D01*
X74950Y310879D01*
X74842Y310838D01*
X74733Y310801D01*
X74623Y310768D01*
X74511Y310739D01*
X74399Y310713D01*
X74286Y310691D01*
X74172Y310674D01*
X74058Y310660D01*
X73943Y310650D01*
X73828Y310644D01*
X73713Y310642D01*
X70553Y312900D02*
X70416Y313189D01*
X70286Y313481D01*
X70163Y313777D01*
X70048Y314075D01*
X69939Y314376D01*
X69838Y314679D01*
X69744Y314985D01*
X69657Y315292D01*
X69578Y315602D01*
X69506Y315914D01*
X69442Y316227D01*
X69385Y316542D01*
X69335Y316858D01*
X69293Y317175D01*
X69259Y317493D01*
X69232Y317811D01*
X69213Y318131D01*
X69202Y318450D01*
X69198Y318770D01*
X70552Y312900D02*
X70591Y312792D01*
X70634Y312685D01*
X70680Y312580D01*
X70731Y312476D01*
X70784Y312374D01*
X70842Y312274D01*
X70902Y312176D01*
X70966Y312081D01*
X71033Y311987D01*
X71104Y311896D01*
X71177Y311807D01*
X71254Y311721D01*
X71333Y311638D01*
X71415Y311557D01*
X71500Y311479D01*
X71588Y311405D01*
X71678Y311333D01*
X71771Y311264D01*
X71865Y311199D01*
X71962Y311137D01*
X72062Y311079D01*
X72163Y311023D01*
X72266Y310972D01*
X72370Y310924D01*
X72476Y310879D01*
X72584Y310838D01*
X72693Y310801D01*
X72803Y310768D01*
X72915Y310739D01*
X73027Y310713D01*
X73140Y310691D01*
X73254Y310674D01*
X73368Y310660D01*
X73483Y310650D01*
X73598Y310644D01*
X73713Y310642D01*
X77326Y314254D02*
X70101Y323286D01*
X62597Y323286D02*
X58082Y326898D01*
X58082Y310642D01*
X62597Y310642D02*
X53566Y310642D01*
X43354Y317867D02*
X37935Y317867D01*
X43354Y317867D02*
X43472Y317869D01*
X43590Y317875D01*
X43708Y317884D01*
X43825Y317898D01*
X43942Y317915D01*
X44059Y317936D01*
X44174Y317961D01*
X44289Y317990D01*
X44403Y318023D01*
X44515Y318059D01*
X44626Y318099D01*
X44736Y318142D01*
X44845Y318189D01*
X44952Y318239D01*
X45057Y318294D01*
X45160Y318351D01*
X45261Y318412D01*
X45361Y318476D01*
X45458Y318543D01*
X45553Y318613D01*
X45645Y318687D01*
X45736Y318763D01*
X45823Y318843D01*
X45908Y318925D01*
X45990Y319010D01*
X46070Y319097D01*
X46146Y319188D01*
X46220Y319280D01*
X46290Y319375D01*
X46357Y319472D01*
X46421Y319572D01*
X46482Y319673D01*
X46539Y319776D01*
X46594Y319881D01*
X46644Y319988D01*
X46691Y320097D01*
X46734Y320207D01*
X46774Y320318D01*
X46810Y320430D01*
X46843Y320544D01*
X46872Y320659D01*
X46897Y320774D01*
X46918Y320891D01*
X46935Y321008D01*
X46949Y321125D01*
X46958Y321243D01*
X46964Y321361D01*
X46966Y321479D01*
X46966Y322382D01*
X46967Y322382D02*
X46965Y322515D01*
X46959Y322647D01*
X46949Y322779D01*
X46936Y322911D01*
X46918Y323043D01*
X46897Y323173D01*
X46872Y323304D01*
X46843Y323433D01*
X46810Y323561D01*
X46774Y323689D01*
X46734Y323815D01*
X46690Y323940D01*
X46642Y324064D01*
X46591Y324186D01*
X46536Y324307D01*
X46478Y324426D01*
X46416Y324544D01*
X46351Y324659D01*
X46282Y324773D01*
X46211Y324884D01*
X46135Y324993D01*
X46057Y325100D01*
X45976Y325205D01*
X45891Y325307D01*
X45804Y325407D01*
X45714Y325504D01*
X45621Y325599D01*
X45525Y325690D01*
X45427Y325779D01*
X45326Y325865D01*
X45222Y325948D01*
X45116Y326028D01*
X45008Y326104D01*
X44898Y326178D01*
X44785Y326248D01*
X44671Y326315D01*
X44554Y326378D01*
X44436Y326438D01*
X44316Y326495D01*
X44194Y326548D01*
X44071Y326597D01*
X43947Y326643D01*
X43821Y326685D01*
X43694Y326723D01*
X43566Y326758D01*
X43437Y326789D01*
X43308Y326816D01*
X43177Y326839D01*
X43046Y326859D01*
X42914Y326874D01*
X42782Y326886D01*
X42650Y326894D01*
X42517Y326898D01*
X42385Y326898D01*
X42252Y326894D01*
X42120Y326886D01*
X41988Y326874D01*
X41856Y326859D01*
X41725Y326839D01*
X41594Y326816D01*
X41465Y326789D01*
X41336Y326758D01*
X41208Y326723D01*
X41081Y326685D01*
X40955Y326643D01*
X40831Y326597D01*
X40708Y326548D01*
X40586Y326495D01*
X40466Y326438D01*
X40348Y326378D01*
X40231Y326315D01*
X40117Y326248D01*
X40004Y326178D01*
X39894Y326104D01*
X39786Y326028D01*
X39680Y325948D01*
X39576Y325865D01*
X39475Y325779D01*
X39377Y325690D01*
X39281Y325599D01*
X39188Y325504D01*
X39098Y325407D01*
X39011Y325307D01*
X38926Y325205D01*
X38845Y325100D01*
X38767Y324993D01*
X38691Y324884D01*
X38620Y324773D01*
X38551Y324659D01*
X38486Y324544D01*
X38424Y324426D01*
X38366Y324307D01*
X38311Y324186D01*
X38260Y324064D01*
X38212Y323940D01*
X38168Y323815D01*
X38128Y323689D01*
X38092Y323561D01*
X38059Y323433D01*
X38030Y323304D01*
X38005Y323173D01*
X37984Y323043D01*
X37966Y322911D01*
X37953Y322779D01*
X37943Y322647D01*
X37937Y322515D01*
X37935Y322382D01*
X37935Y317867D01*
X37937Y317692D01*
X37943Y317518D01*
X37954Y317344D01*
X37969Y317170D01*
X37988Y316996D01*
X38011Y316823D01*
X38038Y316651D01*
X38070Y316479D01*
X38105Y316308D01*
X38145Y316138D01*
X38189Y315969D01*
X38237Y315801D01*
X38289Y315634D01*
X38345Y315469D01*
X38405Y315305D01*
X38468Y315142D01*
X38536Y314982D01*
X38608Y314822D01*
X38683Y314665D01*
X38763Y314509D01*
X38846Y314356D01*
X38932Y314204D01*
X39023Y314055D01*
X39117Y313908D01*
X39214Y313763D01*
X39315Y313620D01*
X39419Y313480D01*
X39527Y313343D01*
X39638Y313208D01*
X39752Y313076D01*
X39869Y312947D01*
X39990Y312820D01*
X40113Y312697D01*
X40240Y312576D01*
X40369Y312459D01*
X40501Y312345D01*
X40636Y312234D01*
X40773Y312126D01*
X40913Y312022D01*
X41056Y311921D01*
X41201Y311824D01*
X41348Y311730D01*
X41497Y311639D01*
X41649Y311553D01*
X41802Y311470D01*
X41958Y311390D01*
X42115Y311315D01*
X42275Y311243D01*
X42435Y311175D01*
X42598Y311112D01*
X42762Y311052D01*
X42927Y310996D01*
X43094Y310944D01*
X43262Y310896D01*
X43431Y310852D01*
X43601Y310812D01*
X43772Y310777D01*
X43944Y310745D01*
X44116Y310718D01*
X44289Y310695D01*
X44463Y310676D01*
X44637Y310661D01*
X44811Y310650D01*
X44985Y310644D01*
X45160Y310642D01*
M02*
