G04 EAGLE Gerber RS-274X export*
G75*
%MOMM*%
%FSLAX34Y34*%
%LPD*%
%INSolderpaste Top*%
%IPPOS*%
%AMOC8*
5,1,8,0,0,1.08239X$1,22.5*%
G01*
%ADD10R,1.300000X1.600000*%
%ADD11R,1.600000X1.300000*%
%ADD12R,0.660400X2.032000*%
%ADD13R,1.300000X1.500000*%
%ADD14R,1.500000X1.300000*%
%ADD15R,2.286000X5.080000*%
%ADD16R,1.397000X1.397000*%


D10*
X60800Y368300D03*
X40800Y368300D03*
D11*
X152400Y454500D03*
X152400Y434500D03*
X241300Y485300D03*
X241300Y505300D03*
X63500Y485300D03*
X63500Y505300D03*
X152400Y695800D03*
X152400Y675800D03*
X215900Y645000D03*
X215900Y625000D03*
X88900Y645000D03*
X88900Y625000D03*
D10*
X200500Y279400D03*
X180500Y279400D03*
D12*
X107950Y323596D03*
X107950Y385064D03*
X120650Y323596D03*
X133350Y323596D03*
X120650Y385064D03*
X133350Y385064D03*
X146050Y323596D03*
X146050Y385064D03*
X158750Y323596D03*
X171450Y323596D03*
X158750Y385064D03*
X171450Y385064D03*
X184150Y323596D03*
X184150Y385064D03*
D13*
X41300Y393700D03*
X60300Y393700D03*
D14*
X203200Y435000D03*
X203200Y454000D03*
X101600Y435000D03*
X101600Y454000D03*
X203200Y485800D03*
X203200Y504800D03*
X152400Y485800D03*
X152400Y504800D03*
X101600Y485800D03*
X101600Y504800D03*
D15*
X152400Y774446D03*
X196596Y774446D03*
X108204Y774446D03*
D16*
X219710Y571500D03*
X186690Y571500D03*
X85090Y571500D03*
X118110Y571500D03*
M02*
