G04 EAGLE Gerber RS-274X export*
G75*
%MOMM*%
%FSLAX34Y34*%
%LPD*%
%INSoldermask Top*%
%IPPOS*%
%AMOC8*
5,1,8,0,0,1.08239X$1,22.5*%
G01*
%ADD10R,1.503200X1.803200*%
%ADD11R,1.803200X1.503200*%
%ADD12R,0.863600X2.235200*%
%ADD13R,1.503200X1.703200*%
%ADD14R,1.703200X1.503200*%
%ADD15R,2.489200X5.283200*%
%ADD16P,1.951982X8X22.500000*%
%ADD17C,1.524000*%
%ADD18P,5.090697X8X22.500000*%
%ADD19R,1.600200X1.600200*%
%ADD20C,1.209600*%
%ADD21C,0.959600*%


D10*
X60800Y368300D03*
X40800Y368300D03*
D11*
X152400Y454500D03*
X152400Y434500D03*
X241300Y485300D03*
X241300Y505300D03*
X63500Y485300D03*
X63500Y505300D03*
X152400Y695800D03*
X152400Y675800D03*
X215900Y645000D03*
X215900Y625000D03*
X88900Y645000D03*
X88900Y625000D03*
D10*
X200500Y279400D03*
X180500Y279400D03*
D12*
X107950Y323596D03*
X107950Y385064D03*
X120650Y323596D03*
X133350Y323596D03*
X120650Y385064D03*
X133350Y385064D03*
X146050Y323596D03*
X146050Y385064D03*
X158750Y323596D03*
X171450Y323596D03*
X158750Y385064D03*
X171450Y385064D03*
X184150Y323596D03*
X184150Y385064D03*
D13*
X41300Y393700D03*
X60300Y393700D03*
D14*
X203200Y435000D03*
X203200Y454000D03*
X101600Y435000D03*
X101600Y454000D03*
X203200Y485800D03*
X203200Y504800D03*
X152400Y485800D03*
X152400Y504800D03*
X101600Y485800D03*
X101600Y504800D03*
D15*
X152400Y774446D03*
X196596Y774446D03*
X108204Y774446D03*
D16*
X101600Y254000D03*
X139700Y254000D03*
D17*
X237236Y355600D02*
X250444Y355600D01*
X250444Y330200D02*
X237236Y330200D01*
X237236Y381000D02*
X250444Y381000D01*
D18*
X38100Y723900D03*
X38100Y254000D03*
X266700Y723900D03*
X266700Y254000D03*
D19*
X219710Y571500D03*
X186690Y571500D03*
X85090Y571500D03*
X118110Y571500D03*
D20*
X127000Y736600D03*
X177800Y736600D03*
X177800Y711200D03*
X127000Y711200D03*
X127000Y685800D03*
X177800Y685800D03*
X127000Y660400D03*
X177800Y660400D03*
X177800Y635000D03*
X127000Y635000D03*
X127000Y609600D03*
X177800Y609600D03*
X241300Y609600D03*
X241300Y571500D03*
X241300Y546100D03*
X177800Y546100D03*
X127000Y546100D03*
X127000Y520700D03*
X177800Y520700D03*
X177800Y482600D03*
X127000Y482600D03*
X50800Y609600D03*
X50800Y571500D03*
X50800Y546100D03*
D21*
X152400Y406400D03*
X203200Y304800D03*
M02*
