G04 EAGLE Gerber RS-274X export*
G75*
%MOMM*%
%FSLAX34Y34*%
%LPD*%
%INSolderpaste Top*%
%IPPOS*%
%AMOC8*
5,1,8,0,0,1.08239X$1,22.5*%
G01*
%ADD10R,1.300000X1.600000*%
%ADD11R,1.600000X1.300000*%
%ADD12R,0.660400X2.032000*%
%ADD13R,1.300000X1.500000*%
%ADD14R,1.500000X1.300000*%
%ADD15R,2.286000X5.080000*%

G36*
X95602Y568853D02*
X95602Y568853D01*
X95604Y568851D01*
X95807Y568867D01*
X95811Y568871D01*
X95815Y568868D01*
X96014Y568916D01*
X96017Y568921D01*
X96021Y568919D01*
X96209Y568997D01*
X96212Y569001D01*
X96216Y569000D01*
X96390Y569106D01*
X96392Y569112D01*
X96396Y569111D01*
X96551Y569244D01*
X96552Y569249D01*
X96556Y569249D01*
X96689Y569404D01*
X96690Y569410D01*
X96694Y569410D01*
X96800Y569584D01*
X96799Y569590D01*
X96804Y569591D01*
X96882Y569779D01*
X96880Y569785D01*
X96884Y569786D01*
X96932Y569985D01*
X96930Y569991D01*
X96933Y569993D01*
X96949Y570196D01*
X96947Y570199D01*
X96949Y570200D01*
X96933Y573003D01*
X96928Y573010D01*
X96932Y573015D01*
X96884Y573214D01*
X96879Y573217D01*
X96882Y573221D01*
X96804Y573409D01*
X96799Y573412D01*
X96800Y573416D01*
X96694Y573590D01*
X96688Y573592D01*
X96689Y573596D01*
X96556Y573751D01*
X96551Y573752D01*
X96551Y573756D01*
X96396Y573889D01*
X96390Y573890D01*
X96390Y573894D01*
X96216Y574000D01*
X96210Y573999D01*
X96209Y574004D01*
X96021Y574082D01*
X96015Y574080D01*
X96014Y574084D01*
X95815Y574132D01*
X95809Y574130D01*
X95807Y574133D01*
X95604Y574149D01*
X95601Y574147D01*
X95600Y574149D01*
X86800Y574149D01*
X86798Y574147D01*
X86796Y574149D01*
X86593Y574133D01*
X86589Y574129D01*
X86585Y574132D01*
X86386Y574084D01*
X86383Y574079D01*
X86379Y574082D01*
X86191Y574004D01*
X86188Y573999D01*
X86184Y574000D01*
X86010Y573894D01*
X86008Y573888D01*
X86004Y573889D01*
X85849Y573756D01*
X85848Y573751D01*
X85844Y573751D01*
X85711Y573596D01*
X85710Y573590D01*
X85706Y573590D01*
X85600Y573416D01*
X85601Y573410D01*
X85597Y573409D01*
X85519Y573221D01*
X85520Y573215D01*
X85516Y573214D01*
X85468Y573015D01*
X85470Y573009D01*
X85467Y573007D01*
X85451Y572804D01*
X85453Y572801D01*
X85451Y572800D01*
X85467Y569997D01*
X85472Y569990D01*
X85468Y569985D01*
X85516Y569786D01*
X85521Y569783D01*
X85519Y569779D01*
X85597Y569591D01*
X85601Y569588D01*
X85600Y569584D01*
X85706Y569410D01*
X85712Y569408D01*
X85711Y569404D01*
X85844Y569249D01*
X85849Y569248D01*
X85849Y569244D01*
X86004Y569111D01*
X86010Y569110D01*
X86010Y569106D01*
X86184Y569000D01*
X86190Y569001D01*
X86191Y568997D01*
X86379Y568919D01*
X86385Y568920D01*
X86386Y568916D01*
X86585Y568868D01*
X86591Y568870D01*
X86593Y568867D01*
X86796Y568851D01*
X86799Y568853D01*
X86800Y568851D01*
X95600Y568851D01*
X95602Y568853D01*
G37*
G36*
X116402Y568853D02*
X116402Y568853D01*
X116404Y568851D01*
X116607Y568867D01*
X116611Y568871D01*
X116615Y568868D01*
X116814Y568916D01*
X116817Y568921D01*
X116821Y568919D01*
X117009Y568997D01*
X117012Y569001D01*
X117016Y569000D01*
X117190Y569106D01*
X117192Y569112D01*
X117196Y569111D01*
X117351Y569244D01*
X117352Y569249D01*
X117356Y569249D01*
X117489Y569404D01*
X117490Y569410D01*
X117494Y569410D01*
X117600Y569584D01*
X117599Y569590D01*
X117604Y569591D01*
X117682Y569779D01*
X117680Y569785D01*
X117684Y569786D01*
X117732Y569985D01*
X117730Y569991D01*
X117733Y569993D01*
X117749Y570196D01*
X117747Y570199D01*
X117749Y570200D01*
X117733Y573003D01*
X117728Y573010D01*
X117732Y573015D01*
X117684Y573214D01*
X117679Y573217D01*
X117682Y573221D01*
X117604Y573409D01*
X117599Y573412D01*
X117600Y573416D01*
X117494Y573590D01*
X117488Y573592D01*
X117489Y573596D01*
X117356Y573751D01*
X117351Y573752D01*
X117351Y573756D01*
X117196Y573889D01*
X117190Y573890D01*
X117190Y573894D01*
X117016Y574000D01*
X117010Y573999D01*
X117009Y574004D01*
X116821Y574082D01*
X116815Y574080D01*
X116814Y574084D01*
X116615Y574132D01*
X116609Y574130D01*
X116607Y574133D01*
X116404Y574149D01*
X116401Y574147D01*
X116400Y574149D01*
X107600Y574149D01*
X107598Y574147D01*
X107596Y574149D01*
X107393Y574133D01*
X107389Y574129D01*
X107385Y574132D01*
X107186Y574084D01*
X107183Y574079D01*
X107179Y574082D01*
X106991Y574004D01*
X106988Y573999D01*
X106984Y574000D01*
X106810Y573894D01*
X106808Y573888D01*
X106804Y573889D01*
X106649Y573756D01*
X106648Y573751D01*
X106644Y573751D01*
X106511Y573596D01*
X106510Y573590D01*
X106506Y573590D01*
X106400Y573416D01*
X106401Y573410D01*
X106397Y573409D01*
X106319Y573221D01*
X106320Y573215D01*
X106316Y573214D01*
X106268Y573015D01*
X106270Y573009D01*
X106267Y573007D01*
X106251Y572804D01*
X106253Y572801D01*
X106251Y572800D01*
X106267Y569997D01*
X106272Y569990D01*
X106268Y569985D01*
X106316Y569786D01*
X106321Y569783D01*
X106319Y569779D01*
X106397Y569591D01*
X106401Y569588D01*
X106400Y569584D01*
X106506Y569410D01*
X106512Y569408D01*
X106511Y569404D01*
X106644Y569249D01*
X106649Y569248D01*
X106649Y569244D01*
X106804Y569111D01*
X106810Y569110D01*
X106810Y569106D01*
X106984Y569000D01*
X106990Y569001D01*
X106991Y568997D01*
X107179Y568919D01*
X107185Y568920D01*
X107186Y568916D01*
X107385Y568868D01*
X107391Y568870D01*
X107393Y568867D01*
X107596Y568851D01*
X107599Y568853D01*
X107600Y568851D01*
X116400Y568851D01*
X116402Y568853D01*
G37*
G36*
X197202Y568853D02*
X197202Y568853D01*
X197204Y568851D01*
X197407Y568867D01*
X197411Y568871D01*
X197415Y568868D01*
X197614Y568916D01*
X197617Y568921D01*
X197621Y568919D01*
X197809Y568997D01*
X197812Y569001D01*
X197816Y569000D01*
X197990Y569106D01*
X197992Y569112D01*
X197996Y569111D01*
X198151Y569244D01*
X198152Y569249D01*
X198156Y569249D01*
X198289Y569404D01*
X198290Y569410D01*
X198294Y569410D01*
X198400Y569584D01*
X198399Y569590D01*
X198404Y569591D01*
X198482Y569779D01*
X198480Y569785D01*
X198484Y569786D01*
X198532Y569985D01*
X198530Y569991D01*
X198533Y569993D01*
X198549Y570196D01*
X198547Y570199D01*
X198549Y570200D01*
X198533Y573003D01*
X198528Y573010D01*
X198532Y573015D01*
X198484Y573214D01*
X198479Y573217D01*
X198482Y573221D01*
X198404Y573409D01*
X198399Y573412D01*
X198400Y573416D01*
X198294Y573590D01*
X198288Y573592D01*
X198289Y573596D01*
X198156Y573751D01*
X198151Y573752D01*
X198151Y573756D01*
X197996Y573889D01*
X197990Y573890D01*
X197990Y573894D01*
X197816Y574000D01*
X197810Y573999D01*
X197809Y574004D01*
X197621Y574082D01*
X197615Y574080D01*
X197614Y574084D01*
X197415Y574132D01*
X197409Y574130D01*
X197407Y574133D01*
X197204Y574149D01*
X197201Y574147D01*
X197200Y574149D01*
X188400Y574149D01*
X188398Y574147D01*
X188396Y574149D01*
X188193Y574133D01*
X188189Y574129D01*
X188185Y574132D01*
X187986Y574084D01*
X187983Y574079D01*
X187979Y574082D01*
X187791Y574004D01*
X187788Y573999D01*
X187784Y574000D01*
X187610Y573894D01*
X187608Y573888D01*
X187604Y573889D01*
X187449Y573756D01*
X187448Y573751D01*
X187444Y573751D01*
X187311Y573596D01*
X187310Y573590D01*
X187306Y573590D01*
X187200Y573416D01*
X187201Y573410D01*
X187197Y573409D01*
X187119Y573221D01*
X187120Y573215D01*
X187116Y573214D01*
X187068Y573015D01*
X187070Y573009D01*
X187067Y573007D01*
X187051Y572804D01*
X187053Y572801D01*
X187051Y572800D01*
X187067Y569997D01*
X187072Y569990D01*
X187068Y569985D01*
X187116Y569786D01*
X187121Y569783D01*
X187119Y569779D01*
X187197Y569591D01*
X187201Y569588D01*
X187200Y569584D01*
X187306Y569410D01*
X187312Y569408D01*
X187311Y569404D01*
X187444Y569249D01*
X187449Y569248D01*
X187449Y569244D01*
X187604Y569111D01*
X187610Y569110D01*
X187610Y569106D01*
X187784Y569000D01*
X187790Y569001D01*
X187791Y568997D01*
X187979Y568919D01*
X187985Y568920D01*
X187986Y568916D01*
X188185Y568868D01*
X188191Y568870D01*
X188193Y568867D01*
X188396Y568851D01*
X188399Y568853D01*
X188400Y568851D01*
X197200Y568851D01*
X197202Y568853D01*
G37*
G36*
X218002Y568853D02*
X218002Y568853D01*
X218004Y568851D01*
X218207Y568867D01*
X218211Y568871D01*
X218215Y568868D01*
X218414Y568916D01*
X218417Y568921D01*
X218421Y568919D01*
X218609Y568997D01*
X218612Y569001D01*
X218616Y569000D01*
X218790Y569106D01*
X218792Y569112D01*
X218796Y569111D01*
X218951Y569244D01*
X218952Y569249D01*
X218956Y569249D01*
X219089Y569404D01*
X219090Y569410D01*
X219094Y569410D01*
X219200Y569584D01*
X219199Y569590D01*
X219204Y569591D01*
X219282Y569779D01*
X219280Y569785D01*
X219284Y569786D01*
X219332Y569985D01*
X219330Y569991D01*
X219333Y569993D01*
X219349Y570196D01*
X219347Y570199D01*
X219349Y570200D01*
X219333Y573003D01*
X219328Y573010D01*
X219332Y573015D01*
X219284Y573214D01*
X219279Y573217D01*
X219282Y573221D01*
X219204Y573409D01*
X219199Y573412D01*
X219200Y573416D01*
X219094Y573590D01*
X219088Y573592D01*
X219089Y573596D01*
X218956Y573751D01*
X218951Y573752D01*
X218951Y573756D01*
X218796Y573889D01*
X218790Y573890D01*
X218790Y573894D01*
X218616Y574000D01*
X218610Y573999D01*
X218609Y574004D01*
X218421Y574082D01*
X218415Y574080D01*
X218414Y574084D01*
X218215Y574132D01*
X218209Y574130D01*
X218207Y574133D01*
X218004Y574149D01*
X218001Y574147D01*
X218000Y574149D01*
X209200Y574149D01*
X209198Y574147D01*
X209196Y574149D01*
X208993Y574133D01*
X208989Y574129D01*
X208985Y574132D01*
X208786Y574084D01*
X208783Y574079D01*
X208779Y574082D01*
X208591Y574004D01*
X208588Y573999D01*
X208584Y574000D01*
X208410Y573894D01*
X208408Y573888D01*
X208404Y573889D01*
X208249Y573756D01*
X208248Y573751D01*
X208244Y573751D01*
X208111Y573596D01*
X208110Y573590D01*
X208106Y573590D01*
X208000Y573416D01*
X208001Y573410D01*
X207997Y573409D01*
X207919Y573221D01*
X207920Y573215D01*
X207916Y573214D01*
X207868Y573015D01*
X207870Y573009D01*
X207867Y573007D01*
X207851Y572804D01*
X207853Y572801D01*
X207851Y572800D01*
X207867Y569997D01*
X207872Y569990D01*
X207868Y569985D01*
X207916Y569786D01*
X207921Y569783D01*
X207919Y569779D01*
X207997Y569591D01*
X208001Y569588D01*
X208000Y569584D01*
X208106Y569410D01*
X208112Y569408D01*
X208111Y569404D01*
X208244Y569249D01*
X208249Y569248D01*
X208249Y569244D01*
X208404Y569111D01*
X208410Y569110D01*
X208410Y569106D01*
X208584Y569000D01*
X208590Y569001D01*
X208591Y568997D01*
X208779Y568919D01*
X208785Y568920D01*
X208786Y568916D01*
X208985Y568868D01*
X208991Y568870D01*
X208993Y568867D01*
X209196Y568851D01*
X209199Y568853D01*
X209200Y568851D01*
X218000Y568851D01*
X218002Y568853D01*
G37*
D10*
X60800Y368300D03*
X40800Y368300D03*
D11*
X152400Y454500D03*
X152400Y434500D03*
X241300Y485300D03*
X241300Y505300D03*
X63500Y485300D03*
X63500Y505300D03*
X152400Y695800D03*
X152400Y675800D03*
X215900Y645000D03*
X215900Y625000D03*
X88900Y645000D03*
X88900Y625000D03*
D10*
X200500Y279400D03*
X180500Y279400D03*
D12*
X107950Y323596D03*
X107950Y385064D03*
X120650Y323596D03*
X133350Y323596D03*
X120650Y385064D03*
X133350Y385064D03*
X146050Y323596D03*
X146050Y385064D03*
X158750Y323596D03*
X171450Y323596D03*
X158750Y385064D03*
X171450Y385064D03*
X184150Y323596D03*
X184150Y385064D03*
D13*
X41300Y393700D03*
X60300Y393700D03*
D14*
X203200Y435000D03*
X203200Y454000D03*
X101600Y435000D03*
X101600Y454000D03*
X203200Y485800D03*
X203200Y504800D03*
X152400Y485800D03*
X152400Y504800D03*
X101600Y485800D03*
X101600Y504800D03*
D15*
X152400Y774446D03*
X196596Y774446D03*
X108204Y774446D03*
M02*
